{
.appVersion = "1028";
copyright = "Copyright © 2017 by Kirile Lortkipanidze, Sofiko Gogoladze. All rights reserved.";
customParameters = (
{
name = panose;
value = (
2,
0,
0,
0,
0,
0,
0,
0,
0,
0
);
},
{
name = unicodeRanges;
value = (
0,
1,
2,
3,
5,
7,
31,
33,
35,
38,
59,
62,
90,
92
);
},
{
name = codePageRanges;
value = (
1252,
1254,
1258,
850
);
},
{
name = glyphOrder;
value = (
.notdef,
.null,
uni000D,
space,
Agrave,
Aring,
Atilde,
C,
Ccedilla,
E,
Eacute,
Ecircumflex,
Edieresis,
Egrave,
F,
G,
H,
I,
Iacute,
Icircumflex,
Idieresis,
Igrave,
J,
K,
L,
M,
N,
Ntilde,
O,
Oacute,
Ocircumflex,
Odieresis,
Ograve,
Oslash,
Otilde,
P,
Q,
R,
S,
Scaron,
T,
U,
Uacute,
Ucircumflex,
Udieresis,
Ugrave,
V,
W,
X,
Y,
Yacute,
Ydieresis,
Z,
Zcaron,
a,
aacute,
acircumflex,
acute,
adieresis,
ae,
agrave,
ampersand,
aring,
at,
atilde,
b,
bracketleft,
bracketright,
c,
caron,
ccedilla,
circumflex,
colon,
comma,
d,
dagger,
daggerdbl,
dieresis,
e,
eacute,
ecircumflex,
edieresis,
egrave,
emdash,
endash,
eth,
exclam,
exclamdown,
f,
fi,
g,
germandbls,
grave,
guillemotleft,
guillemotright,
h,
hyphen,
i,
iacute,
icircumflex,
idieresis,
igrave,
j,
k,
l,
m,
n,
ntilde,
o,
oacute,
ocircumflex,
odieresis,
oe,
ograve,
oslash,
otilde,
p,
paragraph,
parenleft,
parenright,
period,
q,
question,
questiondown,
quotedblleft,
quotedblright,
quoteleft,
quoteright,
r,
ring,
s,
scaron,
section,
semicolon,
slash,
Adieresis,
t,
tilde,
u,
uacute,
ucircumflex,
udieresis,
ugrave,
underscore,
v,
w,
x,
yacute,
ydieresis,
z,
zcaron,
A,
B,
D,
y,
one,
two,
three,
zero,
four,
five,
eight,
nine,
percent,
perthousand,
numbersign,
Euro,
yen,
dollar,
cent,
sterling,
six,
seven,
asterisk,
florin,
ordfeminine,
ordmasculine,
trademark,
copyright,
registered,
minus,
plus,
plusminus,
divide,
multiply,
equal,
thorn,
mu,
Thorn,
OE,
fl,
Lslash,
lslash,
bar,
brokenbar,
dotaccent,
quotesinglbase,
quotedblbase,
ellipsis,
onesuperior,
twosuperior,
threesuperior,
cedilla,
hungarumlaut,
breve,
ogonek,
AE,
Aacute,
Acircumflex,
Eth,

glyphs = (
{
glyphname = Agrave;
lastChange = "2017-06-04 12:09:41 +0000";
layers = (
{
layerId = "1178E776-45A7-4003-9263-224E9F7E8A45";
paths = (
{
closed = 1;
nodes = (
"960 689 OFFCURVE",
"928 712 OFFCURVE",
"905 731 CURVE",
"902 734 OFFCURVE",
"878 728 OFFCURVE",
"865 717 CURVE",
"864 716 OFFCURVE",
"863 714 OFFCURVE",
"863 713 CURVE SMOOTH",
"863 711 OFFCURVE",
"864 710 OFFCURVE",
"865 709 CURVE",
"880 701 OFFCURVE",
"902 691 OFFCURVE",
"925 682 CURVE SMOOTH",
"948 673 OFFCURVE",
"972 664 OFFCURVE",
"988 660 CURVE",
"995 660 OFFCURVE",
"999 666 OFFCURVE",
"996 669 CURVE"
);
},
{
closed = 1;
nodes = (
"981 598 OFFCURVE",
"927 613 OFFCURVE",
"869 625 CURVE SMOOTH",
"811 636 OFFCURVE",
"749 644 OFFCURVE",
"694 644 CURVE SMOOTH",
"565 644 OFFCURVE",
"479 573 OFFCURVE",
"463 442 CURVE",
"464 435 OFFCURVE",
"470 433 OFFCURVE",
"473 440 CURVE",
"488 559 OFFCURVE",
"555 612 OFFCURVE",
"655 612 CURVE SMOOTH",
"743 612 OFFCURVE",
"842 590 OFFCURVE",
"931 561 CURVE",
"806 462 OFFCURVE",
"719 371 OFFCURVE",
"644 294 CURVE",
"621 293 OFFCURVE",
"600 293 OFFCURVE",
"582 293 CURVE",
"563 292 OFFCURVE",
"550 292 OFFCURVE",
"541 291 CURVE",
"536 290 OFFCURVE",
"530 289 OFFCURVE",
"525 287 CURVE SMOOTH",
"513 282 OFFCURVE",
"505 275 OFFCURVE",
"501 270 CURVE",
"499 267 OFFCURVE",
"500 266 OFFCURVE",
"503 265 CURVE",
"539 270 OFFCURVE",
"580 273 OFFCURVE",
"627 276 CURVE",
"610 259 OFFCURVE",
"594 243 OFFCURVE",
"579 228 CURVE SMOOTH",
"564 213 OFFCURVE",
"548 198 OFFCURVE",
"533 185 CURVE SMOOTH",
"445 105 OFFCURVE",
"346 55 OFFCURVE",
"233 55 CURVE SMOOTH",
"162 55 OFFCURVE",
"116 85 OFFCURVE",
"94 123 CURVE SMOOTH",
"72 161 OFFCURVE",
"74 208 OFFCURVE",
"105 241 CURVE",
"106 250 OFFCURVE",
"99 254 OFFCURVE",
"95 251 CURVE",
"51 196 OFFCURVE",
"37 134 OFFCURVE",
"51 85 CURVE SMOOTH",
"65 36 OFFCURVE",
"108 0 OFFCURVE",
"180 0 CURVE SMOOTH",
"315 0 OFFCURVE",
"423 58 OFFCURVE",
"530 155 CURVE SMOOTH",
"569 190 OFFCURVE",
"609 231 OFFCURVE",
"653 278 CURVE",
"710 281 OFFCURVE",
"771 282 OFFCURVE",
"834 282 CURVE",
"822 227 OFFCURVE",
"816 172 OFFCURVE",
"816 119 CURVE SMOOTH",
"816 43 OFFCURVE",
"844 0 OFFCURVE",
"897 0 CURVE SMOOTH",
"933 0 OFFCURVE",
"978 38 OFFCURVE",
"1013 94 CURVE",
"1014 99 OFFCURVE",
"1009 103 OFFCURVE",
"1005 100 CURVE",
"981 63 OFFCURVE",
"956 44 OFFCURVE",
"929 44 CURVE SMOOTH",
"890 44 OFFCURVE",
"877 81 OFFCURVE",
"877 145 CURVE SMOOTH",
"877 230 OFFCURVE",
"891 313 OFFCURVE",
"915 386 CURVE SMOOTH",
"939 459 OFFCURVE",
"974 522 OFFCURVE",
"1018 570 CURVE",
"1022 574 OFFCURVE",
"1024 577 OFFCURVE",
"1024 580 CURVE SMOOTH",
"1024 582 OFFCURVE",
"1023 584 OFFCURVE",
"1021 585 CURVE"
);
},
{
closed = 1;
nodes = (
"819 295 OFFCURVE",
"795 295 OFFCURVE",
"764 295 CURVE SMOOTH",
"733 295 OFFCURVE",
"701 295 OFFCURVE",
"669 294 CURVE",
"746 375 OFFCURVE",
"836 465 OFFCURVE",
"953 560 CURVE",
"897 484 OFFCURVE",
"858 391 OFFCURVE",
"837 295 CURVE"
);
}
);
width = 1015;
}
);
note = Agrave;
unicode = 00C0;
},
{
glyphname = Aring;
lastChange = "2017-06-04 12:09:41 +0000";
layers = (
{
layerId = "1178E776-45A7-4003-9263-224E9F7E8A45";
paths = (
{
closed = 1;
nodes = (
"1008 753 OFFCURVE",
"1018 743 OFFCURVE",
"1018 722 CURVE SMOOTH",
"1018 698 OFFCURVE",
"1006 682 OFFCURVE",
"986 682 CURVE SMOOTH",
"965 682 OFFCURVE",
"956 695 OFFCURVE",
"956 714 CURVE SMOOTH",
"956 738 OFFCURVE",
"968 753 OFFCURVE",
"989 753 CURVE SMOOTH"
);
},
{
closed = 1;
nodes = (
"1009 670 OFFCURVE",
"1034 699 OFFCURVE",
"1034 730 CURVE SMOOTH",
"1034 750 OFFCURVE",
"1024 765 OFFCURVE",
"1001 765 CURVE SMOOTH",
"966 765 OFFCURVE",
"940 737 OFFCURVE",
"940 706 CURVE SMOOTH",
"940 686 OFFCURVE",
"952 670 OFFCURVE",
"973 670 CURVE SMOOTH"
);
},
{
closed = 1;
nodes = (
"981 598 OFFCURVE",
"927 613 OFFCURVE",
"869 625 CURVE SMOOTH",
"811 636 OFFCURVE",
"749 644 OFFCURVE",
"694 644 CURVE SMOOTH",
"565 644 OFFCURVE",
"479 573 OFFCURVE",
"463 442 CURVE",
"464 435 OFFCURVE",
"470 433 OFFCURVE",
"473 440 CURVE",
"488 559 OFFCURVE",
"555 612 OFFCURVE",
"655 612 CURVE SMOOTH",
"743 612 OFFCURVE",
"842 590 OFFCURVE",
"931 561 CURVE",
"806 462 OFFCURVE",
"719 371 OFFCURVE",
"644 294 CURVE",
"621 293 OFFCURVE",
"600 293 OFFCURVE",
"582 293 CURVE",
"563 292 OFFCURVE",
"550 292 OFFCURVE",
"541 291 CURVE",
"536 290 OFFCURVE",
"530 289 OFFCURVE",
"525 287 CURVE SMOOTH",
"513 282 OFFCURVE",
"505 275 OFFCURVE",
"501 270 CURVE",
"499 267 OFFCURVE",
"500 266 OFFCURVE",
"503 265 CURVE",
"539 270 OFFCURVE",
"580 273 OFFCURVE",
"627 276 CURVE",
"610 259 OFFCURVE",
"594 243 OFFCURVE",
"579 228 CURVE SMOOTH",
"564 213 OFFCURVE",
"548 198 OFFCURVE",
"533 185 CURVE SMOOTH",
"445 105 OFFCURVE",
"346 55 OFFCURVE",
"233 55 CURVE SMOOTH",
"162 55 OFFCURVE",
"116 85 OFFCURVE",
"94 123 CURVE SMOOTH",
"72 161 OFFCURVE",
"74 208 OFFCURVE",
"105 241 CURVE",
"106 250 OFFCURVE",
"99 254 OFFCURVE",
"95 251 CURVE",
"51 196 OFFCURVE",
"37 134 OFFCURVE",
"51 85 CURVE SMOOTH",
"65 36 OFFCURVE",
"108 0 OFFCURVE",
"180 0 CURVE SMOOTH",
"315 0 OFFCURVE",
"423 58 OFFCURVE",
"530 155 CURVE SMOOTH",
"569 190 OFFCURVE",
"609 231 OFFCURVE",
"653 278 CURVE",
"710 281 OFFCURVE",
"771 282 OFFCURVE",
"834 282 CURVE",
"822 227 OFFCURVE",
"816 172 OFFCURVE",
"816 119 CURVE SMOOTH",
"816 43 OFFCURVE",
"844 0 OFFCURVE",
"897 0 CURVE SMOOTH",
"933 0 OFFCURVE",
"978 38 OFFCURVE",
"1013 94 CURVE",
"1014 99 OFFCURVE",
"1009 103 OFFCURVE",
"1005 100 CURVE",
"981 63 OFFCURVE",
"956 44 OFFCURVE",
"929 44 CURVE SMOOTH",
"890 44 OFFCURVE",
"877 81 OFFCURVE",
"877 145 CURVE SMOOTH",
"877 230 OFFCURVE",
"891 313 OFFCURVE",
"915 386 CURVE SMOOTH",
"939 459 OFFCURVE",
"974 522 OFFCURVE",
"1018 570 CURVE",
"1022 574 OFFCURVE",
"1024 577 OFFCURVE",
"1024 580 CURVE SMOOTH",
"1024 582 OFFCURVE",
"1023 584 OFFCURVE",
"1021 585 CURVE"
);
},
{
closed = 1;
nodes = (
"819 295 OFFCURVE",
"795 295 OFFCURVE",
"764 295 CURVE SMOOTH",
"733 295 OFFCURVE",
"701 295 OFFCURVE",
"669 294 CURVE",
"746 375 OFFCURVE",
"836 465 OFFCURVE",
"953 560 CURVE",
"897 484 OFFCURVE",
"858 391 OFFCURVE",
"837 295 CURVE"
);
}
);
width = 1015;
}
);
note = Aring;
unicode = 00C5;
},
{
glyphname = Atilde;
lastChange = "2017-06-04 12:09:41 +0000";
layers = (
{
layerId = "1178E776-45A7-4003-9263-224E9F7E8A45";
paths = (
{
closed = 1;
nodes = (
"867 669 OFFCURVE",
"872 664 OFFCURVE",
"877 667 CURVE",
"892 686 OFFCURVE",
"906 698 OFFCURVE",
"923 698 CURVE SMOOTH",
"936 698 OFFCURVE",
"950 690 OFFCURVE",
"964 682 CURVE",
"978 673 OFFCURVE",
"992 665 OFFCURVE",
"1011 665 CURVE SMOOTH",
"1051 665 OFFCURVE",
"1071 688 OFFCURVE",
"1087 724 CURVE",
"1088 728 OFFCURVE",
"1082 731 OFFCURVE",
"1079 728 CURVE",
"1066 700 OFFCURVE",
"1052 684 OFFCURVE",
"1028 684 CURVE SMOOTH",
"1007 684 OFFCURVE",
"991 693 OFFCURVE",
"977 702 CURVE",
"963 710 OFFCURVE",
"951 719 OFFCURVE",
"935 719 CURVE SMOOTH",
"912 719 OFFCURVE",
"885 694 OFFCURVE",
"870 673 CURVE SMOOTH"
);
},
{
closed = 1;
nodes = (
"981 598 OFFCURVE",
"927 613 OFFCURVE",
"869 625 CURVE SMOOTH",
"811 636 OFFCURVE",
"749 644 OFFCURVE",
"694 644 CURVE SMOOTH",
"565 644 OFFCURVE",
"479 573 OFFCURVE",
"463 442 CURVE",
"464 435 OFFCURVE",
"470 433 OFFCURVE",
"473 440 CURVE",
"488 559 OFFCURVE",
"555 612 OFFCURVE",
"655 612 CURVE SMOOTH",
"743 612 OFFCURVE",
"842 590 OFFCURVE",
"931 561 CURVE",
"806 462 OFFCURVE",
"719 371 OFFCURVE",
"644 294 CURVE",
"621 293 OFFCURVE",
"600 293 OFFCURVE",
"582 293 CURVE",
"563 292 OFFCURVE",
"550 292 OFFCURVE",
"541 291 CURVE",
"536 290 OFFCURVE",
"530 289 OFFCURVE",
"525 287 CURVE SMOOTH",
"513 282 OFFCURVE",
"505 275 OFFCURVE",
"501 270 CURVE",
"499 267 OFFCURVE",
"500 266 OFFCURVE",
"503 265 CURVE",
"539 270 OFFCURVE",
"580 273 OFFCURVE",
"627 276 CURVE",
"610 259 OFFCURVE",
"594 243 OFFCURVE",
"579 228 CURVE SMOOTH",
"564 213 OFFCURVE",
"548 198 OFFCURVE",
"533 185 CURVE SMOOTH",
"445 105 OFFCURVE",
"346 55 OFFCURVE",
"233 55 CURVE SMOOTH",
"162 55 OFFCURVE",
"116 85 OFFCURVE",
"94 123 CURVE SMOOTH",
"72 161 OFFCURVE",
"74 208 OFFCURVE",
"105 241 CURVE",
"106 250 OFFCURVE",
"99 254 OFFCURVE",
"95 251 CURVE",
"51 196 OFFCURVE",
"37 134 OFFCURVE",
"51 85 CURVE SMOOTH",
"65 36 OFFCURVE",
"108 0 OFFCURVE",
"180 0 CURVE SMOOTH",
"315 0 OFFCURVE",
"423 58 OFFCURVE",
"530 155 CURVE SMOOTH",
"569 190 OFFCURVE",
"609 231 OFFCURVE",
"653 278 CURVE",
"710 281 OFFCURVE",
"771 282 OFFCURVE",
"834 282 CURVE",
"822 227 OFFCURVE",
"816 172 OFFCURVE",
"816 119 CURVE SMOOTH",
"816 43 OFFCURVE",
"844 0 OFFCURVE",
"897 0 CURVE SMOOTH",
"933 0 OFFCURVE",
"978 38 OFFCURVE",
"1013 94 CURVE",
"1014 99 OFFCURVE",
"1009 103 OFFCURVE",
"1005 100 CURVE",
"981 63 OFFCURVE",
"956 44 OFFCURVE",
"929 44 CURVE SMOOTH",
"890 44 OFFCURVE",
"877 81 OFFCURVE",
"877 145 CURVE SMOOTH",
"877 230 OFFCURVE",
"891 313 OFFCURVE",
"915 386 CURVE SMOOTH",
"939 459 OFFCURVE",
"974 522 OFFCURVE",
"1018 570 CURVE",
"1022 574 OFFCURVE",
"1024 577 OFFCURVE",
"1024 580 CURVE SMOOTH",
"1024 582 OFFCURVE",
"1023 584 OFFCURVE",
"1021 585 CURVE"
);
},
{
closed = 1;
nodes = (
"819 295 OFFCURVE",
"795 295 OFFCURVE",
"764 295 CURVE SMOOTH",
"733 295 OFFCURVE",
"701 295 OFFCURVE",
"669 294 CURVE",
"746 375 OFFCURVE",
"836 465 OFFCURVE",
"953 560 CURVE",
"897 484 OFFCURVE",
"858 391 OFFCURVE",
"837 295 CURVE"
);
}
);
width = 1015;
}
);
note = Atilde;
unicode = 00C3;
},
{
glyphname = C;
lastChange = "2017-06-04 12:09:41 +0000";
layers = (
{
layerId = "1178E776-45A7-4003-9263-224E9F7E8A45";
paths = (
{
closed = 1;
nodes = (
"362 644 OFFCURVE",
"260 601 OFFCURVE",
"186 530 CURVE SMOOTH",
"112 459 OFFCURVE",
"69 358 OFFCURVE",
"69 245 CURVE SMOOTH",
"69 92 OFFCURVE",
"162 0 OFFCURVE",
"349 0 CURVE SMOOTH",
"408 0 OFFCURVE",
"461 10 OFFCURVE",
"504 26 CURVE",
"508 27 OFFCURVE",
"513 34 OFFCURVE",
"519 45 CURVE SMOOTH",
"525 56 OFFCURVE",
"531 69 OFFCURVE",
"537 84 CURVE SMOOTH",
"549 114 OFFCURVE",
"560 150 OFFCURVE",
"565 178 CURVE",
"565 185 OFFCURVE",
"556 187 OFFCURVE",
"553 180 CURVE",
"526 81 OFFCURVE",
"461 17 OFFCURVE",
"365 17 CURVE SMOOTH",
"293 17 OFFCURVE",
"237 45 OFFCURVE",
"198 91 CURVE SMOOTH",
"159 137 OFFCURVE",
"139 201 OFFCURVE",
"139 276 CURVE SMOOTH",
"139 380 OFFCURVE",
"165 465 OFFCURVE",
"217 524 CURVE SMOOTH",
"269 583 OFFCURVE",
"347 616 OFFCURVE",
"451 616 CURVE SMOOTH",
"492 616 OFFCURVE",
"527 610 OFFCURVE",
"555 597 CURVE SMOOTH",
"611 572 OFFCURVE",
"629 549 OFFCURVE",
"601 500 CURVE",
"598 493 OFFCURVE",
"607 489 OFFCURVE",
"611 492 CURVE",
"619 503 OFFCURVE",
"629 523 OFFCURVE",
"637 543 CURVE SMOOTH",
"644 562 OFFCURVE",
"650 581 OFFCURVE",
"650 592 CURVE SMOOTH",
"650 608 OFFCURVE",
"632 621 OFFCURVE",
"603 630 CURVE SMOOTH",
"574 639 OFFCURVE",
"533 644 OFFCURVE",
"485 644 CURVE SMOOTH"
);
}
);
width = 577;
}
);
note = C;
unicode = 0043;
},
{
glyphname = Ccedilla;
lastChange = "2017-06-04 12:09:41 +0000";
layers = (
{
layerId = "1178E776-45A7-4003-9263-224E9F7E8A45";
paths = (
{
closed = 1;
nodes = (
"363 644 OFFCURVE",
"259 601 OFFCURVE",
"186 530 CURVE SMOOTH",
"113 459 OFFCURVE",
"69 359 OFFCURVE",
"69 246 CURVE SMOOTH",
"69 93 OFFCURVE",
"160 3 OFFCURVE",
"344 0 CURVE",
"325 -15 OFFCURVE",
"323 -32 OFFCURVE",
"328 -49 CURVE",
"337 -76 OFFCURVE",
"333 -93 OFFCURVE",
"298 -109 CURVE",
"295 -112 OFFCURVE",
"296 -118 OFFCURVE",
"300 -119 CURVE",
"347 -100 OFFCURVE",
"366 -63 OFFCURVE",
"354 -32 CURVE SMOOTH",
"350 -21 OFFCURVE",
"352 -8 OFFCURVE",
"361 0 CURVE",
"416 3 OFFCURVE",
"466 11 OFFCURVE",
"505 26 CURVE",
"509 28 OFFCURVE",
"514 34 OFFCURVE",
"520 45 CURVE",
"525 56 OFFCURVE",
"531 69 OFFCURVE",
"537 84 CURVE SMOOTH",
"549 115 OFFCURVE",
"561 150 OFFCURVE",
"566 178 CURVE",
"566 185 OFFCURVE",
"557 186 OFFCURVE",
"553 181 CURVE",
"526 81 OFFCURVE",
"461 18 OFFCURVE",
"365 18 CURVE SMOOTH",
"293 18 OFFCURVE",
"237 46 OFFCURVE",
"199 92 CURVE SMOOTH",
"161 138 OFFCURVE",
"140 201 OFFCURVE",
"140 276 CURVE SMOOTH",
"140 380 OFFCURVE",
"165 465 OFFCURVE",
"217 525 CURVE SMOOTH",
"269 584 OFFCURVE",
"347 617 OFFCURVE",
"451 617 CURVE SMOOTH",
"492 617 OFFCURVE",
"527 611 OFFCURVE",
"556 598 CURVE SMOOTH",
"612 572 OFFCURVE",
"630 549 OFFCURVE",
"602 500 CURVE SMOOTH",
"599 495 OFFCURVE",
"608 490 OFFCURVE",
"612 493 CURVE",
"620 504 OFFCURVE",
"630 523 OFFCURVE",
"638 543 CURVE SMOOTH",
"645 562 OFFCURVE",
"651 581 OFFCURVE",
"651 592 CURVE SMOOTH",
"651 608 OFFCURVE",
"633 621 OFFCURVE",
"604 630 CURVE SMOOTH",
"575 639 OFFCURVE",
"534 644 OFFCURVE",
"486 644 CURVE SMOOTH"
);
}
);
width = 578;
}
);
note = Ccedilla;
unicode = 00C7;
},
{
glyphname = E;
lastChange = "2017-06-04 12:09:41 +0000";
layers = (
{
layerId = "1178E776-45A7-4003-9263-224E9F7E8A45";
paths = (
{
closed = 1;
nodes = (
"288 583 OFFCURVE",
"328 623 OFFCURVE",
"408 623 CURVE SMOOTH",
"467 623 OFFCURVE",
"513 596 OFFCURVE",
"529 563 CURVE",
"537 544 OFFCURVE",
"533 527 OFFCURVE",
"525 512 CURVE",
"524 507 OFFCURVE",
"529 503 OFFCURVE",
"533 506 CURVE",
"537 511 OFFCURVE",
"545 527 OFFCURVE",
"553 543 CURVE",
"560 559 OFFCURVE",
"565 576 OFFCURVE",
"565 587 CURVE SMOOTH",
"565 600 OFFCURVE",
"550 615 OFFCURVE",
"526 626 CURVE SMOOTH",
"501 637 OFFCURVE",
"468 644 OFFCURVE",
"432 644 CURVE SMOOTH",
"367 644 OFFCURVE",
"316 628 OFFCURVE",
"281 604 CURVE SMOOTH",
"246 580 OFFCURVE",
"228 546 OFFCURVE",
"228 510 CURVE SMOOTH",
"228 463 OFFCURVE",
"261 426 OFFCURVE",
"312 405 CURVE",
"239 392 OFFCURVE",
"176 362 OFFCURVE",
"132 319 CURVE SMOOTH",
"87 276 OFFCURVE",
"60 222 OFFCURVE",
"60 158 CURVE SMOOTH",
"60 58 OFFCURVE",
"127 0 OFFCURVE",
"252 0 CURVE SMOOTH",
"291 0 OFFCURVE",
"324 3 OFFCURVE",
"353 10 CURVE SMOOTH",
"410 22 OFFCURVE",
"447 32 OFFCURVE",
"469 81 CURVE SMOOTH",
"480 106 OFFCURVE",
"489 137 OFFCURVE",
"497 174 CURVE",
"496 182 OFFCURVE",
"490 186 OFFCURVE",
"486 179 CURVE",
"455 66 OFFCURVE",
"386 18 OFFCURVE",
"277 18 CURVE SMOOTH",
"230 18 OFFCURVE",
"194 36 OFFCURVE",
"168 65 CURVE SMOOTH",
"142 94 OFFCURVE",
"127 135 OFFCURVE",
"127 182 CURVE SMOOTH",
"127 319 OFFCURVE",
"211 392 OFFCURVE",
"359 385 CURVE",
"362 386 OFFCURVE",
"365 388 OFFCURVE",
"370 391 CURVE",
"379 398 OFFCURVE",
"388 407 OFFCURVE",
"393 415 CURVE SMOOTH",
"395 418 OFFCURVE",
"395 421 OFFCURVE",
"393 422 CURVE",
"317 445 OFFCURVE",
"288 476 OFFCURVE",
"288 523 CURVE SMOOTH"
);
}
);
width = 513;
}
);
note = E;
unicode = 0045;
},
{
glyphname = Eacute;
lastChange = "2017-06-04 12:09:41 +0000";
layers = (
{
layerId = "1178E776-45A7-4003-9263-224E9F7E8A45";
paths = (
{
closed = 1;
nodes = (
"407 707 OFFCURVE",
"372 685 OFFCURVE",
"345 669 CURVE",
"343 667 OFFCURVE",
"342 665 OFFCURVE",
"342 662 CURVE SMOOTH",
"342 659 OFFCURVE",
"343 658 OFFCURVE",
"346 658 CURVE",
"366 665 OFFCURVE",
"392 675 OFFCURVE",
"416 685 CURVE SMOOTH",
"439 695 OFFCURVE",
"461 706 OFFCURVE",
"474 715 CURVE",
"478 718 OFFCURVE",
"476 721 OFFCURVE",
"473 724 CURVE",
"461 729 OFFCURVE",
"439 738 OFFCURVE",
"432 734 CURVE"
);
},
{
closed = 1;
nodes = (
"288 583 OFFCURVE",
"328 623 OFFCURVE",
"408 623 CURVE SMOOTH",
"467 623 OFFCURVE",
"513 596 OFFCURVE",
"529 563 CURVE",
"537 544 OFFCURVE",
"533 527 OFFCURVE",
"525 512 CURVE",
"524 507 OFFCURVE",
"529 503 OFFCURVE",
"533 506 CURVE",
"537 511 OFFCURVE",
"545 527 OFFCURVE",
"553 543 CURVE",
"560 559 OFFCURVE",
"565 576 OFFCURVE",
"565 587 CURVE SMOOTH",
"565 600 OFFCURVE",
"550 615 OFFCURVE",
"526 626 CURVE SMOOTH",
"501 637 OFFCURVE",
"468 644 OFFCURVE",
"432 644 CURVE SMOOTH",
"367 644 OFFCURVE",
"316 628 OFFCURVE",
"281 604 CURVE SMOOTH",
"246 580 OFFCURVE",
"228 546 OFFCURVE",
"228 510 CURVE SMOOTH",
"228 463 OFFCURVE",
"261 426 OFFCURVE",
"312 405 CURVE",
"239 392 OFFCURVE",
"176 362 OFFCURVE",
"132 319 CURVE SMOOTH",
"87 276 OFFCURVE",
"60 222 OFFCURVE",
"60 158 CURVE SMOOTH",
"60 58 OFFCURVE",
"127 0 OFFCURVE",
"252 0 CURVE SMOOTH",
"291 0 OFFCURVE",
"324 3 OFFCURVE",
"353 10 CURVE SMOOTH",
"410 22 OFFCURVE",
"447 32 OFFCURVE",
"469 81 CURVE SMOOTH",
"480 106 OFFCURVE",
"489 137 OFFCURVE",
"497 174 CURVE",
"496 182 OFFCURVE",
"490 186 OFFCURVE",
"486 179 CURVE",
"455 66 OFFCURVE",
"386 18 OFFCURVE",
"277 18 CURVE SMOOTH",
"230 18 OFFCURVE",
"194 36 OFFCURVE",
"168 65 CURVE SMOOTH",
"142 94 OFFCURVE",
"127 135 OFFCURVE",
"127 182 CURVE SMOOTH",
"127 319 OFFCURVE",
"211 392 OFFCURVE",
"359 385 CURVE",
"362 386 OFFCURVE",
"365 388 OFFCURVE",
"370 391 CURVE",
"379 398 OFFCURVE",
"388 407 OFFCURVE",
"393 415 CURVE SMOOTH",
"395 418 OFFCURVE",
"395 421 OFFCURVE",
"393 422 CURVE",
"317 445 OFFCURVE",
"288 476 OFFCURVE",
"288 523 CURVE SMOOTH"
);
}
);
width = 513;
}
);
note = Eacute;
unicode = 00C9;
},
{
glyphname = Ecircumflex;
lastChange = "2017-06-04 12:09:41 +0000";
layers = (
{
layerId = "1178E776-45A7-4003-9263-224E9F7E8A45";
paths = (
{
closed = 1;
nodes = (
"370 721 OFFCURVE",
"328 692 OFFCURVE",
"305 679 CURVE",
"302 673 OFFCURVE",
"303 670 OFFCURVE",
"310 670 CURVE",
"319 674 OFFCURVE",
"335 683 OFFCURVE",
"349 692 CURVE",
"356 696 OFFCURVE",
"362 700 OFFCURVE",
"369 704 CURVE SMOOTH",
"376 708 OFFCURVE",
"381 712 OFFCURVE",
"385 715 CURVE",
"406 698 OFFCURVE",
"426 682 OFFCURVE",
"451 671 CURVE",
"459 670 OFFCURVE",
"466 671 OFFCURVE",
"473 674 CURVE",
"479 677 OFFCURVE",
"480 681 OFFCURVE",
"477 684 CURVE",
"450 696 OFFCURVE",
"420 722 OFFCURVE",
"403 745 CURVE",
"398 749 OFFCURVE",
"394 749 OFFCURVE",
"391 746 CURVE"
);
},
{
closed = 1;
nodes = (
"288 583 OFFCURVE",
"328 623 OFFCURVE",
"408 623 CURVE SMOOTH",
"467 623 OFFCURVE",
"513 596 OFFCURVE",
"529 563 CURVE",
"537 544 OFFCURVE",
"533 527 OFFCURVE",
"525 512 CURVE",
"524 507 OFFCURVE",
"529 503 OFFCURVE",
"533 506 CURVE",
"537 511 OFFCURVE",
"545 527 OFFCURVE",
"553 543 CURVE",
"560 559 OFFCURVE",
"565 576 OFFCURVE",
"565 587 CURVE SMOOTH",
"565 600 OFFCURVE",
"550 615 OFFCURVE",
"526 626 CURVE SMOOTH",
"501 637 OFFCURVE",
"468 644 OFFCURVE",
"432 644 CURVE SMOOTH",
"367 644 OFFCURVE",
"316 628 OFFCURVE",
"281 604 CURVE SMOOTH",
"246 580 OFFCURVE",
"228 546 OFFCURVE",
"228 510 CURVE SMOOTH",
"228 463 OFFCURVE",
"261 426 OFFCURVE",
"312 405 CURVE",
"239 392 OFFCURVE",
"176 362 OFFCURVE",
"132 319 CURVE SMOOTH",
"87 276 OFFCURVE",
"60 222 OFFCURVE",
"60 158 CURVE SMOOTH",
"60 58 OFFCURVE",
"127 0 OFFCURVE",
"252 0 CURVE SMOOTH",
"291 0 OFFCURVE",
"324 3 OFFCURVE",
"353 10 CURVE SMOOTH",
"410 22 OFFCURVE",
"447 32 OFFCURVE",
"469 81 CURVE SMOOTH",
"480 106 OFFCURVE",
"489 137 OFFCURVE",
"497 174 CURVE",
"496 182 OFFCURVE",
"490 186 OFFCURVE",
"486 179 CURVE",
"455 66 OFFCURVE",
"386 18 OFFCURVE",
"277 18 CURVE SMOOTH",
"230 18 OFFCURVE",
"194 36 OFFCURVE",
"168 65 CURVE SMOOTH",
"142 94 OFFCURVE",
"127 135 OFFCURVE",
"127 182 CURVE SMOOTH",
"127 319 OFFCURVE",
"211 392 OFFCURVE",
"359 385 CURVE",
"362 386 OFFCURVE",
"365 388 OFFCURVE",
"370 391 CURVE",
"379 398 OFFCURVE",
"388 407 OFFCURVE",
"393 415 CURVE SMOOTH",
"395 418 OFFCURVE",
"395 421 OFFCURVE",
"393 422 CURVE",
"317 445 OFFCURVE",
"288 476 OFFCURVE",
"288 523 CURVE SMOOTH"
);
}
);
width = 513;
}
);
note = Ecircumflex;
unicode = 00CA;
},
{
glyphname = Edieresis;
lastChange = "2017-06-04 12:09:41 +0000";
layers = (
{
layerId = "1178E776-45A7-4003-9263-224E9F7E8A45";
paths = (
{
closed = 1;
nodes = (
"380 667 OFFCURVE",
"395 689 OFFCURVE",
"395 708 CURVE SMOOTH",
"395 717 OFFCURVE",
"392 721 OFFCURVE",
"386 721 CURVE SMOOTH",
"365 721 OFFCURVE",
"350 697 OFFCURVE",
"350 684 CURVE SMOOTH",
"350 673 OFFCURVE",
"354 667 OFFCURVE",
"361 667 CURVE SMOOTH"
);
},
{
closed = 1;
nodes = (
"454 667 OFFCURVE",
"470 689 OFFCURVE",
"470 708 CURVE SMOOTH",
"470 717 OFFCURVE",
"467 721 OFFCURVE",
"461 721 CURVE SMOOTH",
"441 721 OFFCURVE",
"426 697 OFFCURVE",
"426 684 CURVE SMOOTH",
"426 673 OFFCURVE",
"430 667 OFFCURVE",
"438 667 CURVE SMOOTH"
);
},
{
closed = 1;
nodes = (
"288 583 OFFCURVE",
"328 623 OFFCURVE",
"408 623 CURVE SMOOTH",
"467 623 OFFCURVE",
"513 596 OFFCURVE",
"529 563 CURVE",
"537 544 OFFCURVE",
"533 527 OFFCURVE",
"525 512 CURVE",
"524 507 OFFCURVE",
"529 503 OFFCURVE",
"533 506 CURVE",
"537 511 OFFCURVE",
"545 527 OFFCURVE",
"553 543 CURVE",
"560 559 OFFCURVE",
"565 576 OFFCURVE",
"565 587 CURVE SMOOTH",
"565 600 OFFCURVE",
"550 615 OFFCURVE",
"526 626 CURVE SMOOTH",
"501 637 OFFCURVE",
"468 644 OFFCURVE",
"432 644 CURVE SMOOTH",
"367 644 OFFCURVE",
"316 628 OFFCURVE",
"281 604 CURVE SMOOTH",
"246 580 OFFCURVE",
"228 546 OFFCURVE",
"228 510 CURVE SMOOTH",
"228 463 OFFCURVE",
"261 426 OFFCURVE",
"312 405 CURVE",
"239 392 OFFCURVE",
"176 362 OFFCURVE",
"132 319 CURVE SMOOTH",
"87 276 OFFCURVE",
"60 222 OFFCURVE",
"60 158 CURVE SMOOTH",
"60 58 OFFCURVE",
"127 0 OFFCURVE",
"252 0 CURVE SMOOTH",
"291 0 OFFCURVE",
"324 3 OFFCURVE",
"353 10 CURVE SMOOTH",
"410 22 OFFCURVE",
"447 32 OFFCURVE",
"469 81 CURVE SMOOTH",
"480 106 OFFCURVE",
"489 137 OFFCURVE",
"497 174 CURVE",
"496 182 OFFCURVE",
"490 186 OFFCURVE",
"486 179 CURVE",
"455 66 OFFCURVE",
"386 18 OFFCURVE",
"277 18 CURVE SMOOTH",
"230 18 OFFCURVE",
"194 36 OFFCURVE",
"168 65 CURVE SMOOTH",
"142 94 OFFCURVE",
"127 135 OFFCURVE",
"127 182 CURVE SMOOTH",
"127 319 OFFCURVE",
"211 392 OFFCURVE",
"359 385 CURVE",
"362 386 OFFCURVE",
"365 388 OFFCURVE",
"370 391 CURVE",
"379 398 OFFCURVE",
"388 407 OFFCURVE",
"393 415 CURVE SMOOTH",
"395 418 OFFCURVE",
"395 421 OFFCURVE",
"393 422 CURVE",
"317 445 OFFCURVE",
"288 476 OFFCURVE",
"288 523 CURVE SMOOTH"
);
}
);
width = 513;
}
);
note = Edieresis;
unicode = 00CB;
},
{
glyphname = Egrave;
lastChange = "2017-06-04 12:09:41 +0000";
layers = (
{
layerId = "1178E776-45A7-4003-9263-224E9F7E8A45";
paths = (
{
closed = 1;
nodes = (
"433 689 OFFCURVE",
"401 712 OFFCURVE",
"378 731 CURVE",
"375 734 OFFCURVE",
"351 728 OFFCURVE",
"338 717 CURVE",
"337 716 OFFCURVE",
"336 714 OFFCURVE",
"336 713 CURVE SMOOTH",
"336 711 OFFCURVE",
"337 710 OFFCURVE",
"338 709 CURVE",
"353 701 OFFCURVE",
"375 691 OFFCURVE",
"398 682 CURVE SMOOTH",
"421 673 OFFCURVE",
"445 664 OFFCURVE",
"461 660 CURVE",
"468 660 OFFCURVE",
"472 666 OFFCURVE",
"469 669 CURVE"
);
},
{
closed = 1;
nodes = (
"288 583 OFFCURVE",
"328 623 OFFCURVE",
"408 623 CURVE SMOOTH",
"467 623 OFFCURVE",
"513 596 OFFCURVE",
"529 563 CURVE",
"537 544 OFFCURVE",
"533 527 OFFCURVE",
"525 512 CURVE",
"524 507 OFFCURVE",
"529 503 OFFCURVE",
"533 506 CURVE",
"537 511 OFFCURVE",
"545 527 OFFCURVE",
"553 543 CURVE",
"560 559 OFFCURVE",
"565 576 OFFCURVE",
"565 587 CURVE SMOOTH",
"565 600 OFFCURVE",
"550 615 OFFCURVE",
"526 626 CURVE SMOOTH",
"501 637 OFFCURVE",
"468 644 OFFCURVE",
"432 644 CURVE SMOOTH",
"367 644 OFFCURVE",
"316 628 OFFCURVE",
"281 604 CURVE SMOOTH",
"246 580 OFFCURVE",
"228 546 OFFCURVE",
"228 510 CURVE SMOOTH",
"228 463 OFFCURVE",
"261 426 OFFCURVE",
"312 405 CURVE",
"239 392 OFFCURVE",
"176 362 OFFCURVE",
"132 319 CURVE SMOOTH",
"87 276 OFFCURVE",
"60 222 OFFCURVE",
"60 158 CURVE SMOOTH",
"60 58 OFFCURVE",
"127 0 OFFCURVE",
"252 0 CURVE SMOOTH",
"291 0 OFFCURVE",
"324 3 OFFCURVE",
"353 10 CURVE SMOOTH",
"410 22 OFFCURVE",
"447 32 OFFCURVE",
"469 81 CURVE SMOOTH",
"480 106 OFFCURVE",
"489 137 OFFCURVE",
"497 174 CURVE",
"496 182 OFFCURVE",
"490 186 OFFCURVE",
"486 179 CURVE",
"455 66 OFFCURVE",
"386 18 OFFCURVE",
"277 18 CURVE SMOOTH",
"230 18 OFFCURVE",
"194 36 OFFCURVE",
"168 65 CURVE SMOOTH",
"142 94 OFFCURVE",
"127 135 OFFCURVE",
"127 182 CURVE SMOOTH",
"127 319 OFFCURVE",
"211 392 OFFCURVE",
"359 385 CURVE",
"362 386 OFFCURVE",
"365 388 OFFCURVE",
"370 391 CURVE",
"379 398 OFFCURVE",
"388 407 OFFCURVE",
"393 415 CURVE SMOOTH",
"395 418 OFFCURVE",
"395 421 OFFCURVE",
"393 422 CURVE",
"317 445 OFFCURVE",
"288 476 OFFCURVE",
"288 523 CURVE SMOOTH"
);
}
);
width = 513;
}
);
note = Egrave;
unicode = 00C8;
},
{
glyphname = F;
lastChange = "2017-06-04 12:09:41 +0000";
layers = (
{
layerId = "1178E776-45A7-4003-9263-224E9F7E8A45";
paths = (
{
closed = 1;
nodes = (
"822 613 OFFCURVE",
"793 616 OFFCURVE",
"766 620 CURVE SMOOTH",
"738 624 OFFCURVE",
"711 628 OFFCURVE",
"685 632 CURVE SMOOTH",
"633 639 OFFCURVE",
"583 645 OFFCURVE",
"534 645 CURVE SMOOTH",
"407 645 OFFCURVE",
"317 583 OFFCURVE",
"288 488 CURVE",
"288 481 OFFCURVE",
"293 478 OFFCURVE",
"297 482 CURVE",
"328 574 OFFCURVE",
"393 608 OFFCURVE",
"493 608 CURVE SMOOTH",
"553 608 OFFCURVE",
"619 598 OFFCURVE",
"691 587 CURVE",
"612 559 OFFCURVE",
"571 506 OFFCURVE",
"542 398 CURVE SMOOTH",
"535 374 OFFCURVE",
"529 351 OFFCURVE",
"522 330 CURVE",
"469 329 OFFCURVE",
"418 327 OFFCURVE",
"368 324 CURVE",
"365 323 OFFCURVE",
"360 322 OFFCURVE",
"354 320 CURVE",
"342 315 OFFCURVE",
"331 309 OFFCURVE",
"326 305 CURVE",
"323 302 OFFCURVE",
"323 301 OFFCURVE",
"325 300 CURVE",
"386 309 OFFCURVE",
"450 314 OFFCURVE",
"518 317 CURVE",
"482 202 OFFCURVE",
"449 132 OFFCURVE",
"409 90 CURVE SMOOTH",
"369 48 OFFCURVE",
"322 34 OFFCURVE",
"258 34 CURVE SMOOTH",
"202 34 OFFCURVE",
"162 47 OFFCURVE",
"137 69 CURVE SMOOTH",
"112 91 OFFCURVE",
"100 119 OFFCURVE",
"100 154 CURVE SMOOTH",
"100 193 OFFCURVE",
"111 211 OFFCURVE",
"135 230 CURVE",
"138 234 OFFCURVE",
"134 240 OFFCURVE",
"129 240 CURVE",
"78 217 OFFCURVE",
"50 175 OFFCURVE",
"50 128 CURVE SMOOTH",
"50 48 OFFCURVE",
"105 0 OFFCURVE",
"201 0 CURVE SMOOTH",
"373 0 OFFCURVE",
"495 99 OFFCURVE",
"575 319 CURVE",
"592 320 OFFCURVE",
"608 320 OFFCURVE",
"625 321 CURVE",
"642 321 OFFCURVE",
"659 321 OFFCURVE",
"676 322 CURVE",
"681 323 OFFCURVE",
"685 325 OFFCURVE",
"686 327 CURVE",
"687 328 OFFCURVE",
"685 330 OFFCURVE",
"682 331 CURVE",
"579 331 LINE",
"584 344 OFFCURVE",
"589 358 OFFCURVE",
"593 373 CURVE SMOOTH",
"597 388 OFFCURVE",
"601 403 OFFCURVE",
"606 418 CURVE",
"621 473 OFFCURVE",
"634 510 OFFCURVE",
"651 535 CURVE SMOOTH",
"667 560 OFFCURVE",
"687 575 OFFCURVE",
"715 583 CURVE",
"747 578 OFFCURVE",
"780 574 OFFCURVE",
"812 571 CURVE",
"821 571 OFFCURVE",
"835 579 OFFCURVE",
"844 588 CURVE SMOOTH",
"852 596 OFFCURVE",
"857 606 OFFCURVE",
"852 610 CURVE"
);
}
);
width = 645;
}
);
note = F;
unicode = 0046;
},
{
glyphname = G;
lastChange = "2017-06-04 12:09:41 +0000";
layers = (
{
layerId = "1178E776-45A7-4003-9263-224E9F7E8A45";
paths = (
{
closed = 1;
nodes = (
"647 605 OFFCURVE",
"680 577 OFFCURVE",
"680 540 CURVE SMOOTH",
"680 513 OFFCURVE",
"672 493 OFFCURVE",
"653 464 CURVE",
"652 459 OFFCURVE",
"659 454 OFFCURVE",
"663 457 CURVE",
"668 464 OFFCURVE",
"674 473 OFFCURVE",
"681 483 CURVE",
"688 492 OFFCURVE",
"696 502 OFFCURVE",
"703 513 CURVE",
"717 533 OFFCURVE",
"727 554 OFFCURVE",
"727 569 CURVE SMOOTH",
"727 612 OFFCURVE",
"685 643 OFFCURVE",
"621 643 CURVE SMOOTH",
"545 643 OFFCURVE",
"474 616 OFFCURVE",
"412 573 CURVE SMOOTH",
"350 530 OFFCURVE",
"296 472 OFFCURVE",
"259 409 CURVE SMOOTH",
"222 345 OFFCURVE",
"200 277 OFFCURVE",
"200 216 CURVE SMOOTH",
"200 127 OFFCURVE",
"249 82 OFFCURVE",
"348 82 CURVE SMOOTH",
"412 82 OFFCURVE",
"465 108 OFFCURVE",
"506 143 CURVE",
"470 28 OFFCURVE",
"428 -50 OFFCURVE",
"376 -98 CURVE SMOOTH",
"324 -147 OFFCURVE",
"263 -168 OFFCURVE",
"191 -168 CURVE SMOOTH",
"86 -168 OFFCURVE",
"25 -110 OFFCURVE",
"25 -10 CURVE SMOOTH",
"25 41 OFFCURVE",
"40 68 OFFCURVE",
"72 87 CURVE",
"77 92 OFFCURVE",
"76 103 OFFCURVE",
"69 100 CURVE",
"-3 73 OFFCURVE",
"-37 22 OFFCURVE",
"-37 -34 CURVE SMOOTH",
"-37 -127 OFFCURVE",
"33 -186 OFFCURVE",
"165 -186 CURVE SMOOTH",
"262 -186 OFFCURVE",
"350 -155 OFFCURVE",
"423 -86 CURVE SMOOTH",
"496 -18 OFFCURVE",
"555 89 OFFCURVE",
"598 240 CURVE",
"598 244 OFFCURVE",
"595 247 OFFCURVE",
"588 248 CURVE SMOOTH",
"581 249 OFFCURVE",
"574 248 OFFCURVE",
"566 247 CURVE",
"550 244 OFFCURVE",
"533 237 OFFCURVE",
"530 226 CURVE SMOOTH",
"507 146 OFFCURVE",
"447 101 OFFCURVE",
"368 101 CURVE SMOOTH",
"300 101 OFFCURVE",
"268 148 OFFCURVE",
"268 239 CURVE SMOOTH",
"268 342 OFFCURVE",
"300 433 OFFCURVE",
"354 499 CURVE SMOOTH",
"408 565 OFFCURVE",
"484 605 OFFCURVE",
"575 605 CURVE SMOOTH"
);
}
);
width = 610;
}
);
note = G;
unicode = 0047;
},
{
glyphname = H;
lastChange = "2017-06-04 12:09:41 +0000";
layers = (
{
layerId = "1178E776-45A7-4003-9263-224E9F7E8A45";
paths = (
{
closed = 1;
nodes = (
"1065 681 OFFCURVE",
"998 642 OFFCURVE",
"935 568 CURVE SMOOTH",
"872 494 OFFCURVE",
"812 385 OFFCURVE",
"767 249 CURVE",
"682 268 OFFCURVE",
"586 281 OFFCURVE",
"498 288 CURVE",
"510 319 OFFCURVE",
"520 352 OFFCURVE",
"529 387 CURVE SMOOTH",
"546 454 OFFCURVE",
"561 499 OFFCURVE",
"577 531 CURVE SMOOTH",
"593 563 OFFCURVE",
"610 580 OFFCURVE",
"637 591 CURVE SMOOTH",
"647 595 OFFCURVE",
"654 599 OFFCURVE",
"657 602 CURVE SMOOTH",
"660 605 OFFCURVE",
"660 609 OFFCURVE",
"657 613 CURVE",
"616 630 OFFCURVE",
"562 645 OFFCURVE",
"506 645 CURVE SMOOTH",
"427 645 OFFCURVE",
"371 622 OFFCURVE",
"337 585 CURVE SMOOTH",
"303 548 OFFCURVE",
"290 496 OFFCURVE",
"302 440 CURVE",
"306 435 OFFCURVE",
"311 436 OFFCURVE",
"312 443 CURVE",
"303 488 OFFCURVE",
"308 531 OFFCURVE",
"332 561 CURVE SMOOTH",
"356 591 OFFCURVE",
"397 609 OFFCURVE",
"460 609 CURVE SMOOTH",
"515 609 OFFCURVE",
"564 597 OFFCURVE",
"599 585 CURVE",
"574 572 OFFCURVE",
"550 552 OFFCURVE",
"527 516 CURVE SMOOTH",
"504 480 OFFCURVE",
"481 428 OFFCURVE",
"460 349 CURVE",
"453 328 OFFCURVE",
"448 310 OFFCURVE",
"443 291 CURVE",
"417 291 LINE SMOOTH",
"297 291 OFFCURVE",
"204 266 OFFCURVE",
"143 230 CURVE SMOOTH",
"82 193 OFFCURVE",
"50 143 OFFCURVE",
"50 92 CURVE SMOOTH",
"50 40 OFFCURVE",
"89 0 OFFCURVE",
"173 0 CURVE SMOOTH",
"302 0 OFFCURVE",
"415 78 OFFCURVE",
"490 267 CURVE",
"585 259 OFFCURVE",
"678 241 OFFCURVE",
"757 218 CURVE",
"746 189 OFFCURVE",
"739 159 OFFCURVE",
"731 127 CURVE SMOOTH",
"708 38 OFFCURVE",
"732 0 OFFCURVE",
"781 0 CURVE SMOOTH",
"800 0 OFFCURVE",
"822 13 OFFCURVE",
"842 31 CURVE SMOOTH",
"862 49 OFFCURVE",
"880 71 OFFCURVE",
"895 94 CURVE",
"896 101 OFFCURVE",
"891 104 OFFCURVE",
"887 100 CURVE",
"863 63 OFFCURVE",
"838 44 OFFCURVE",
"812 44 CURVE SMOOTH",
"783 44 OFFCURVE",
"778 83 OFFCURVE",
"799 161 CURVE SMOOTH",
"801 168 OFFCURVE",
"803 175 OFFCURVE",
"805 182 CURVE",
"806 188 OFFCURVE",
"808 195 OFFCURVE",
"810 202 CURVE",
"813 201 OFFCURVE",
"814 200 OFFCURVE",
"815 200 CURVE",
"822 199 OFFCURVE",
"829 200 OFFCURVE",
"836 202 CURVE SMOOTH",
"851 206 OFFCURVE",
"862 212 OFFCURVE",
"868 217 CURVE",
"871 220 OFFCURVE",
"871 222 OFFCURVE",
"870 223 CURVE",
"862 225 OFFCURVE",
"854 227 OFFCURVE",
"846 230 CURVE",
"838 232 OFFCURVE",
"829 234 OFFCURVE",
"820 237 CURVE",
"861 384 OFFCURVE",
"900 483 OFFCURVE",
"943 546 CURVE SMOOTH",
"986 609 OFFCURVE",
"1031 635 OFFCURVE",
"1090 635 CURVE SMOOTH",
"1146 635 OFFCURVE",
"1162 610 OFFCURVE",
"1151 579 CURVE",
"1152 575 OFFCURVE",
"1155 574 OFFCURVE",
"1159 575 CURVE",
"1166 590 OFFCURVE",
"1174 618 OFFCURVE",
"1174 637 CURVE SMOOTH",
"1174 666 OFFCURVE",
"1159 681 OFFCURVE",
"1129 681 CURVE SMOOTH"
);
},
{
closed = 1;
nodes = (
"137 24 OFFCURVE",
"100 55 OFFCURVE",
"100 112 CURVE SMOOTH",
"100 157 OFFCURVE",
"121 197 OFFCURVE",
"166 226 CURVE SMOOTH",
"210 254 OFFCURVE",
"281 272 OFFCURVE",
"381 272 CURVE SMOOTH",
"390 272 OFFCURVE",
"400 272 OFFCURVE",
"409 272 CURVE SMOOTH",
"418 272 OFFCURVE",
"428 272 OFFCURVE",
"437 271 CURVE",
"406 178 OFFCURVE",
"377 116 OFFCURVE",
"341 78 CURVE SMOOTH",
"304 40 OFFCURVE",
"260 24 OFFCURVE",
"201 24 CURVE SMOOTH"
);
}
);
width = 904;
}
);
note = H;
unicode = 0048;
},
{
glyphname = I;
lastChange = "2017-06-04 12:09:41 +0000";
layers = (
{
layerId = "1178E776-45A7-4003-9263-224E9F7E8A45";
paths = (
{
closed = 1;
nodes = (
"673 645 OFFCURVE",
"572 601 OFFCURVE",
"499 536 CURVE SMOOTH",
"426 471 OFFCURVE",
"378 386 OFFCURVE",
"378 303 CURVE SMOOTH",
"378 227 OFFCURVE",
"415 175 OFFCURVE",
"483 171 CURVE",
"420 68 OFFCURVE",
"338 29 OFFCURVE",
"234 29 CURVE SMOOTH",
"155 29 OFFCURVE",
"109 65 OFFCURVE",
"109 121 CURVE SMOOTH",
"109 158 OFFCURVE",
"129 184 OFFCURVE",
"170 197 CURVE",
"173 200 OFFCURVE",
"173 205 OFFCURVE",
"166 206 CURVE",
"86 186 OFFCURVE",
"50 140 OFFCURVE",
"50 93 CURVE SMOOTH",
"50 38 OFFCURVE",
"104 0 OFFCURVE",
"201 0 CURVE SMOOTH",
"328 0 OFFCURVE",
"439 61 OFFCURVE",
"523 174 CURVE",
"543 177 OFFCURVE",
"563 184 OFFCURVE",
"574 191 CURVE",
"577 195 OFFCURVE",
"575 199 OFFCURVE",
"571 198 CURVE",
"564 194 OFFCURVE",
"547 188 OFFCURVE",
"530 185 CURVE",
"574 248 OFFCURVE",
"608 324 OFFCURVE",
"631 414 CURVE SMOOTH",
"648 483 OFFCURVE",
"664 526 OFFCURVE",
"682 554 CURVE SMOOTH",
"700 582 OFFCURVE",
"720 596 OFFCURVE",
"749 604 CURVE",
"757 608 OFFCURVE",
"766 617 OFFCURVE",
"773 626 CURVE",
"780 634 OFFCURVE",
"782 642 OFFCURVE",
"777 645 CURVE"
);
},
{
closed = 1;
nodes = (
"546 305 OFFCURVE",
"519 234 OFFCURVE",
"488 181 CURVE",
"428 185 OFFCURVE",
"391 227 OFFCURVE",
"391 307 CURVE SMOOTH",
"391 370 OFFCURVE",
"423 437 OFFCURVE",
"479 491 CURVE SMOOTH",
"535 545 OFFCURVE",
"614 586 OFFCURVE",
"706 597 CURVE",
"670 577 OFFCURVE",
"643 556 OFFCURVE",
"622 525 CURVE SMOOTH",
"601 493 OFFCURVE",
"584 452 OFFCURVE",
"569 392 CURVE SMOOTH"
);
}
);
width = 593;
}
);
note = I;
unicode = 0049;
},
{
glyphname = Iacute;
lastChange = "2017-06-04 12:09:41 +0000";
layers = (
{
layerId = "1178E776-45A7-4003-9263-224E9F7E8A45";
paths = (
{
closed = 1;
nodes = (
"606 707 OFFCURVE",
"571 685 OFFCURVE",
"544 669 CURVE",
"542 667 OFFCURVE",
"541 665 OFFCURVE",
"541 662 CURVE SMOOTH",
"541 659 OFFCURVE",
"542 658 OFFCURVE",
"545 658 CURVE",
"565 665 OFFCURVE",
"591 675 OFFCURVE",
"615 685 CURVE SMOOTH",
"638 695 OFFCURVE",
"660 706 OFFCURVE",
"673 715 CURVE",
"677 718 OFFCURVE",
"675 721 OFFCURVE",
"672 724 CURVE",
"660 729 OFFCURVE",
"638 738 OFFCURVE",
"631 734 CURVE"
);
},
{
closed = 1;
nodes = (
"673 645 OFFCURVE",
"572 601 OFFCURVE",
"499 536 CURVE SMOOTH",
"426 471 OFFCURVE",
"378 386 OFFCURVE",
"378 303 CURVE SMOOTH",
"378 227 OFFCURVE",
"415 175 OFFCURVE",
"483 171 CURVE",
"420 68 OFFCURVE",
"338 29 OFFCURVE",
"234 29 CURVE SMOOTH",
"155 29 OFFCURVE",
"109 65 OFFCURVE",
"109 121 CURVE SMOOTH",
"109 158 OFFCURVE",
"129 184 OFFCURVE",
"170 197 CURVE",
"173 200 OFFCURVE",
"173 205 OFFCURVE",
"166 206 CURVE",
"86 186 OFFCURVE",
"50 140 OFFCURVE",
"50 93 CURVE SMOOTH",
"50 38 OFFCURVE",
"104 0 OFFCURVE",
"201 0 CURVE SMOOTH",
"328 0 OFFCURVE",
"439 61 OFFCURVE",
"523 174 CURVE",
"543 177 OFFCURVE",
"563 184 OFFCURVE",
"574 191 CURVE",
"577 195 OFFCURVE",
"575 199 OFFCURVE",
"571 198 CURVE",
"564 194 OFFCURVE",
"547 188 OFFCURVE",
"530 185 CURVE",
"574 248 OFFCURVE",
"608 324 OFFCURVE",
"631 414 CURVE SMOOTH",
"648 483 OFFCURVE",
"664 526 OFFCURVE",
"682 554 CURVE SMOOTH",
"700 582 OFFCURVE",
"720 596 OFFCURVE",
"749 604 CURVE",
"757 608 OFFCURVE",
"766 617 OFFCURVE",
"773 626 CURVE",
"780 634 OFFCURVE",
"782 642 OFFCURVE",
"777 645 CURVE"
);
},
{
closed = 1;
nodes = (
"546 305 OFFCURVE",
"519 234 OFFCURVE",
"488 181 CURVE",
"428 185 OFFCURVE",
"391 227 OFFCURVE",
"391 307 CURVE SMOOTH",
"391 370 OFFCURVE",
"423 437 OFFCURVE",
"479 491 CURVE SMOOTH",
"535 545 OFFCURVE",
"614 586 OFFCURVE",
"706 597 CURVE",
"670 577 OFFCURVE",
"643 556 OFFCURVE",
"622 525 CURVE SMOOTH",
"601 493 OFFCURVE",
"584 452 OFFCURVE",
"569 392 CURVE SMOOTH"
);
}
);
width = 593;
}
);
note = Iacute;
unicode = 00CD;
},
{
glyphname = Icircumflex;
lastChange = "2017-06-04 12:09:41 +0000";
layers = (
{
layerId = "1178E776-45A7-4003-9263-224E9F7E8A45";
paths = (
{
closed = 1;
nodes = (
"568 721 OFFCURVE",
"526 692 OFFCURVE",
"503 679 CURVE",
"500 673 OFFCURVE",
"501 670 OFFCURVE",
"508 670 CURVE",
"517 674 OFFCURVE",
"533 683 OFFCURVE",
"547 692 CURVE",
"554 696 OFFCURVE",
"560 700 OFFCURVE",
"567 704 CURVE SMOOTH",
"574 708 OFFCURVE",
"579 712 OFFCURVE",
"583 715 CURVE",
"604 698 OFFCURVE",
"624 682 OFFCURVE",
"649 671 CURVE",
"657 670 OFFCURVE",
"664 671 OFFCURVE",
"671 674 CURVE",
"677 677 OFFCURVE",
"678 681 OFFCURVE",
"675 684 CURVE",
"648 696 OFFCURVE",
"618 722 OFFCURVE",
"601 745 CURVE",
"596 749 OFFCURVE",
"592 749 OFFCURVE",
"589 746 CURVE"
);
},
{
closed = 1;
nodes = (
"673 645 OFFCURVE",
"572 601 OFFCURVE",
"499 536 CURVE SMOOTH",
"426 471 OFFCURVE",
"378 386 OFFCURVE",
"378 303 CURVE SMOOTH",
"378 227 OFFCURVE",
"415 175 OFFCURVE",
"483 171 CURVE",
"420 68 OFFCURVE",
"338 29 OFFCURVE",
"234 29 CURVE SMOOTH",
"155 29 OFFCURVE",
"109 65 OFFCURVE",
"109 121 CURVE SMOOTH",
"109 158 OFFCURVE",
"129 184 OFFCURVE",
"170 197 CURVE",
"173 200 OFFCURVE",
"173 205 OFFCURVE",
"166 206 CURVE",
"86 186 OFFCURVE",
"50 140 OFFCURVE",
"50 93 CURVE SMOOTH",
"50 38 OFFCURVE",
"104 0 OFFCURVE",
"201 0 CURVE SMOOTH",
"328 0 OFFCURVE",
"439 61 OFFCURVE",
"523 174 CURVE",
"543 177 OFFCURVE",
"563 184 OFFCURVE",
"574 191 CURVE",
"577 195 OFFCURVE",
"575 199 OFFCURVE",
"571 198 CURVE",
"564 194 OFFCURVE",
"547 188 OFFCURVE",
"530 185 CURVE",
"574 248 OFFCURVE",
"608 324 OFFCURVE",
"631 414 CURVE SMOOTH",
"648 483 OFFCURVE",
"664 526 OFFCURVE",
"682 554 CURVE SMOOTH",
"700 582 OFFCURVE",
"720 596 OFFCURVE",
"749 604 CURVE",
"757 608 OFFCURVE",
"766 617 OFFCURVE",
"773 626 CURVE",
"780 634 OFFCURVE",
"782 642 OFFCURVE",
"777 645 CURVE"
);
},
{
closed = 1;
nodes = (
"546 305 OFFCURVE",
"519 234 OFFCURVE",
"488 181 CURVE",
"428 185 OFFCURVE",
"391 227 OFFCURVE",
"391 307 CURVE SMOOTH",
"391 370 OFFCURVE",
"423 437 OFFCURVE",
"479 491 CURVE SMOOTH",
"535 545 OFFCURVE",
"614 586 OFFCURVE",
"706 597 CURVE",
"670 577 OFFCURVE",
"643 556 OFFCURVE",
"622 525 CURVE SMOOTH",
"601 493 OFFCURVE",
"584 452 OFFCURVE",
"569 392 CURVE SMOOTH"
);
}
);
width = 593;
}
);
note = Icircumflex;
unicode = 00CE;
},
{
glyphname = Idieresis;
lastChange = "2017-06-04 12:09:41 +0000";
layers = (
{
layerId = "1178E776-45A7-4003-9263-224E9F7E8A45";
paths = (
{
closed = 1;
nodes = (
"564 667 OFFCURVE",
"579 689 OFFCURVE",
"579 708 CURVE SMOOTH",
"579 717 OFFCURVE",
"576 721 OFFCURVE",
"570 721 CURVE SMOOTH",
"549 721 OFFCURVE",
"534 697 OFFCURVE",
"534 684 CURVE SMOOTH",
"534 673 OFFCURVE",
"538 667 OFFCURVE",
"545 667 CURVE SMOOTH"
);
},
{
closed = 1;
nodes = (
"638 667 OFFCURVE",
"654 689 OFFCURVE",
"654 708 CURVE SMOOTH",
"654 717 OFFCURVE",
"651 721 OFFCURVE",
"645 721 CURVE SMOOTH",
"625 721 OFFCURVE",
"610 697 OFFCURVE",
"610 684 CURVE SMOOTH",
"610 673 OFFCURVE",
"614 667 OFFCURVE",
"622 667 CURVE SMOOTH"
);
},
{
closed = 1;
nodes = (
"673 645 OFFCURVE",
"572 601 OFFCURVE",
"499 536 CURVE SMOOTH",
"426 471 OFFCURVE",
"378 386 OFFCURVE",
"378 303 CURVE SMOOTH",
"378 227 OFFCURVE",
"415 175 OFFCURVE",
"483 171 CURVE",
"420 68 OFFCURVE",
"338 29 OFFCURVE",
"234 29 CURVE SMOOTH",
"155 29 OFFCURVE",
"109 65 OFFCURVE",
"109 121 CURVE SMOOTH",
"109 158 OFFCURVE",
"129 184 OFFCURVE",
"170 197 CURVE",
"173 200 OFFCURVE",
"173 205 OFFCURVE",
"166 206 CURVE",
"86 186 OFFCURVE",
"50 140 OFFCURVE",
"50 93 CURVE SMOOTH",
"50 38 OFFCURVE",
"104 0 OFFCURVE",
"201 0 CURVE SMOOTH",
"328 0 OFFCURVE",
"439 61 OFFCURVE",
"523 174 CURVE",
"543 177 OFFCURVE",
"563 184 OFFCURVE",
"574 191 CURVE",
"577 195 OFFCURVE",
"575 199 OFFCURVE",
"571 198 CURVE",
"564 194 OFFCURVE",
"547 188 OFFCURVE",
"530 185 CURVE",
"574 248 OFFCURVE",
"608 324 OFFCURVE",
"631 414 CURVE SMOOTH",
"648 483 OFFCURVE",
"664 526 OFFCURVE",
"682 554 CURVE SMOOTH",
"700 582 OFFCURVE",
"720 596 OFFCURVE",
"749 604 CURVE",
"757 608 OFFCURVE",
"766 617 OFFCURVE",
"773 626 CURVE",
"780 634 OFFCURVE",
"782 642 OFFCURVE",
"777 645 CURVE"
);
},
{
closed = 1;
nodes = (
"546 305 OFFCURVE",
"519 234 OFFCURVE",
"488 181 CURVE",
"428 185 OFFCURVE",
"391 227 OFFCURVE",
"391 307 CURVE SMOOTH",
"391 370 OFFCURVE",
"423 437 OFFCURVE",
"479 491 CURVE SMOOTH",
"535 545 OFFCURVE",
"614 586 OFFCURVE",
"706 597 CURVE",
"670 577 OFFCURVE",
"643 556 OFFCURVE",
"622 525 CURVE SMOOTH",
"601 493 OFFCURVE",
"584 452 OFFCURVE",
"569 392 CURVE SMOOTH"
);
}
);
width = 593;
}
);
note = Idieresis;
unicode = 00CF;
},
{
glyphname = Igrave;
lastChange = "2017-06-04 12:09:41 +0000";
layers = (
{
layerId = "1178E776-45A7-4003-9263-224E9F7E8A45";
paths = (
{
closed = 1;
nodes = (
"579 689 OFFCURVE",
"547 712 OFFCURVE",
"524 731 CURVE",
"521 734 OFFCURVE",
"497 728 OFFCURVE",
"484 717 CURVE",
"483 716 OFFCURVE",
"482 714 OFFCURVE",
"482 713 CURVE SMOOTH",
"482 711 OFFCURVE",
"483 710 OFFCURVE",
"484 709 CURVE",
"499 701 OFFCURVE",
"521 691 OFFCURVE",
"544 682 CURVE SMOOTH",
"567 673 OFFCURVE",
"591 664 OFFCURVE",
"607 660 CURVE",
"614 660 OFFCURVE",
"618 666 OFFCURVE",
"615 669 CURVE"
);
},
{
closed = 1;
nodes = (
"673 645 OFFCURVE",
"572 601 OFFCURVE",
"499 536 CURVE SMOOTH",
"426 471 OFFCURVE",
"378 386 OFFCURVE",
"378 303 CURVE SMOOTH",
"378 227 OFFCURVE",
"415 175 OFFCURVE",
"483 171 CURVE",
"420 68 OFFCURVE",
"338 29 OFFCURVE",
"234 29 CURVE SMOOTH",
"155 29 OFFCURVE",
"109 65 OFFCURVE",
"109 121 CURVE SMOOTH",
"109 158 OFFCURVE",
"129 184 OFFCURVE",
"170 197 CURVE",
"173 200 OFFCURVE",
"173 205 OFFCURVE",
"166 206 CURVE",
"86 186 OFFCURVE",
"50 140 OFFCURVE",
"50 93 CURVE SMOOTH",
"50 38 OFFCURVE",
"104 0 OFFCURVE",
"201 0 CURVE SMOOTH",
"328 0 OFFCURVE",
"439 61 OFFCURVE",
"523 174 CURVE",
"543 177 OFFCURVE",
"563 184 OFFCURVE",
"574 191 CURVE",
"577 195 OFFCURVE",
"575 199 OFFCURVE",
"571 198 CURVE",
"564 194 OFFCURVE",
"547 188 OFFCURVE",
"530 185 CURVE",
"574 248 OFFCURVE",
"608 324 OFFCURVE",
"631 414 CURVE SMOOTH",
"648 483 OFFCURVE",
"664 526 OFFCURVE",
"682 554 CURVE SMOOTH",
"700 582 OFFCURVE",
"720 596 OFFCURVE",
"749 604 CURVE",
"757 608 OFFCURVE",
"766 617 OFFCURVE",
"773 626 CURVE",
"780 634 OFFCURVE",
"782 642 OFFCURVE",
"777 645 CURVE"
);
},
{
closed = 1;
nodes = (
"546 305 OFFCURVE",
"519 234 OFFCURVE",
"488 181 CURVE",
"428 185 OFFCURVE",
"391 227 OFFCURVE",
"391 307 CURVE SMOOTH",
"391 370 OFFCURVE",
"423 437 OFFCURVE",
"479 491 CURVE SMOOTH",
"535 545 OFFCURVE",
"614 586 OFFCURVE",
"706 597 CURVE",
"670 577 OFFCURVE",
"643 556 OFFCURVE",
"622 525 CURVE SMOOTH",
"601 493 OFFCURVE",
"584 452 OFFCURVE",
"569 392 CURVE SMOOTH"
);
}
);
width = 593;
}
);
note = Igrave;
unicode = 00CC;
},
{
glyphname = J;
lastChange = "2017-06-04 12:09:41 +0000";
layers = (
{
layerId = "1178E776-45A7-4003-9263-224E9F7E8A45";
paths = (
{
closed = 1;
nodes = (
"757 644 OFFCURVE",
"656 600 OFFCURVE",
"583 535 CURVE SMOOTH",
"510 470 OFFCURVE",
"462 385 OFFCURVE",
"462 302 CURVE SMOOTH",
"462 222 OFFCURVE",
"511 172 OFFCURVE",
"580 169 CURVE",
"529 52 OFFCURVE",
"471 -30 OFFCURVE",
"406 -82 CURVE SMOOTH",
"341 -134 OFFCURVE",
"268 -157 OFFCURVE",
"189 -157 CURVE SMOOTH",
"101 -157 OFFCURVE",
"55 -115 OFFCURVE",
"55 -34 CURVE SMOOTH",
"55 62 OFFCURVE",
"135 144 OFFCURVE",
"296 175 CURVE",
"299 176 OFFCURVE",
"301 178 OFFCURVE",
"301 181 CURVE SMOOTH",
"301 184 OFFCURVE",
"299 185 OFFCURVE",
"296 185 CURVE",
"196 168 OFFCURVE",
"122 128 OFFCURVE",
"73 83 CURVE SMOOTH",
"24 38 OFFCURVE",
"0 -16 OFFCURVE",
"0 -61 CURVE SMOOTH",
"0 -145 OFFCURVE",
"54 -185 OFFCURVE",
"155 -185 CURVE SMOOTH",
"243 -185 OFFCURVE",
"333 -157 OFFCURVE",
"414 -97 CURVE SMOOTH",
"495 -38 OFFCURVE",
"569 51 OFFCURVE",
"629 174 CURVE",
"646 178 OFFCURVE",
"661 183 OFFCURVE",
"670 190 CURVE",
"673 193 OFFCURVE",
"671 197 OFFCURVE",
"666 197 CURVE",
"661 193 OFFCURVE",
"649 189 OFFCURVE",
"634 185 CURVE",
"666 252 OFFCURVE",
"693 328 OFFCURVE",
"715 413 CURVE SMOOTH",
"732 482 OFFCURVE",
"749 526 OFFCURVE",
"767 554 CURVE SMOOTH",
"785 582 OFFCURVE",
"805 595 OFFCURVE",
"833 603 CURVE",
"837 606 OFFCURVE",
"848 614 OFFCURVE",
"856 623 CURVE SMOOTH",
"863 631 OFFCURVE",
"868 640 OFFCURVE",
"861 644 CURVE"
);
},
{
closed = 1;
nodes = (
"632 310 OFFCURVE",
"609 240 OFFCURVE",
"584 179 CURVE",
"516 183 OFFCURVE",
"475 229 OFFCURVE",
"475 306 CURVE SMOOTH",
"475 369 OFFCURVE",
"507 436 OFFCURVE",
"563 490 CURVE SMOOTH",
"619 544 OFFCURVE",
"698 585 OFFCURVE",
"790 596 CURVE",
"735 565 OFFCURVE",
"682 506 OFFCURVE",
"653 391 CURVE SMOOTH"
);
}
);
width = 674;
}
);
note = J;
unicode = 004A;
},
{
glyphname = K;
lastChange = "2017-06-04 12:09:41 +0000";
layers = (
{
layerId = "1178E776-45A7-4003-9263-224E9F7E8A45";
paths = (
{
closed = 1;
nodes = (
"586 428 OFFCURVE",
"598 485 OFFCURVE",
"614 522 CURVE SMOOTH",
"630 559 OFFCURVE",
"650 579 OFFCURVE",
"678 591 CURVE",
"689 595 OFFCURVE",
"695 599 OFFCURVE",
"698 602 CURVE SMOOTH",
"701 605 OFFCURVE",
"701 609 OFFCURVE",
"698 613 CURVE",
"657 630 OFFCURVE",
"603 645 OFFCURVE",
"548 645 CURVE SMOOTH",
"445 645 OFFCURVE",
"369 608 OFFCURVE",
"323 551 CURVE SMOOTH",
"277 494 OFFCURVE",
"259 415 OFFCURVE",
"278 332 CURVE",
"281 327 OFFCURVE",
"288 329 OFFCURVE",
"289 336 CURVE",
"273 413 OFFCURVE",
"286 481 OFFCURVE",
"323 530 CURVE SMOOTH",
"359 578 OFFCURVE",
"421 607 OFFCURVE",
"504 607 CURVE SMOOTH",
"560 607 OFFCURVE",
"607 597 OFFCURVE",
"642 584 CURVE",
"613 569 OFFCURVE",
"587 547 OFFCURVE",
"564 506 CURVE SMOOTH",
"541 465 OFFCURVE",
"521 405 OFFCURVE",
"505 313 CURVE SMOOTH",
"486 209 OFFCURVE",
"459 137 OFFCURVE",
"416 93 CURVE SMOOTH",
"373 48 OFFCURVE",
"314 28 OFFCURVE",
"234 28 CURVE SMOOTH",
"151 28 OFFCURVE",
"105 72 OFFCURVE",
"105 136 CURVE SMOOTH",
"105 179 OFFCURVE",
"125 213 OFFCURVE",
"160 232 CURVE",
"163 239 OFFCURVE",
"160 243 OFFCURVE",
"153 242 CURVE",
"89 221 OFFCURVE",
"50 170 OFFCURVE",
"50 115 CURVE SMOOTH",
"50 47 OFFCURVE",
"107 0 OFFCURVE",
"208 0 CURVE SMOOTH",
"297 0 OFFCURVE",
"378 30 OFFCURVE",
"442 89 CURVE SMOOTH",
"505 148 OFFCURVE",
"551 235 OFFCURVE",
"571 347 CURVE SMOOTH"
);
},
{
closed = 1;
nodes = (
"752 514 OFFCURVE",
"858 590 OFFCURVE",
"943 590 CURVE SMOOTH",
"987 590 OFFCURVE",
"1002 563 OFFCURVE",
"995 531 CURVE",
"996 526 OFFCURVE",
"1000 525 OFFCURVE",
"1005 528 CURVE",
"1012 547 OFFCURVE",
"1017 575 OFFCURVE",
"1017 594 CURVE SMOOTH",
"1017 622 OFFCURVE",
"1002 645 OFFCURVE",
"975 645 CURVE SMOOTH",
"924 645 OFFCURVE",
"864 613 OFFCURVE",
"800 562 CURVE SMOOTH",
"736 510 OFFCURVE",
"670 438 OFFCURVE",
"610 361 CURVE",
"603 354 OFFCURVE",
"604 349 OFFCURVE",
"605 342 CURVE",
"628 250 OFFCURVE",
"654 165 OFFCURVE",
"691 102 CURVE SMOOTH",
"727 39 OFFCURVE",
"773 0 OFFCURVE",
"834 0 CURVE SMOOTH",
"886 0 OFFCURVE",
"930 33 OFFCURVE",
"954 78 CURVE",
"957 85 OFFCURVE",
"950 91 OFFCURVE",
"946 87 CURVE",
"931 63 OFFCURVE",
"907 46 OFFCURVE",
"876 46 CURVE SMOOTH",
"819 46 OFFCURVE",
"778 78 OFFCURVE",
"743 138 CURVE SMOOTH",
"707 197 OFFCURVE",
"680 282 OFFCURVE",
"651 386 CURVE"
);
}
);
width = 970;
}
);
note = K;
unicode = 004B;
},
{
glyphname = L;
lastChange = "2017-06-04 12:09:41 +0000";
layers = (
{
layerId = "1178E776-45A7-4003-9263-224E9F7E8A45";
paths = (
{
closed = 1;
nodes = (
"609 645 OFFCURVE",
"548 610 OFFCURVE",
"496 547 CURVE SMOOTH",
"443 483 OFFCURVE",
"400 391 OFFCURVE",
"369 276 CURVE SMOOTH",
"348 195 OFFCURVE",
"327 140 OFFCURVE",
"304 103 CURVE",
"255 122 OFFCURVE",
"208 136 OFFCURVE",
"159 136 CURVE SMOOTH",
"120 136 OFFCURVE",
"89 122 OFFCURVE",
"66 105 CURVE SMOOTH",
"43 88 OFFCURVE",
"30 66 OFFCURVE",
"30 49 CURVE SMOOTH",
"30 21 OFFCURVE",
"57 0 OFFCURVE",
"110 0 CURVE SMOOTH",
"181 0 OFFCURVE",
"240 18 OFFCURVE",
"289 55 CURVE",
"350 28 OFFCURVE",
"412 0 OFFCURVE",
"491 0 CURVE SMOOTH",
"580 0 OFFCURVE",
"630 39 OFFCURVE",
"662 111 CURVE",
"663 119 OFFCURVE",
"657 123 OFFCURVE",
"652 119 CURVE",
"629 74 OFFCURVE",
"600 49 OFFCURVE",
"533 49 CURVE SMOOTH",
"453 49 OFFCURVE",
"389 70 OFFCURVE",
"329 93 CURVE",
"370 142 OFFCURVE",
"403 211 OFFCURVE",
"426 300 CURVE SMOOTH",
"454 412 OFFCURVE",
"479 485 OFFCURVE",
"510 530 CURVE SMOOTH",
"541 574 OFFCURVE",
"575 590 OFFCURVE",
"626 590 CURVE SMOOTH",
"663 590 OFFCURVE",
"688 576 OFFCURVE",
"700 556 CURVE SMOOTH",
"712 536 OFFCURVE",
"713 511 OFFCURVE",
"705 487 CURVE",
"704 480 OFFCURVE",
"712 477 OFFCURVE",
"717 481 CURVE",
"730 504 OFFCURVE",
"745 544 OFFCURVE",
"745 571 CURVE SMOOTH",
"745 612 OFFCURVE",
"717 645 OFFCURVE",
"676 645 CURVE SMOOTH"
);
},
{
closed = 1;
nodes = (
"100 26 OFFCURVE",
"69 45 OFFCURVE",
"69 72 CURVE SMOOTH",
"69 93 OFFCURVE",
"84 103 OFFCURVE",
"115 103 CURVE SMOOTH",
"172 103 OFFCURVE",
"222 84 OFFCURVE",
"271 63 CURVE",
"240 34 OFFCURVE",
"203 26 OFFCURVE",
"155 26 CURVE SMOOTH"
);
}
);
width = 675;
}
);
note = L;
unicode = 004C;
},
{
glyphname = M;
lastChange = "2017-06-04 12:09:41 +0000";
layers = (
{
layerId = "1178E776-45A7-4003-9263-224E9F7E8A45";
paths = (
{
closed = 1;
nodes = (
"1248 601 OFFCURVE",
"1145 514 OFFCURVE",
"1050 414 CURVE SMOOTH",
"955 314 OFFCURVE",
"869 200 OFFCURVE",
"808 89 CURVE",
"833 238 OFFCURVE",
"869 386 OFFCURVE",
"936 521 CURVE",
"951 548 OFFCURVE",
"961 565 OFFCURVE",
"980 576 CURVE",
"983 580 OFFCURVE",
"981 587 OFFCURVE",
"976 588 CURVE",
"972 587 OFFCURVE",
"969 586 OFFCURVE",
"966 585 CURVE",
"926 598 OFFCURVE",
"872 613 OFFCURVE",
"814 625 CURVE SMOOTH",
"756 637 OFFCURVE",
"693 645 OFFCURVE",
"640 645 CURVE SMOOTH",
"509 645 OFFCURVE",
"424 574 OFFCURVE",
"409 442 CURVE",
"410 435 OFFCURVE",
"416 433 OFFCURVE",
"419 440 CURVE",
"432 543 OFFCURVE",
"490 608 OFFCURVE",
"598 608 CURVE SMOOTH",
"693 608 OFFCURVE",
"799 583 OFFCURVE",
"892 551 CURVE",
"796 407 OFFCURVE",
"700 278 OFFCURVE",
"600 186 CURVE SMOOTH",
"499 93 OFFCURVE",
"394 36 OFFCURVE",
"278 36 CURVE SMOOTH",
"222 36 OFFCURVE",
"179 55 OFFCURVE",
"151 85 CURVE SMOOTH",
"123 115 OFFCURVE",
"108 155 OFFCURVE",
"108 199 CURVE SMOOTH",
"108 255 OFFCURVE",
"123 286 OFFCURVE",
"164 313 CURVE",
"167 317 OFFCURVE",
"164 325 OFFCURVE",
"159 322 CURVE",
"91 297 OFFCURVE",
"50 239 OFFCURVE",
"50 171 CURVE SMOOTH",
"50 68 OFFCURVE",
"120 0 OFFCURVE",
"245 0 CURVE SMOOTH",
"358 0 OFFCURVE",
"464 47 OFFCURVE",
"568 133 CURVE SMOOTH",
"671 219 OFFCURVE",
"771 346 OFFCURVE",
"878 506 CURVE",
"814 370 OFFCURVE",
"765 214 OFFCURVE",
"740 7 CURVE",
"739 2 OFFCURVE",
"741 0 OFFCURVE",
"746 0 CURVE SMOOTH",
"754 0 OFFCURVE",
"765 5 OFFCURVE",
"776 11 CURVE SMOOTH",
"787 17 OFFCURVE",
"795 25 OFFCURVE",
"798 30 CURVE",
"843 126 OFFCURVE",
"915 230 OFFCURVE",
"995 326 CURVE SMOOTH",
"1074 421 OFFCURVE",
"1162 508 OFFCURVE",
"1242 568 CURVE",
"1190 507 OFFCURVE",
"1149 427 OFFCURVE",
"1121 347 CURVE SMOOTH",
"1092 267 OFFCURVE",
"1077 188 OFFCURVE",
"1077 125 CURVE SMOOTH",
"1077 49 OFFCURVE",
"1101 0 OFFCURVE",
"1150 0 CURVE SMOOTH",
"1171 0 OFFCURVE",
"1195 13 OFFCURVE",
"1217 31 CURVE SMOOTH",
"1239 49 OFFCURVE",
"1257 71 OFFCURVE",
"1272 94 CURVE",
"1273 101 OFFCURVE",
"1267 104 OFFCURVE",
"1263 101 CURVE",
"1239 65 OFFCURVE",
"1215 44 OFFCURVE",
"1188 44 CURVE SMOOTH",
"1173 44 OFFCURVE",
"1161 54 OFFCURVE",
"1152 75 CURVE SMOOTH",
"1143 95 OFFCURVE",
"1139 123 OFFCURVE",
"1139 159 CURVE SMOOTH",
"1139 230 OFFCURVE",
"1157 317 OFFCURVE",
"1193 404 CURVE SMOOTH",
"1229 491 OFFCURVE",
"1282 575 OFFCURVE",
"1350 642 CURVE",
"1354 647 OFFCURVE",
"1351 657 OFFCURVE",
"1344 657 CURVE"
);
}
);
width = 1277;
}
);
note = M;
unicode = 004D;
},
{
glyphname = N;
lastChange = "2017-06-04 12:09:41 +0000";
layers = (
{
layerId = "1178E776-45A7-4003-9263-224E9F7E8A45";
paths = (
{
closed = 1;
nodes = (
"1176 644 OFFCURVE",
"1133 612 OFFCURVE",
"1093 561 CURVE SMOOTH",
"1052 509 OFFCURVE",
"1015 439 OFFCURVE",
"984 364 CURVE SMOOTH",
"953 288 OFFCURVE",
"932 207 OFFCURVE",
"921 134 CURVE",
"896 221 OFFCURVE",
"859 307 OFFCURVE",
"815 383 CURVE SMOOTH",
"770 459 OFFCURVE",
"717 525 OFFCURVE",
"658 572 CURVE",
"661 588 OFFCURVE",
"662 605 OFFCURVE",
"663 622 CURVE",
"662 625 OFFCURVE",
"661 625 OFFCURVE",
"659 624 CURVE",
"656 622 OFFCURVE",
"654 619 OFFCURVE",
"651 615 CURVE SMOOTH",
"645 607 OFFCURVE",
"639 596 OFFCURVE",
"636 588 CURVE",
"585 624 OFFCURVE",
"531 644 OFFCURVE",
"475 644 CURVE SMOOTH",
"435 644 OFFCURVE",
"398 630 OFFCURVE",
"368 610 CURVE SMOOTH",
"338 589 OFFCURVE",
"314 561 OFFCURVE",
"302 536 CURVE",
"303 529 OFFCURVE",
"309 528 OFFCURVE",
"313 532 CURVE",
"332 567 OFFCURVE",
"374 602 OFFCURVE",
"438 602 CURVE SMOOTH",
"506 602 OFFCURVE",
"568 575 OFFCURVE",
"628 527 CURVE",
"581 210 OFFCURVE",
"447 52 OFFCURVE",
"255 52 CURVE SMOOTH",
"143 52 OFFCURVE",
"87 107 OFFCURVE",
"87 191 CURVE SMOOTH",
"87 224 OFFCURVE",
"102 255 OFFCURVE",
"126 279 CURVE",
"129 286 OFFCURVE",
"126 293 OFFCURVE",
"119 290 CURVE",
"70 258 OFFCURVE",
"43 202 OFFCURVE",
"43 149 CURVE SMOOTH",
"43 106 OFFCURVE",
"58 70 OFFCURVE",
"89 43 CURVE SMOOTH",
"120 16 OFFCURVE",
"166 0 OFFCURVE",
"229 0 CURVE SMOOTH",
"328 0 OFFCURVE",
"418 46 OFFCURVE",
"491 132 CURVE SMOOTH",
"563 218 OFFCURVE",
"619 345 OFFCURVE",
"648 509 CURVE",
"756 409 OFFCURVE",
"842 235 OFFCURVE",
"902 15 CURVE",
"905 7 OFFCURVE",
"906 0 OFFCURVE",
"913 0 CURVE SMOOTH",
"916 0 OFFCURVE",
"919 1 OFFCURVE",
"920 4 CURVE",
"921 6 OFFCURVE",
"922 11 OFFCURVE",
"922 18 CURVE",
"925 101 OFFCURVE",
"943 192 OFFCURVE",
"972 276 CURVE SMOOTH",
"1000 360 OFFCURVE",
"1038 438 OFFCURVE",
"1080 494 CURVE SMOOTH",
"1122 550 OFFCURVE",
"1166 586 OFFCURVE",
"1209 586 CURVE SMOOTH",
"1249 586 OFFCURVE",
"1264 561 OFFCURVE",
"1267 540 CURVE",
"1270 532 OFFCURVE",
"1279 534 OFFCURVE",
"1280 542 CURVE",
"1280 610 OFFCURVE",
"1262 644 OFFCURVE",
"1219 644 CURVE SMOOTH"
);
}
);
width = 993;
}
);
note = N;
unicode = 004E;
},
{
glyphname = Ntilde;
lastChange = "2017-06-04 12:09:41 +0000";
layers = (
{
layerId = "1178E776-45A7-4003-9263-224E9F7E8A45";
paths = (
{
closed = 1;
nodes = (
"770 669 OFFCURVE",
"775 664 OFFCURVE",
"780 667 CURVE",
"795 686 OFFCURVE",
"809 698 OFFCURVE",
"826 698 CURVE SMOOTH",
"839 698 OFFCURVE",
"853 690 OFFCURVE",
"867 682 CURVE",
"881 673 OFFCURVE",
"895 665 OFFCURVE",
"914 665 CURVE SMOOTH",
"954 665 OFFCURVE",
"974 688 OFFCURVE",
"990 724 CURVE",
"991 728 OFFCURVE",
"985 731 OFFCURVE",
"982 728 CURVE",
"969 700 OFFCURVE",
"955 684 OFFCURVE",
"931 684 CURVE SMOOTH",
"910 684 OFFCURVE",
"894 693 OFFCURVE",
"880 702 CURVE",
"866 710 OFFCURVE",
"854 719 OFFCURVE",
"838 719 CURVE SMOOTH",
"815 719 OFFCURVE",
"788 694 OFFCURVE",
"773 673 CURVE SMOOTH"
);
},
{
closed = 1;
nodes = (
"1176 644 OFFCURVE",
"1133 612 OFFCURVE",
"1093 561 CURVE SMOOTH",
"1052 509 OFFCURVE",
"1015 439 OFFCURVE",
"984 364 CURVE SMOOTH",
"953 288 OFFCURVE",
"932 207 OFFCURVE",
"921 134 CURVE",
"896 221 OFFCURVE",
"859 307 OFFCURVE",
"815 383 CURVE SMOOTH",
"770 459 OFFCURVE",
"717 525 OFFCURVE",
"658 572 CURVE",
"661 588 OFFCURVE",
"662 605 OFFCURVE",
"663 622 CURVE",
"662 625 OFFCURVE",
"661 625 OFFCURVE",
"659 624 CURVE",
"656 622 OFFCURVE",
"654 619 OFFCURVE",
"651 615 CURVE SMOOTH",
"645 607 OFFCURVE",
"639 596 OFFCURVE",
"636 588 CURVE",
"585 624 OFFCURVE",
"531 644 OFFCURVE",
"475 644 CURVE SMOOTH",
"435 644 OFFCURVE",
"398 630 OFFCURVE",
"368 610 CURVE SMOOTH",
"338 589 OFFCURVE",
"314 561 OFFCURVE",
"302 536 CURVE",
"303 529 OFFCURVE",
"309 528 OFFCURVE",
"313 532 CURVE",
"332 567 OFFCURVE",
"374 602 OFFCURVE",
"438 602 CURVE SMOOTH",
"506 602 OFFCURVE",
"568 575 OFFCURVE",
"628 527 CURVE",
"581 210 OFFCURVE",
"447 52 OFFCURVE",
"255 52 CURVE SMOOTH",
"143 52 OFFCURVE",
"87 107 OFFCURVE",
"87 191 CURVE SMOOTH",
"87 224 OFFCURVE",
"102 255 OFFCURVE",
"126 279 CURVE",
"129 286 OFFCURVE",
"126 293 OFFCURVE",
"119 290 CURVE",
"70 258 OFFCURVE",
"43 202 OFFCURVE",
"43 149 CURVE SMOOTH",
"43 106 OFFCURVE",
"58 70 OFFCURVE",
"89 43 CURVE SMOOTH",
"120 16 OFFCURVE",
"166 0 OFFCURVE",
"229 0 CURVE SMOOTH",
"328 0 OFFCURVE",
"418 46 OFFCURVE",
"491 132 CURVE SMOOTH",
"563 218 OFFCURVE",
"619 345 OFFCURVE",
"648 509 CURVE",
"756 409 OFFCURVE",
"842 235 OFFCURVE",
"902 15 CURVE",
"905 7 OFFCURVE",
"906 0 OFFCURVE",
"913 0 CURVE SMOOTH",
"916 0 OFFCURVE",
"919 1 OFFCURVE",
"920 4 CURVE",
"921 6 OFFCURVE",
"922 11 OFFCURVE",
"922 18 CURVE",
"925 101 OFFCURVE",
"943 192 OFFCURVE",
"972 276 CURVE SMOOTH",
"1000 360 OFFCURVE",
"1038 438 OFFCURVE",
"1080 494 CURVE SMOOTH",
"1122 550 OFFCURVE",
"1166 586 OFFCURVE",
"1209 586 CURVE SMOOTH",
"1249 586 OFFCURVE",
"1264 561 OFFCURVE",
"1267 540 CURVE",
"1270 532 OFFCURVE",
"1279 534 OFFCURVE",
"1280 542 CURVE",
"1280 610 OFFCURVE",
"1262 644 OFFCURVE",
"1219 644 CURVE SMOOTH"
);
}
);
width = 993;
}
);
note = Ntilde;
unicode = 00D1;
},
{
glyphname = O;
lastChange = "2017-06-04 12:09:41 +0000";
layers = (
{
layerId = "1178E776-45A7-4003-9263-224E9F7E8A45";
paths = (
{
closed = 1;
nodes = (
"361 644 OFFCURVE",
"262 593 OFFCURVE",
"190 515 CURVE SMOOTH",
"117 437 OFFCURVE",
"70 333 OFFCURVE",
"70 232 CURVE SMOOTH",
"70 165 OFFCURVE",
"91 109 OFFCURVE",
"131 67 CURVE SMOOTH",
"171 25 OFFCURVE",
"229 0 OFFCURVE",
"305 0 CURVE SMOOTH",
"404 0 OFFCURVE",
"500 47 OFFCURVE",
"572 122 CURVE SMOOTH",
"644 197 OFFCURVE",
"691 298 OFFCURVE",
"691 406 CURVE SMOOTH",
"691 475 OFFCURVE",
"671 536 OFFCURVE",
"632 578 CURVE SMOOTH",
"593 620 OFFCURVE",
"538 644 OFFCURVE",
"466 644 CURVE SMOOTH"
);
},
{
closed = 1;
nodes = (
"287 36 OFFCURVE",
"230 59 OFFCURVE",
"191 99 CURVE SMOOTH",
"152 139 OFFCURVE",
"132 196 OFFCURVE",
"132 265 CURVE SMOOTH",
"132 361 OFFCURVE",
"161 446 OFFCURVE",
"211 507 CURVE SMOOTH",
"261 568 OFFCURVE",
"333 606 OFFCURVE",
"422 606 CURVE SMOOTH",
"494 606 OFFCURVE",
"545 580 OFFCURVE",
"580 539 CURVE SMOOTH",
"615 498 OFFCURVE",
"631 440 OFFCURVE",
"631 376 CURVE SMOOTH",
"631 273 OFFCURVE",
"598 189 OFFCURVE",
"547 130 CURVE SMOOTH",
"496 70 OFFCURVE",
"429 36 OFFCURVE",
"360 36 CURVE SMOOTH"
);
}
);
width = 646;
}
);
note = O;
unicode = 004F;
},
{
glyphname = Oacute;
lastChange = "2017-06-04 12:09:41 +0000";
layers = (
{
layerId = "1178E776-45A7-4003-9263-224E9F7E8A45";
paths = (
{
closed = 1;
nodes = (
"443 707 OFFCURVE",
"408 685 OFFCURVE",
"381 669 CURVE",
"379 667 OFFCURVE",
"378 665 OFFCURVE",
"378 662 CURVE SMOOTH",
"378 659 OFFCURVE",
"379 658 OFFCURVE",
"382 658 CURVE",
"402 665 OFFCURVE",
"428 675 OFFCURVE",
"452 685 CURVE SMOOTH",
"475 695 OFFCURVE",
"497 706 OFFCURVE",
"510 715 CURVE",
"514 718 OFFCURVE",
"512 721 OFFCURVE",
"509 724 CURVE",
"497 729 OFFCURVE",
"475 738 OFFCURVE",
"468 734 CURVE"
);
},
{
closed = 1;
nodes = (
"361 644 OFFCURVE",
"262 593 OFFCURVE",
"190 515 CURVE SMOOTH",
"117 437 OFFCURVE",
"70 333 OFFCURVE",
"70 232 CURVE SMOOTH",
"70 165 OFFCURVE",
"91 109 OFFCURVE",
"131 67 CURVE SMOOTH",
"171 25 OFFCURVE",
"229 0 OFFCURVE",
"305 0 CURVE SMOOTH",
"404 0 OFFCURVE",
"500 47 OFFCURVE",
"572 122 CURVE SMOOTH",
"644 197 OFFCURVE",
"691 298 OFFCURVE",
"691 406 CURVE SMOOTH",
"691 475 OFFCURVE",
"671 536 OFFCURVE",
"632 578 CURVE SMOOTH",
"593 620 OFFCURVE",
"538 644 OFFCURVE",
"466 644 CURVE SMOOTH"
);
},
{
closed = 1;
nodes = (
"287 36 OFFCURVE",
"230 59 OFFCURVE",
"191 99 CURVE SMOOTH",
"152 139 OFFCURVE",
"132 196 OFFCURVE",
"132 265 CURVE SMOOTH",
"132 361 OFFCURVE",
"161 446 OFFCURVE",
"211 507 CURVE SMOOTH",
"261 568 OFFCURVE",
"333 606 OFFCURVE",
"422 606 CURVE SMOOTH",
"494 606 OFFCURVE",
"545 580 OFFCURVE",
"580 539 CURVE SMOOTH",
"615 498 OFFCURVE",
"631 440 OFFCURVE",
"631 376 CURVE SMOOTH",
"631 273 OFFCURVE",
"598 189 OFFCURVE",
"547 130 CURVE SMOOTH",
"496 70 OFFCURVE",
"429 36 OFFCURVE",
"360 36 CURVE SMOOTH"
);
}
);
width = 646;
}
);
note = Oacute;
unicode = 00D3;
},
{
glyphname = Ocircumflex;
lastChange = "2017-06-04 12:09:41 +0000";
layers = (
{
layerId = "1178E776-45A7-4003-9263-224E9F7E8A45";
paths = (
{
closed = 1;
nodes = (
"429 721 OFFCURVE",
"387 692 OFFCURVE",
"364 679 CURVE",
"361 673 OFFCURVE",
"362 670 OFFCURVE",
"369 670 CURVE",
"378 674 OFFCURVE",
"394 683 OFFCURVE",
"408 692 CURVE",
"415 696 OFFCURVE",
"421 700 OFFCURVE",
"428 704 CURVE SMOOTH",
"435 708 OFFCURVE",
"440 712 OFFCURVE",
"444 715 CURVE",
"465 698 OFFCURVE",
"485 682 OFFCURVE",
"510 671 CURVE",
"518 670 OFFCURVE",
"525 671 OFFCURVE",
"532 674 CURVE",
"538 677 OFFCURVE",
"539 681 OFFCURVE",
"536 684 CURVE",
"509 696 OFFCURVE",
"479 722 OFFCURVE",
"462 745 CURVE",
"457 749 OFFCURVE",
"453 749 OFFCURVE",
"450 746 CURVE"
);
},
{
closed = 1;
nodes = (
"361 644 OFFCURVE",
"262 593 OFFCURVE",
"190 515 CURVE SMOOTH",
"117 437 OFFCURVE",
"70 333 OFFCURVE",
"70 232 CURVE SMOOTH",
"70 165 OFFCURVE",
"91 109 OFFCURVE",
"131 67 CURVE SMOOTH",
"171 25 OFFCURVE",
"229 0 OFFCURVE",
"305 0 CURVE SMOOTH",
"404 0 OFFCURVE",
"500 47 OFFCURVE",
"572 122 CURVE SMOOTH",
"644 197 OFFCURVE",
"691 298 OFFCURVE",
"691 406 CURVE SMOOTH",
"691 475 OFFCURVE",
"671 536 OFFCURVE",
"632 578 CURVE SMOOTH",
"593 620 OFFCURVE",
"538 644 OFFCURVE",
"466 644 CURVE SMOOTH"
);
},
{
closed = 1;
nodes = (
"287 36 OFFCURVE",
"230 59 OFFCURVE",
"191 99 CURVE SMOOTH",
"152 139 OFFCURVE",
"132 196 OFFCURVE",
"132 265 CURVE SMOOTH",
"132 361 OFFCURVE",
"161 446 OFFCURVE",
"211 507 CURVE SMOOTH",
"261 568 OFFCURVE",
"333 606 OFFCURVE",
"422 606 CURVE SMOOTH",
"494 606 OFFCURVE",
"545 580 OFFCURVE",
"580 539 CURVE SMOOTH",
"615 498 OFFCURVE",
"631 440 OFFCURVE",
"631 376 CURVE SMOOTH",
"631 273 OFFCURVE",
"598 189 OFFCURVE",
"547 130 CURVE SMOOTH",
"496 70 OFFCURVE",
"429 36 OFFCURVE",
"360 36 CURVE SMOOTH"
);
}
);
width = 646;
}
);
note = Ocircumflex;
unicode = 00D4;
},
{
glyphname = Odieresis;
lastChange = "2017-06-04 12:09:41 +0000";
layers = (
{
layerId = "1178E776-45A7-4003-9263-224E9F7E8A45";
paths = (
{
closed = 1;
nodes = (
"425 667 OFFCURVE",
"440 689 OFFCURVE",
"440 708 CURVE SMOOTH",
"440 717 OFFCURVE",
"437 721 OFFCURVE",
"431 721 CURVE SMOOTH",
"410 721 OFFCURVE",
"395 697 OFFCURVE",
"395 684 CURVE SMOOTH",
"395 673 OFFCURVE",
"399 667 OFFCURVE",
"406 667 CURVE SMOOTH"
);
},
{
closed = 1;
nodes = (
"499 667 OFFCURVE",
"515 689 OFFCURVE",
"515 708 CURVE SMOOTH",
"515 717 OFFCURVE",
"512 721 OFFCURVE",
"506 721 CURVE SMOOTH",
"486 721 OFFCURVE",
"471 697 OFFCURVE",
"471 684 CURVE SMOOTH",
"471 673 OFFCURVE",
"475 667 OFFCURVE",
"483 667 CURVE SMOOTH"
);
},
{
closed = 1;
nodes = (
"361 644 OFFCURVE",
"262 593 OFFCURVE",
"190 515 CURVE SMOOTH",
"117 437 OFFCURVE",
"70 333 OFFCURVE",
"70 232 CURVE SMOOTH",
"70 165 OFFCURVE",
"91 109 OFFCURVE",
"131 67 CURVE SMOOTH",
"171 25 OFFCURVE",
"229 0 OFFCURVE",
"305 0 CURVE SMOOTH",
"404 0 OFFCURVE",
"500 47 OFFCURVE",
"572 122 CURVE SMOOTH",
"644 197 OFFCURVE",
"691 298 OFFCURVE",
"691 406 CURVE SMOOTH",
"691 475 OFFCURVE",
"671 536 OFFCURVE",
"632 578 CURVE SMOOTH",
"593 620 OFFCURVE",
"538 644 OFFCURVE",
"466 644 CURVE SMOOTH"
);
},
{
closed = 1;
nodes = (
"287 36 OFFCURVE",
"230 59 OFFCURVE",
"191 99 CURVE SMOOTH",
"152 139 OFFCURVE",
"132 196 OFFCURVE",
"132 265 CURVE SMOOTH",
"132 361 OFFCURVE",
"161 446 OFFCURVE",
"211 507 CURVE SMOOTH",
"261 568 OFFCURVE",
"333 606 OFFCURVE",
"422 606 CURVE SMOOTH",
"494 606 OFFCURVE",
"545 580 OFFCURVE",
"580 539 CURVE SMOOTH",
"615 498 OFFCURVE",
"631 440 OFFCURVE",
"631 376 CURVE SMOOTH",
"631 273 OFFCURVE",
"598 189 OFFCURVE",
"547 130 CURVE SMOOTH",
"496 70 OFFCURVE",
"429 36 OFFCURVE",
"360 36 CURVE SMOOTH"
);
}
);
width = 646;
}
);
note = Odieresis;
unicode = 00D6;
},
{
glyphname = Ograve;
lastChange = "2017-06-04 12:09:41 +0000";
layers = (
{
layerId = "1178E776-45A7-4003-9263-224E9F7E8A45";
paths = (
{
closed = 1;
nodes = (
"458 689 OFFCURVE",
"426 712 OFFCURVE",
"403 731 CURVE",
"400 734 OFFCURVE",
"376 728 OFFCURVE",
"363 717 CURVE",
"362 716 OFFCURVE",
"361 714 OFFCURVE",
"361 713 CURVE SMOOTH",
"361 711 OFFCURVE",
"362 710 OFFCURVE",
"363 709 CURVE",
"378 701 OFFCURVE",
"400 691 OFFCURVE",
"423 682 CURVE SMOOTH",
"446 673 OFFCURVE",
"470 664 OFFCURVE",
"486 660 CURVE",
"493 660 OFFCURVE",
"497 666 OFFCURVE",
"494 669 CURVE"
);
},
{
closed = 1;
nodes = (
"361 644 OFFCURVE",
"262 593 OFFCURVE",
"190 515 CURVE SMOOTH",
"117 437 OFFCURVE",
"70 333 OFFCURVE",
"70 232 CURVE SMOOTH",
"70 165 OFFCURVE",
"91 109 OFFCURVE",
"131 67 CURVE SMOOTH",
"171 25 OFFCURVE",
"229 0 OFFCURVE",
"305 0 CURVE SMOOTH",
"404 0 OFFCURVE",
"500 47 OFFCURVE",
"572 122 CURVE SMOOTH",
"644 197 OFFCURVE",
"691 298 OFFCURVE",
"691 406 CURVE SMOOTH",
"691 475 OFFCURVE",
"671 536 OFFCURVE",
"632 578 CURVE SMOOTH",
"593 620 OFFCURVE",
"538 644 OFFCURVE",
"466 644 CURVE SMOOTH"
);
},
{
closed = 1;
nodes = (
"287 36 OFFCURVE",
"230 59 OFFCURVE",
"191 99 CURVE SMOOTH",
"152 139 OFFCURVE",
"132 196 OFFCURVE",
"132 265 CURVE SMOOTH",
"132 361 OFFCURVE",
"161 446 OFFCURVE",
"211 507 CURVE SMOOTH",
"261 568 OFFCURVE",
"333 606 OFFCURVE",
"422 606 CURVE SMOOTH",
"494 606 OFFCURVE",
"545 580 OFFCURVE",
"580 539 CURVE SMOOTH",
"615 498 OFFCURVE",
"631 440 OFFCURVE",
"631 376 CURVE SMOOTH",
"631 273 OFFCURVE",
"598 189 OFFCURVE",
"547 130 CURVE SMOOTH",
"496 70 OFFCURVE",
"429 36 OFFCURVE",
"360 36 CURVE SMOOTH"
);
}
);
width = 646;
}
);
note = Ograve;
unicode = 00D2;
},
{
glyphname = Oslash;
lastChange = "2017-06-04 12:09:41 +0000";
layers = (
{
layerId = "1178E776-45A7-4003-9263-224E9F7E8A45";
paths = (
{
closed = 1;
nodes = (
"593 629 OFFCURVE",
"602 641 OFFCURVE",
"610 652 CURVE",
"614 660 OFFCURVE",
"598 664 OFFCURVE",
"590 657 CURVE",
"583 647 OFFCURVE",
"575 636 OFFCURVE",
"566 624 CURVE",
"536 637 OFFCURVE",
"503 644 OFFCURVE",
"466 644 CURVE SMOOTH",
"395 644 OFFCURVE",
"329 621 OFFCURVE",
"270 583 CURVE SMOOTH",
"211 545 OFFCURVE",
"161 490 OFFCURVE",
"126 430 CURVE SMOOTH",
"90 369 OFFCURVE",
"70 300 OFFCURVE",
"70 232 CURVE SMOOTH",
"70 156 OFFCURVE",
"97 93 OFFCURVE",
"148 50 CURVE",
"139 38 OFFCURVE",
"131 27 OFFCURVE",
"124 16 CURVE SMOOTH",
"117 5 OFFCURVE",
"110 -4 OFFCURVE",
"104 -13 CURVE",
"101 -20 OFFCURVE",
"117 -24 OFFCURVE",
"124 -16 CURVE",
"129 -9 OFFCURVE",
"135 0 OFFCURVE",
"142 9 CURVE",
"148 18 OFFCURVE",
"155 28 OFFCURVE",
"163 39 CURVE",
"200 14 OFFCURVE",
"246 0 OFFCURVE",
"305 0 CURVE SMOOTH",
"404 0 OFFCURVE",
"500 47 OFFCURVE",
"572 122 CURVE SMOOTH",
"643 197 OFFCURVE",
"690 298 OFFCURVE",
"690 406 CURVE SMOOTH",
"690 502 OFFCURVE",
"652 577 OFFCURVE",
"583 616 CURVE"
);
},
{
closed = 1;
nodes = (
"132 360 OFFCURVE",
"160 445 OFFCURVE",
"210 506 CURVE SMOOTH",
"260 567 OFFCURVE",
"333 605 OFFCURVE",
"422 605 CURVE SMOOTH",
"465 605 OFFCURVE",
"501 596 OFFCURVE",
"532 579 CURVE",
"483 512 OFFCURVE",
"421 429 OFFCURVE",
"360 344 CURVE SMOOTH",
"329 301 OFFCURVE",
"299 259 OFFCURVE",
"269 218 CURVE SMOOTH",
"239 177 OFFCURVE",
"211 138 OFFCURVE",
"186 103 CURVE",
"150 144 OFFCURVE",
"132 198 OFFCURVE",
"132 265 CURVE SMOOTH"
);
},
{
closed = 1;
nodes = (
"291 35 OFFCURVE",
"238 55 OFFCURVE",
"199 90 CURVE",
"248 159 OFFCURVE",
"310 247 OFFCURVE",
"374 333 CURVE SMOOTH",
"437 419 OFFCURVE",
"499 503 OFFCURVE",
"548 568 CURVE",
"604 528 OFFCURVE",
"630 457 OFFCURVE",
"630 376 CURVE SMOOTH",
"630 273 OFFCURVE",
"597 188 OFFCURVE",
"547 129 CURVE SMOOTH",
"497 69 OFFCURVE",
"429 35 OFFCURVE",
"360 35 CURVE SMOOTH"
);
}
);
width = 645;
}
);
note = Oslash;
unicode = 00D8;
},
{
glyphname = Otilde;
lastChange = "2017-06-04 12:09:41 +0000";
layers = (
{
layerId = "1178E776-45A7-4003-9263-224E9F7E8A45";
paths = (
{
closed = 1;
nodes = (
"342 669 OFFCURVE",
"347 664 OFFCURVE",
"352 667 CURVE",
"367 686 OFFCURVE",
"381 698 OFFCURVE",
"398 698 CURVE SMOOTH",
"411 698 OFFCURVE",
"425 690 OFFCURVE",
"439 682 CURVE",
"453 673 OFFCURVE",
"467 665 OFFCURVE",
"486 665 CURVE SMOOTH",
"526 665 OFFCURVE",
"546 688 OFFCURVE",
"562 724 CURVE",
"563 728 OFFCURVE",
"557 731 OFFCURVE",
"554 728 CURVE",
"541 700 OFFCURVE",
"527 684 OFFCURVE",
"503 684 CURVE SMOOTH",
"482 684 OFFCURVE",
"466 693 OFFCURVE",
"452 702 CURVE",
"438 710 OFFCURVE",
"426 719 OFFCURVE",
"410 719 CURVE SMOOTH",
"387 719 OFFCURVE",
"360 694 OFFCURVE",
"345 673 CURVE SMOOTH"
);
},
{
closed = 1;
nodes = (
"361 644 OFFCURVE",
"262 593 OFFCURVE",
"190 515 CURVE SMOOTH",
"117 437 OFFCURVE",
"70 333 OFFCURVE",
"70 232 CURVE SMOOTH",
"70 165 OFFCURVE",
"91 109 OFFCURVE",
"131 67 CURVE SMOOTH",
"171 25 OFFCURVE",
"229 0 OFFCURVE",
"305 0 CURVE SMOOTH",
"404 0 OFFCURVE",
"500 47 OFFCURVE",
"572 122 CURVE SMOOTH",
"644 197 OFFCURVE",
"691 298 OFFCURVE",
"691 406 CURVE SMOOTH",
"691 475 OFFCURVE",
"671 536 OFFCURVE",
"632 578 CURVE SMOOTH",
"593 620 OFFCURVE",
"538 644 OFFCURVE",
"466 644 CURVE SMOOTH"
);
},
{
closed = 1;
nodes = (
"287 36 OFFCURVE",
"230 59 OFFCURVE",
"191 99 CURVE SMOOTH",
"152 139 OFFCURVE",
"132 196 OFFCURVE",
"132 265 CURVE SMOOTH",
"132 361 OFFCURVE",
"161 446 OFFCURVE",
"211 507 CURVE SMOOTH",
"261 568 OFFCURVE",
"333 606 OFFCURVE",
"422 606 CURVE SMOOTH",
"494 606 OFFCURVE",
"545 580 OFFCURVE",
"580 539 CURVE SMOOTH",
"615 498 OFFCURVE",
"631 440 OFFCURVE",
"631 376 CURVE SMOOTH",
"631 273 OFFCURVE",
"598 189 OFFCURVE",
"547 130 CURVE SMOOTH",
"496 70 OFFCURVE",
"429 36 OFFCURVE",
"360 36 CURVE SMOOTH"
);
}
);
width = 646;
}
);
note = Otilde;
unicode = 00D5;
},
{
glyphname = P;
lastChange = "2017-06-04 12:09:41 +0000";
layers = (
{
layerId = "1178E776-45A7-4003-9263-224E9F7E8A45";
paths = (
{
closed = 1;
nodes = (
"729 655 OFFCURVE",
"747 664 OFFCURVE",
"767 670 CURVE SMOOTH",
"770 671 OFFCURVE",
"772 674 OFFCURVE",
"772 677 CURVE SMOOTH",
"772 680 OFFCURVE",
"770 681 OFFCURVE",
"767 681 CURVE",
"736 673 OFFCURVE",
"707 661 OFFCURVE",
"682 644 CURVE",
"666 644 LINE SMOOTH",
"493 644 OFFCURVE",
"388 561 OFFCURVE",
"343 428 CURVE",
"343 419 OFFCURVE",
"349 415 OFFCURVE",
"353 419 CURVE",
"392 552 OFFCURVE",
"491 616 OFFCURVE",
"632 616 CURVE SMOOTH",
"639 616 OFFCURVE",
"644 616 OFFCURVE",
"647 615 CURVE",
"596 567 OFFCURVE",
"557 491 OFFCURVE",
"524 372 CURVE",
"521 363 OFFCURVE",
"519 353 OFFCURVE",
"517 344 CURVE",
"514 335 OFFCURVE",
"512 326 OFFCURVE",
"509 317 CURVE",
"500 332 OFFCURVE",
"493 350 OFFCURVE",
"488 369 CURVE",
"485 373 OFFCURVE",
"480 369 OFFCURVE",
"479 364 CURVE",
"484 341 OFFCURVE",
"492 320 OFFCURVE",
"504 301 CURVE",
"471 196 OFFCURVE",
"440 129 OFFCURVE",
"401 89 CURVE SMOOTH",
"361 49 OFFCURVE",
"315 35 OFFCURVE",
"251 35 CURVE SMOOTH",
"195 35 OFFCURVE",
"156 50 OFFCURVE",
"130 74 CURVE SMOOTH",
"104 98 OFFCURVE",
"92 132 OFFCURVE",
"92 168 CURVE SMOOTH",
"92 209 OFFCURVE",
"110 248 OFFCURVE",
"150 269 CURVE",
"153 276 OFFCURVE",
"148 279 OFFCURVE",
"144 276 CURVE",
"115 264 OFFCURVE",
"91 245 OFFCURVE",
"75 222 CURVE SMOOTH",
"59 198 OFFCURVE",
"50 171 OFFCURVE",
"50 146 CURVE SMOOTH",
"50 62 OFFCURVE",
"101 0 OFFCURVE",
"212 0 CURVE SMOOTH",
"343 0 OFFCURVE",
"459 78 OFFCURVE",
"543 258 CURVE",
"572 237 OFFCURVE",
"608 226 OFFCURVE",
"651 226 CURVE SMOOTH",
"731 226 OFFCURVE",
"796 251 OFFCURVE",
"841 291 CURVE SMOOTH",
"885 331 OFFCURVE",
"911 387 OFFCURVE",
"911 450 CURVE SMOOTH",
"911 498 OFFCURVE",
"892 543 OFFCURVE",
"858 577 CURVE SMOOTH",
"824 611 OFFCURVE",
"773 634 OFFCURVE",
"712 642 CURVE"
);
},
{
closed = 1;
nodes = (
"615 246 OFFCURVE",
"577 255 OFFCURVE",
"550 274 CURVE",
"569 317 OFFCURVE",
"585 365 OFFCURVE",
"600 420 CURVE SMOOTH",
"622 506 OFFCURVE",
"650 570 OFFCURVE",
"683 612 CURVE",
"788 593 OFFCURVE",
"847 523 OFFCURVE",
"847 428 CURVE SMOOTH",
"847 377 OFFCURVE",
"829 332 OFFCURVE",
"797 299 CURVE SMOOTH",
"764 266 OFFCURVE",
"718 246 OFFCURVE",
"662 246 CURVE SMOOTH"
);
}
);
width = 821;
}
);
note = P;
unicode = 0050;
},
{
glyphname = Q;
lastChange = "2017-06-04 12:09:41 +0000";
layers = (
{
layerId = "1178E776-45A7-4003-9263-224E9F7E8A45";
paths = (
{
closed = 1;
nodes = (
"339 645 OFFCURVE",
"259 604 OFFCURVE",
"200 539 CURVE SMOOTH",
"141 474 OFFCURVE",
"104 386 OFFCURVE",
"104 291 CURVE SMOOTH",
"104 192 OFFCURVE",
"158 139 OFFCURVE",
"239 139 CURVE SMOOTH",
"270 139 OFFCURVE",
"297 149 OFFCURVE",
"308 164 CURVE",
"311 171 OFFCURVE",
"306 176 OFFCURVE",
"302 173 CURVE",
"292 164 OFFCURVE",
"275 162 OFFCURVE",
"252 166 CURVE SMOOTH",
"191 175 OFFCURVE",
"159 234 OFFCURVE",
"159 306 CURVE SMOOTH",
"159 401 OFFCURVE",
"185 480 OFFCURVE",
"230 536 CURVE SMOOTH",
"275 592 OFFCURVE",
"338 625 OFFCURVE",
"413 625 CURVE SMOOTH",
"469 625 OFFCURVE",
"511 603 OFFCURVE",
"540 564 CURVE SMOOTH",
"569 525 OFFCURVE",
"584 471 OFFCURVE",
"584 410 CURVE SMOOTH",
"584 299 OFFCURVE",
"536 208 OFFCURVE",
"464 142 CURVE SMOOTH",
"391 76 OFFCURVE",
"292 38 OFFCURVE",
"189 38 CURVE SMOOTH",
"179 38 OFFCURVE",
"168 41 OFFCURVE",
"157 46 CURVE SMOOTH",
"145 51 OFFCURVE",
"135 54 OFFCURVE",
"126 54 CURVE SMOOTH",
"121 54 OFFCURVE",
"113 52 OFFCURVE",
"103 49 CURVE",
"83 41 OFFCURVE",
"71 31 OFFCURVE",
"71 25 CURVE SMOOTH",
"71 22 OFFCURVE",
"73 19 OFFCURVE",
"76 18 CURVE",
"98 19 OFFCURVE",
"124 14 OFFCURVE",
"153 4 CURVE SMOOTH",
"212 -17 OFFCURVE",
"277 -50 OFFCURVE",
"346 -86 CURVE SMOOTH",
"381 -104 OFFCURVE",
"415 -121 OFFCURVE",
"448 -136 CURVE SMOOTH",
"476 -149 OFFCURVE",
"499 -157 OFFCURVE",
"523 -163 CURVE SMOOTH",
"546 -169 OFFCURVE",
"568 -172 OFFCURVE",
"596 -172 CURVE SMOOTH",
"675 -172 OFFCURVE",
"741 -130 OFFCURVE",
"777 -79 CURVE",
"780 -72 OFFCURVE",
"772 -69 OFFCURVE",
"769 -72 CURVE",
"737 -107 OFFCURVE",
"695 -125 OFFCURVE",
"627 -125 CURVE SMOOTH",
"576 -125 OFFCURVE",
"539 -116 OFFCURVE",
"487 -96 CURVE SMOOTH",
"439 -77 OFFCURVE",
"390 -53 OFFCURVE",
"345 -31 CURVE SMOOTH",
"300 -9 OFFCURVE",
"258 11 OFFCURVE",
"223 23 CURVE",
"335 38 OFFCURVE",
"442 88 OFFCURVE",
"521 160 CURVE SMOOTH",
"600 232 OFFCURVE",
"650 327 OFFCURVE",
"650 431 CURVE SMOOTH",
"650 490 OFFCURVE",
"631 543 OFFCURVE",
"593 582 CURVE SMOOTH",
"555 621 OFFCURVE",
"499 645 OFFCURVE",
"426 645 CURVE SMOOTH"
);
}
);
width = 602;
}
);
note = Q;
unicode = 0051;
},
{
glyphname = R;
lastChange = "2017-06-04 12:09:41 +0000";
layers = (
{
layerId = "1178E776-45A7-4003-9263-224E9F7E8A45";
paths = (
{
closed = 1;
nodes = (
"853 53 OFFCURVE",
"834 41 OFFCURVE",
"811 41 CURVE SMOOTH",
"770 41 OFFCURVE",
"734 57 OFFCURVE",
"706 98 CURVE SMOOTH",
"677 139 OFFCURVE",
"653 208 OFFCURVE",
"633 312 CURVE",
"700 305 OFFCURVE",
"755 322 OFFCURVE",
"793 354 CURVE SMOOTH",
"831 386 OFFCURVE",
"852 432 OFFCURVE",
"852 488 CURVE SMOOTH",
"852 528 OFFCURVE",
"836 567 OFFCURVE",
"805 596 CURVE SMOOTH",
"774 625 OFFCURVE",
"730 644 OFFCURVE",
"674 644 CURVE",
"691 658 OFFCURVE",
"709 667 OFFCURVE",
"727 672 CURVE",
"730 673 OFFCURVE",
"732 675 OFFCURVE",
"732 678 CURVE SMOOTH",
"732 680 OFFCURVE",
"730 681 OFFCURVE",
"727 681 CURVE",
"697 673 OFFCURVE",
"670 661 OFFCURVE",
"645 644 CURVE",
"496 637 OFFCURVE",
"391 577 OFFCURVE",
"328 485 CURVE",
"325 478 OFFCURVE",
"331 475 OFFCURVE",
"336 478 CURVE",
"400 570 OFFCURVE",
"486 611 OFFCURVE",
"610 615 CURVE",
"557 564 OFFCURVE",
"515 483 OFFCURVE",
"485 372 CURVE SMOOTH",
"445 227 OFFCURVE",
"410 143 OFFCURVE",
"369 96 CURVE SMOOTH",
"328 48 OFFCURVE",
"280 37 OFFCURVE",
"213 37 CURVE SMOOTH",
"130 37 OFFCURVE",
"89 80 OFFCURVE",
"89 145 CURVE SMOOTH",
"89 186 OFFCURVE",
"108 216 OFFCURVE",
"147 237 CURVE",
"150 244 OFFCURVE",
"148 247 OFFCURVE",
"141 244 CURVE",
"90 225 OFFCURVE",
"50 175 OFFCURVE",
"50 114 CURVE SMOOTH",
"50 46 OFFCURVE",
"90 0 OFFCURVE",
"182 0 CURVE SMOOTH",
"263 0 OFFCURVE",
"339 32 OFFCURVE",
"403 100 CURVE SMOOTH",
"467 168 OFFCURVE",
"520 273 OFFCURVE",
"560 420 CURVE SMOOTH",
"583 505 OFFCURVE",
"609 571 OFFCURVE",
"644 615 CURVE",
"693 611 OFFCURVE",
"730 594 OFFCURVE",
"755 568 CURVE SMOOTH",
"779 542 OFFCURVE",
"792 506 OFFCURVE",
"792 467 CURVE SMOOTH",
"792 388 OFFCURVE",
"758 342 OFFCURVE",
"701 329 CURVE",
"690 326 OFFCURVE",
"680 325 OFFCURVE",
"671 326 CURVE",
"654 326 OFFCURVE",
"641 329 OFFCURVE",
"633 331 CURVE",
"628 332 OFFCURVE",
"625 332 OFFCURVE",
"623 331 CURVE",
"616 328 OFFCURVE",
"608 326 OFFCURVE",
"599 324 CURVE",
"590 321 OFFCURVE",
"583 319 OFFCURVE",
"580 317 CURVE",
"577 316 OFFCURVE",
"576 314 OFFCURVE",
"576 309 CURVE",
"593 228 OFFCURVE",
"612 150 OFFCURVE",
"642 94 CURVE SMOOTH",
"672 37 OFFCURVE",
"711 0 OFFCURVE",
"770 0 CURVE SMOOTH",
"813 0 OFFCURVE",
"851 28 OFFCURVE",
"879 73 CURVE",
"880 76 OFFCURVE",
"880 78 OFFCURVE",
"877 78 CURVE SMOOTH",
"874 78 OFFCURVE",
"871 77 OFFCURVE",
"870 76 CURVE"
);
}
);
width = 870;
}
);
note = R;
unicode = 0052;
},
{
glyphname = S;
lastChange = "2017-06-04 12:09:41 +0000";
layers = (
{
layerId = "1178E776-45A7-4003-9263-224E9F7E8A45";
paths = (
{
closed = 1;
nodes = (
"50 55 OFFCURVE",
"117 0 OFFCURVE",
"244 0 CURVE SMOOTH",
"313 0 OFFCURVE",
"375 21 OFFCURVE",
"420 55 CURVE SMOOTH",
"465 89 OFFCURVE",
"493 135 OFFCURVE",
"493 187 CURVE SMOOTH",
"493 212 OFFCURVE",
"489 235 OFFCURVE",
"482 256 CURVE",
"466 298 OFFCURVE",
"443 335 OFFCURVE",
"417 371 CURVE SMOOTH",
"404 388 OFFCURVE",
"391 406 OFFCURVE",
"380 424 CURVE SMOOTH",
"357 459 OFFCURVE",
"340 493 OFFCURVE",
"340 533 CURVE SMOOTH",
"340 584 OFFCURVE",
"369 619 OFFCURVE",
"436 619 CURVE SMOOTH",
"461 619 OFFCURVE",
"485 610 OFFCURVE",
"502 596 CURVE SMOOTH",
"519 582 OFFCURVE",
"529 561 OFFCURVE",
"529 540 CURVE SMOOTH",
"529 521 OFFCURVE",
"524 506 OFFCURVE",
"517 495 CURVE",
"516 490 OFFCURVE",
"521 484 OFFCURVE",
"526 487 CURVE",
"546 511 OFFCURVE",
"570 548 OFFCURVE",
"570 571 CURVE SMOOTH",
"570 611 OFFCURVE",
"528 644 OFFCURVE",
"460 644 CURVE SMOOTH",
"411 644 OFFCURVE",
"369 627 OFFCURVE",
"339 600 CURVE SMOOTH",
"309 572 OFFCURVE",
"291 536 OFFCURVE",
"291 499 CURVE SMOOTH",
"291 435 OFFCURVE",
"328 388 OFFCURVE",
"365 338 CURVE SMOOTH",
"401 288 OFFCURVE",
"438 234 OFFCURVE",
"438 159 CURVE SMOOTH",
"438 79 OFFCURVE",
"388 25 OFFCURVE",
"263 25 CURVE SMOOTH",
"167 25 OFFCURVE",
"101 75 OFFCURVE",
"101 156 CURVE SMOOTH",
"101 196 OFFCURVE",
"116 225 OFFCURVE",
"140 238 CURVE",
"144 243 OFFCURVE",
"141 253 OFFCURVE",
"134 250 CURVE SMOOTH",
"82 229 OFFCURVE",
"50 188 OFFCURVE",
"50 131 CURVE SMOOTH"
);
}
);
width = 513;
}
);
note = S;
unicode = 0053;
},
{
glyphname = Scaron;
lastChange = "2017-06-04 12:09:41 +0000";
layers = (
{
layerId = "1178E776-45A7-4003-9263-224E9F7E8A45";
paths = (
{
closed = 1;
nodes = (
"453 698 OFFCURVE",
"495 725 OFFCURVE",
"518 738 CURVE",
"521 743 OFFCURVE",
"520 748 OFFCURVE",
"513 748 CURVE",
"508 745 OFFCURVE",
"503 742 OFFCURVE",
"496 739 CURVE",
"489 735 OFFCURVE",
"482 731 OFFCURVE",
"475 727 CURVE",
"461 718 OFFCURVE",
"446 709 OFFCURVE",
"438 702 CURVE",
"418 719 OFFCURVE",
"397 735 OFFCURVE",
"373 746 CURVE",
"364 747 OFFCURVE",
"357 746 OFFCURVE",
"351 743 CURVE SMOOTH",
"345 740 OFFCURVE",
"344 736 OFFCURVE",
"347 733 CURVE",
"372 722 OFFCURVE",
"403 695 OFFCURVE",
"420 672 CURVE",
"424 669 OFFCURVE",
"428 668 OFFCURVE",
"432 671 CURVE"
);
},
{
closed = 1;
nodes = (
"50 55 OFFCURVE",
"117 0 OFFCURVE",
"244 0 CURVE SMOOTH",
"313 0 OFFCURVE",
"375 21 OFFCURVE",
"420 55 CURVE SMOOTH",
"465 89 OFFCURVE",
"493 135 OFFCURVE",
"493 187 CURVE SMOOTH",
"493 212 OFFCURVE",
"489 235 OFFCURVE",
"482 256 CURVE",
"466 298 OFFCURVE",
"443 335 OFFCURVE",
"417 371 CURVE SMOOTH",
"404 388 OFFCURVE",
"391 406 OFFCURVE",
"380 424 CURVE SMOOTH",
"357 459 OFFCURVE",
"340 493 OFFCURVE",
"340 533 CURVE SMOOTH",
"340 584 OFFCURVE",
"369 619 OFFCURVE",
"436 619 CURVE SMOOTH",
"461 619 OFFCURVE",
"485 610 OFFCURVE",
"502 596 CURVE SMOOTH",
"519 582 OFFCURVE",
"529 561 OFFCURVE",
"529 540 CURVE SMOOTH",
"529 521 OFFCURVE",
"524 506 OFFCURVE",
"517 495 CURVE",
"516 490 OFFCURVE",
"521 484 OFFCURVE",
"526 487 CURVE",
"546 511 OFFCURVE",
"570 548 OFFCURVE",
"570 571 CURVE SMOOTH",
"570 611 OFFCURVE",
"528 644 OFFCURVE",
"460 644 CURVE SMOOTH",
"411 644 OFFCURVE",
"369 627 OFFCURVE",
"339 600 CURVE SMOOTH",
"309 572 OFFCURVE",
"291 536 OFFCURVE",
"291 499 CURVE SMOOTH",
"291 435 OFFCURVE",
"328 388 OFFCURVE",
"365 338 CURVE SMOOTH",
"401 288 OFFCURVE",
"438 234 OFFCURVE",
"438 159 CURVE SMOOTH",
"438 79 OFFCURVE",
"388 25 OFFCURVE",
"263 25 CURVE SMOOTH",
"167 25 OFFCURVE",
"101 75 OFFCURVE",
"101 156 CURVE SMOOTH",
"101 196 OFFCURVE",
"116 225 OFFCURVE",
"140 238 CURVE",
"144 243 OFFCURVE",
"141 253 OFFCURVE",
"134 250 CURVE SMOOTH",
"82 229 OFFCURVE",
"50 188 OFFCURVE",
"50 131 CURVE SMOOTH"
);
}
);
width = 513;
}
);
note = Scaron;
unicode = 0160;
},
{
glyphname = T;
lastChange = "2017-06-04 12:09:41 +0000";
layers = (
{
layerId = "1178E776-45A7-4003-9263-224E9F7E8A45";
paths = (
{
closed = 1;
nodes = (
"730 616 OFFCURVE",
"613 644 OFFCURVE",
"472 644 CURVE SMOOTH",
"375 644 OFFCURVE",
"305 612 OFFCURVE",
"261 563 CURVE SMOOTH",
"217 514 OFFCURVE",
"198 449 OFFCURVE",
"206 382 CURVE",
"210 377 OFFCURVE",
"214 377 OFFCURVE",
"217 384 CURVE",
"209 444 OFFCURVE",
"226 499 OFFCURVE",
"262 539 CURVE SMOOTH",
"298 578 OFFCURVE",
"354 603 OFFCURVE",
"429 603 CURVE SMOOTH",
"526 603 OFFCURVE",
"622 589 OFFCURVE",
"710 566 CURVE",
"619 546 OFFCURVE",
"550 458 OFFCURVE",
"502 307 CURVE SMOOTH",
"467 200 OFFCURVE",
"437 132 OFFCURVE",
"398 91 CURVE SMOOTH",
"359 50 OFFCURVE",
"312 35 OFFCURVE",
"248 35 CURVE SMOOTH",
"155 35 OFFCURVE",
"101 74 OFFCURVE",
"101 142 CURVE SMOOTH",
"101 170 OFFCURVE",
"109 191 OFFCURVE",
"132 208 CURVE",
"135 212 OFFCURVE",
"132 219 OFFCURVE",
"127 219 CURVE",
"84 200 OFFCURVE",
"50 158 OFFCURVE",
"50 111 CURVE SMOOTH",
"50 46 OFFCURVE",
"106 0 OFFCURVE",
"202 0 CURVE SMOOTH",
"377 0 OFFCURVE",
"503 113 OFFCURVE",
"572 338 CURVE SMOOTH",
"596 414 OFFCURVE",
"621 467 OFFCURVE",
"649 503 CURVE SMOOTH",
"677 538 OFFCURVE",
"708 555 OFFCURVE",
"741 558 CURVE",
"748 556 OFFCURVE",
"755 554 OFFCURVE",
"762 552 CURVE",
"768 550 OFFCURVE",
"774 548 OFFCURVE",
"781 546 CURVE SMOOTH",
"792 543 OFFCURVE",
"813 555 OFFCURVE",
"825 572 CURVE SMOOTH",
"830 579 OFFCURVE",
"831 584 OFFCURVE",
"826 587 CURVE"
);
}
);
width = 593;
}
);
note = T;
unicode = 0054;
},
{
glyphname = U;
lastChange = "2017-06-04 12:09:41 +0000";
layers = (
{
layerId = "1178E776-45A7-4003-9263-224E9F7E8A45";
paths = (
{
closed = 1;
nodes = (
"351 512 OFFCURVE",
"292 436 OFFCURVE",
"252 357 CURVE SMOOTH",
"212 278 OFFCURVE",
"190 197 OFFCURVE",
"190 125 CURVE SMOOTH",
"190 49 OFFCURVE",
"233 0 OFFCURVE",
"306 0 CURVE SMOOTH",
"423 0 OFFCURVE",
"543 118 OFFCURVE",
"664 346 CURVE",
"621 239 OFFCURVE",
"602 145 OFFCURVE",
"602 78 CURVE SMOOTH",
"602 26 OFFCURVE",
"628 0 OFFCURVE",
"667 0 CURVE SMOOTH",
"704 0 OFFCURVE",
"747 36 OFFCURVE",
"783 93 CURVE",
"784 100 OFFCURVE",
"778 104 OFFCURVE",
"774 100 CURVE",
"749 63 OFFCURVE",
"725 44 OFFCURVE",
"700 44 CURVE SMOOTH",
"675 44 OFFCURVE",
"662 63 OFFCURVE",
"662 101 CURVE SMOOTH",
"662 145 OFFCURVE",
"676 210 OFFCURVE",
"697 280 CURVE SMOOTH",
"718 350 OFFCURVE",
"747 426 OFFCURVE",
"776 491 CURVE SMOOTH",
"805 555 OFFCURVE",
"836 609 OFFCURVE",
"860 637 CURVE",
"860 642 OFFCURVE",
"855 644 OFFCURVE",
"844 644 CURVE SMOOTH",
"815 644 OFFCURVE",
"785 633 OFFCURVE",
"780 622 CURVE SMOOTH",
"689 421 OFFCURVE",
"613 276 OFFCURVE",
"544 181 CURVE SMOOTH",
"475 86 OFFCURVE",
"410 42 OFFCURVE",
"341 42 CURVE SMOOTH",
"282 42 OFFCURVE",
"254 77 OFFCURVE",
"254 153 CURVE SMOOTH",
"254 233 OFFCURVE",
"274 317 OFFCURVE",
"312 395 CURVE SMOOTH",
"350 473 OFFCURVE",
"403 544 OFFCURVE",
"474 600 CURVE",
"479 605 OFFCURVE",
"480 609 OFFCURVE",
"477 612 CURVE",
"436 631 OFFCURVE",
"382 644 OFFCURVE",
"326 644 CURVE SMOOTH",
"231 644 OFFCURVE",
"159 603 OFFCURVE",
"115 541 CURVE SMOOTH",
"70 479 OFFCURVE",
"53 396 OFFCURVE",
"72 312 CURVE",
"75 307 OFFCURVE",
"82 311 OFFCURVE",
"83 316 CURVE",
"68 389 OFFCURVE",
"79 462 OFFCURVE",
"113 516 CURVE SMOOTH",
"147 570 OFFCURVE",
"204 605 OFFCURVE",
"281 605 CURVE SMOOTH",
"337 605 OFFCURVE",
"392 592 OFFCURVE",
"427 579 CURVE"
);
}
);
width = 765;
}
);
note = U;
unicode = 0055;
},
{
glyphname = Uacute;
lastChange = "2017-06-04 12:09:41 +0000";
layers = (
{
layerId = "1178E776-45A7-4003-9263-224E9F7E8A45";
paths = (
{
closed = 1;
nodes = (
"622 707 OFFCURVE",
"587 685 OFFCURVE",
"560 669 CURVE",
"558 667 OFFCURVE",
"557 665 OFFCURVE",
"557 662 CURVE SMOOTH",
"557 659 OFFCURVE",
"558 658 OFFCURVE",
"561 658 CURVE",
"581 665 OFFCURVE",
"607 675 OFFCURVE",
"631 685 CURVE SMOOTH",
"654 695 OFFCURVE",
"676 706 OFFCURVE",
"689 715 CURVE",
"693 718 OFFCURVE",
"691 721 OFFCURVE",
"688 724 CURVE",
"676 729 OFFCURVE",
"654 738 OFFCURVE",
"647 734 CURVE"
);
},
{
closed = 1;
nodes = (
"351 512 OFFCURVE",
"292 436 OFFCURVE",
"252 357 CURVE SMOOTH",
"212 278 OFFCURVE",
"190 197 OFFCURVE",
"190 125 CURVE SMOOTH",
"190 49 OFFCURVE",
"233 0 OFFCURVE",
"306 0 CURVE SMOOTH",
"423 0 OFFCURVE",
"543 118 OFFCURVE",
"664 346 CURVE",
"621 239 OFFCURVE",
"602 145 OFFCURVE",
"602 78 CURVE SMOOTH",
"602 26 OFFCURVE",
"628 0 OFFCURVE",
"667 0 CURVE SMOOTH",
"704 0 OFFCURVE",
"747 36 OFFCURVE",
"783 93 CURVE",
"784 100 OFFCURVE",
"778 104 OFFCURVE",
"774 100 CURVE",
"749 63 OFFCURVE",
"725 44 OFFCURVE",
"700 44 CURVE SMOOTH",
"675 44 OFFCURVE",
"662 63 OFFCURVE",
"662 101 CURVE SMOOTH",
"662 145 OFFCURVE",
"676 210 OFFCURVE",
"697 280 CURVE SMOOTH",
"718 350 OFFCURVE",
"747 426 OFFCURVE",
"776 491 CURVE SMOOTH",
"805 555 OFFCURVE",
"836 609 OFFCURVE",
"860 637 CURVE",
"860 642 OFFCURVE",
"855 644 OFFCURVE",
"844 644 CURVE SMOOTH",
"815 644 OFFCURVE",
"785 633 OFFCURVE",
"780 622 CURVE SMOOTH",
"689 421 OFFCURVE",
"613 276 OFFCURVE",
"544 181 CURVE SMOOTH",
"475 86 OFFCURVE",
"410 42 OFFCURVE",
"341 42 CURVE SMOOTH",
"282 42 OFFCURVE",
"254 77 OFFCURVE",
"254 153 CURVE SMOOTH",
"254 233 OFFCURVE",
"274 317 OFFCURVE",
"312 395 CURVE SMOOTH",
"350 473 OFFCURVE",
"403 544 OFFCURVE",
"474 600 CURVE",
"479 605 OFFCURVE",
"480 609 OFFCURVE",
"477 612 CURVE",
"436 631 OFFCURVE",
"382 644 OFFCURVE",
"326 644 CURVE SMOOTH",
"231 644 OFFCURVE",
"159 603 OFFCURVE",
"115 541 CURVE SMOOTH",
"70 479 OFFCURVE",
"53 396 OFFCURVE",
"72 312 CURVE",
"75 307 OFFCURVE",
"82 311 OFFCURVE",
"83 316 CURVE",
"68 389 OFFCURVE",
"79 462 OFFCURVE",
"113 516 CURVE SMOOTH",
"147 570 OFFCURVE",
"204 605 OFFCURVE",
"281 605 CURVE SMOOTH",
"337 605 OFFCURVE",
"392 592 OFFCURVE",
"427 579 CURVE"
);
}
);
width = 765;
}
);
note = Uacute;
unicode = 00DA;
},
{
glyphname = Ucircumflex;
lastChange = "2017-06-04 12:09:41 +0000";
layers = (
{
layerId = "1178E776-45A7-4003-9263-224E9F7E8A45";
paths = (
{
closed = 1;
nodes = (
"582 721 OFFCURVE",
"540 692 OFFCURVE",
"517 679 CURVE",
"514 673 OFFCURVE",
"515 670 OFFCURVE",
"522 670 CURVE",
"531 674 OFFCURVE",
"547 683 OFFCURVE",
"561 692 CURVE",
"568 696 OFFCURVE",
"574 700 OFFCURVE",
"581 704 CURVE SMOOTH",
"588 708 OFFCURVE",
"593 712 OFFCURVE",
"597 715 CURVE",
"618 698 OFFCURVE",
"638 682 OFFCURVE",
"663 671 CURVE",
"671 670 OFFCURVE",
"678 671 OFFCURVE",
"685 674 CURVE",
"691 677 OFFCURVE",
"692 681 OFFCURVE",
"689 684 CURVE",
"662 696 OFFCURVE",
"632 722 OFFCURVE",
"615 745 CURVE",
"610 749 OFFCURVE",
"606 749 OFFCURVE",
"603 746 CURVE"
);
},
{
closed = 1;
nodes = (
"351 512 OFFCURVE",
"292 436 OFFCURVE",
"252 357 CURVE SMOOTH",
"212 278 OFFCURVE",
"190 197 OFFCURVE",
"190 125 CURVE SMOOTH",
"190 49 OFFCURVE",
"233 0 OFFCURVE",
"306 0 CURVE SMOOTH",
"423 0 OFFCURVE",
"543 118 OFFCURVE",
"664 346 CURVE",
"621 239 OFFCURVE",
"602 145 OFFCURVE",
"602 78 CURVE SMOOTH",
"602 26 OFFCURVE",
"628 0 OFFCURVE",
"667 0 CURVE SMOOTH",
"704 0 OFFCURVE",
"747 36 OFFCURVE",
"783 93 CURVE",
"784 100 OFFCURVE",
"778 104 OFFCURVE",
"774 100 CURVE",
"749 63 OFFCURVE",
"725 44 OFFCURVE",
"700 44 CURVE SMOOTH",
"675 44 OFFCURVE",
"662 63 OFFCURVE",
"662 101 CURVE SMOOTH",
"662 145 OFFCURVE",
"676 210 OFFCURVE",
"697 280 CURVE SMOOTH",
"718 350 OFFCURVE",
"747 426 OFFCURVE",
"776 491 CURVE SMOOTH",
"805 555 OFFCURVE",
"836 609 OFFCURVE",
"860 637 CURVE",
"860 642 OFFCURVE",
"855 644 OFFCURVE",
"844 644 CURVE SMOOTH",
"815 644 OFFCURVE",
"785 633 OFFCURVE",
"780 622 CURVE SMOOTH",
"689 421 OFFCURVE",
"613 276 OFFCURVE",
"544 181 CURVE SMOOTH",
"475 86 OFFCURVE",
"410 42 OFFCURVE",
"341 42 CURVE SMOOTH",
"282 42 OFFCURVE",
"254 77 OFFCURVE",
"254 153 CURVE SMOOTH",
"254 233 OFFCURVE",
"274 317 OFFCURVE",
"312 395 CURVE SMOOTH",
"350 473 OFFCURVE",
"403 544 OFFCURVE",
"474 600 CURVE",
"479 605 OFFCURVE",
"480 609 OFFCURVE",
"477 612 CURVE",
"436 631 OFFCURVE",
"382 644 OFFCURVE",
"326 644 CURVE SMOOTH",
"231 644 OFFCURVE",
"159 603 OFFCURVE",
"115 541 CURVE SMOOTH",
"70 479 OFFCURVE",
"53 396 OFFCURVE",
"72 312 CURVE",
"75 307 OFFCURVE",
"82 311 OFFCURVE",
"83 316 CURVE",
"68 389 OFFCURVE",
"79 462 OFFCURVE",
"113 516 CURVE SMOOTH",
"147 570 OFFCURVE",
"204 605 OFFCURVE",
"281 605 CURVE SMOOTH",
"337 605 OFFCURVE",
"392 592 OFFCURVE",
"427 579 CURVE"
);
}
);
width = 765;
}
);
note = Ucircumflex;
unicode = 00DB;
},
{
glyphname = Udieresis;
lastChange = "2017-06-04 12:09:41 +0000";
layers = (
{
layerId = "1178E776-45A7-4003-9263-224E9F7E8A45";
paths = (
{
closed = 1;
nodes = (
"592 667 OFFCURVE",
"607 689 OFFCURVE",
"607 708 CURVE SMOOTH",
"607 717 OFFCURVE",
"604 721 OFFCURVE",
"598 721 CURVE SMOOTH",
"577 721 OFFCURVE",
"562 697 OFFCURVE",
"562 684 CURVE SMOOTH",
"562 673 OFFCURVE",
"566 667 OFFCURVE",
"573 667 CURVE SMOOTH"
);
},
{
closed = 1;
nodes = (
"666 667 OFFCURVE",
"682 689 OFFCURVE",
"682 708 CURVE SMOOTH",
"682 717 OFFCURVE",
"679 721 OFFCURVE",
"673 721 CURVE SMOOTH",
"653 721 OFFCURVE",
"638 697 OFFCURVE",
"638 684 CURVE SMOOTH",
"638 673 OFFCURVE",
"642 667 OFFCURVE",
"650 667 CURVE SMOOTH"
);
},
{
closed = 1;
nodes = (
"351 512 OFFCURVE",
"292 436 OFFCURVE",
"252 357 CURVE SMOOTH",
"212 278 OFFCURVE",
"190 197 OFFCURVE",
"190 125 CURVE SMOOTH",
"190 49 OFFCURVE",
"233 0 OFFCURVE",
"306 0 CURVE SMOOTH",
"423 0 OFFCURVE",
"543 118 OFFCURVE",
"664 346 CURVE",
"621 239 OFFCURVE",
"602 145 OFFCURVE",
"602 78 CURVE SMOOTH",
"602 26 OFFCURVE",
"628 0 OFFCURVE",
"667 0 CURVE SMOOTH",
"704 0 OFFCURVE",
"747 36 OFFCURVE",
"783 93 CURVE",
"784 100 OFFCURVE",
"778 104 OFFCURVE",
"774 100 CURVE",
"749 63 OFFCURVE",
"725 44 OFFCURVE",
"700 44 CURVE SMOOTH",
"675 44 OFFCURVE",
"662 63 OFFCURVE",
"662 101 CURVE SMOOTH",
"662 145 OFFCURVE",
"676 210 OFFCURVE",
"697 280 CURVE SMOOTH",
"718 350 OFFCURVE",
"747 426 OFFCURVE",
"776 491 CURVE SMOOTH",
"805 555 OFFCURVE",
"836 609 OFFCURVE",
"860 637 CURVE",
"860 642 OFFCURVE",
"855 644 OFFCURVE",
"844 644 CURVE SMOOTH",
"815 644 OFFCURVE",
"785 633 OFFCURVE",
"780 622 CURVE SMOOTH",
"689 421 OFFCURVE",
"613 276 OFFCURVE",
"544 181 CURVE SMOOTH",
"475 86 OFFCURVE",
"410 42 OFFCURVE",
"341 42 CURVE SMOOTH",
"282 42 OFFCURVE",
"254 77 OFFCURVE",
"254 153 CURVE SMOOTH",
"254 233 OFFCURVE",
"274 317 OFFCURVE",
"312 395 CURVE SMOOTH",
"350 473 OFFCURVE",
"403 544 OFFCURVE",
"474 600 CURVE",
"479 605 OFFCURVE",
"480 609 OFFCURVE",
"477 612 CURVE",
"436 631 OFFCURVE",
"382 644 OFFCURVE",
"326 644 CURVE SMOOTH",
"231 644 OFFCURVE",
"159 603 OFFCURVE",
"115 541 CURVE SMOOTH",
"70 479 OFFCURVE",
"53 396 OFFCURVE",
"72 312 CURVE",
"75 307 OFFCURVE",
"82 311 OFFCURVE",
"83 316 CURVE",
"68 389 OFFCURVE",
"79 462 OFFCURVE",
"113 516 CURVE SMOOTH",
"147 570 OFFCURVE",
"204 605 OFFCURVE",
"281 605 CURVE SMOOTH",
"337 605 OFFCURVE",
"392 592 OFFCURVE",
"427 579 CURVE"
);
}
);
width = 765;
}
);
note = Udieresis;
unicode = 00DC;
},
{
glyphname = Ugrave;
lastChange = "2017-06-04 12:09:41 +0000";
layers = (
{
layerId = "1178E776-45A7-4003-9263-224E9F7E8A45";
paths = (
{
closed = 1;
nodes = (
"656 689 OFFCURVE",
"624 712 OFFCURVE",
"601 731 CURVE",
"598 734 OFFCURVE",
"574 728 OFFCURVE",
"561 717 CURVE",
"560 716 OFFCURVE",
"559 714 OFFCURVE",
"559 713 CURVE SMOOTH",
"559 711 OFFCURVE",
"560 710 OFFCURVE",
"561 709 CURVE",
"576 701 OFFCURVE",
"598 691 OFFCURVE",
"621 682 CURVE SMOOTH",
"644 673 OFFCURVE",
"668 664 OFFCURVE",
"684 660 CURVE",
"691 660 OFFCURVE",
"695 666 OFFCURVE",
"692 669 CURVE"
);
},
{
closed = 1;
nodes = (
"351 512 OFFCURVE",
"292 436 OFFCURVE",
"252 357 CURVE SMOOTH",
"212 278 OFFCURVE",
"190 197 OFFCURVE",
"190 125 CURVE SMOOTH",
"190 49 OFFCURVE",
"233 0 OFFCURVE",
"306 0 CURVE SMOOTH",
"423 0 OFFCURVE",
"543 118 OFFCURVE",
"664 346 CURVE",
"621 239 OFFCURVE",
"602 145 OFFCURVE",
"602 78 CURVE SMOOTH",
"602 26 OFFCURVE",
"628 0 OFFCURVE",
"667 0 CURVE SMOOTH",
"704 0 OFFCURVE",
"747 36 OFFCURVE",
"783 93 CURVE",
"784 100 OFFCURVE",
"778 104 OFFCURVE",
"774 100 CURVE",
"749 63 OFFCURVE",
"725 44 OFFCURVE",
"700 44 CURVE SMOOTH",
"675 44 OFFCURVE",
"662 63 OFFCURVE",
"662 101 CURVE SMOOTH",
"662 145 OFFCURVE",
"676 210 OFFCURVE",
"697 280 CURVE SMOOTH",
"718 350 OFFCURVE",
"747 426 OFFCURVE",
"776 491 CURVE SMOOTH",
"805 555 OFFCURVE",
"836 609 OFFCURVE",
"860 637 CURVE",
"860 642 OFFCURVE",
"855 644 OFFCURVE",
"844 644 CURVE SMOOTH",
"815 644 OFFCURVE",
"785 633 OFFCURVE",
"780 622 CURVE SMOOTH",
"689 421 OFFCURVE",
"613 276 OFFCURVE",
"544 181 CURVE SMOOTH",
"475 86 OFFCURVE",
"410 42 OFFCURVE",
"341 42 CURVE SMOOTH",
"282 42 OFFCURVE",
"254 77 OFFCURVE",
"254 153 CURVE SMOOTH",
"254 233 OFFCURVE",
"274 317 OFFCURVE",
"312 395 CURVE SMOOTH",
"350 473 OFFCURVE",
"403 544 OFFCURVE",
"474 600 CURVE",
"479 605 OFFCURVE",
"480 609 OFFCURVE",
"477 612 CURVE",
"436 631 OFFCURVE",
"382 644 OFFCURVE",
"326 644 CURVE SMOOTH",
"231 644 OFFCURVE",
"159 603 OFFCURVE",
"115 541 CURVE SMOOTH",
"70 479 OFFCURVE",
"53 396 OFFCURVE",
"72 312 CURVE",
"75 307 OFFCURVE",
"82 311 OFFCURVE",
"83 316 CURVE",
"68 389 OFFCURVE",
"79 462 OFFCURVE",
"113 516 CURVE SMOOTH",
"147 570 OFFCURVE",
"204 605 OFFCURVE",
"281 605 CURVE SMOOTH",
"337 605 OFFCURVE",
"392 592 OFFCURVE",
"427 579 CURVE"
);
}
);
width = 765;
}
);
note = Ugrave;
unicode = 00D9;
},
{
glyphname = V;
lastChange = "2017-06-04 12:09:41 +0000";
layers = (
{
layerId = "1178E776-45A7-4003-9263-224E9F7E8A45";
paths = (
{
closed = 1;
nodes = (
"789 555 OFFCURVE",
"779 586 OFFCURVE",
"761 608 CURVE SMOOTH",
"743 630 OFFCURVE",
"716 644 OFFCURVE",
"684 644 CURVE SMOOTH",
"672 644 OFFCURVE",
"657 635 OFFCURVE",
"643 621 CURVE SMOOTH",
"629 607 OFFCURVE",
"615 588 OFFCURVE",
"608 569 CURVE",
"608 562 OFFCURVE",
"611 559 OFFCURVE",
"618 562 CURVE",
"629 586 OFFCURVE",
"641 597 OFFCURVE",
"665 597 CURVE SMOOTH",
"704 597 OFFCURVE",
"734 555 OFFCURVE",
"734 492 CURVE SMOOTH",
"734 415 OFFCURVE",
"706 349 OFFCURVE",
"655 283 CURVE SMOOTH",
"604 217 OFFCURVE",
"528 150 OFFCURVE",
"435 73 CURVE",
"460 166 OFFCURVE",
"475 261 OFFCURVE",
"475 346 CURVE SMOOTH",
"475 430 OFFCURVE",
"462 505 OFFCURVE",
"433 558 CURVE SMOOTH",
"404 611 OFFCURVE",
"360 644 OFFCURVE",
"299 644 CURVE SMOOTH",
"235 644 OFFCURVE",
"186 617 OFFCURVE",
"150 573 CURVE SMOOTH",
"113 528 OFFCURVE",
"87 464 OFFCURVE",
"70 389 CURVE",
"70 384 OFFCURVE",
"77 382 OFFCURVE",
"80 387 CURVE",
"117 534 OFFCURVE",
"173 604 OFFCURVE",
"264 604 CURVE SMOOTH",
"327 604 OFFCURVE",
"369 566 OFFCURVE",
"394 507 CURVE SMOOTH",
"418 447 OFFCURVE",
"427 367 OFFCURVE",
"423 282 CURVE SMOOTH",
"419 197 OFFCURVE",
"402 107 OFFCURVE",
"377 30 CURVE",
"371 9 OFFCURVE",
"374 -1 OFFCURVE",
"386 -1 CURVE",
"435 46 OFFCURVE",
"483 91 OFFCURVE",
"531 133 CURVE SMOOTH",
"579 174 OFFCURVE",
"622 216 OFFCURVE",
"661 257 CURVE SMOOTH",
"737 339 OFFCURVE",
"789 423 OFFCURVE",
"789 526 CURVE SMOOTH"
);
}
);
width = 694;
}
);
note = V;
unicode = 0056;
},
{
glyphname = W;
lastChange = "2017-06-04 12:09:41 +0000";
layers = (
{
layerId = "1178E776-45A7-4003-9263-224E9F7E8A45";
paths = (
{
closed = 1;
nodes = (
"576 30 OFFCURVE",
"576 26 OFFCURVE",
"575 22 CURVE SMOOTH",
"574 18 OFFCURVE",
"573 14 OFFCURVE",
"573 11 CURVE SMOOTH",
"573 4 OFFCURVE",
"574 0 OFFCURVE",
"581 0 CURVE SMOOTH",
"592 0 OFFCURVE",
"599 10 OFFCURVE",
"610 26 CURVE",
"650 94 OFFCURVE",
"704 150 OFFCURVE",
"757 202 CURVE SMOOTH",
"810 254 OFFCURVE",
"864 303 OFFCURVE",
"904 359 CURVE SMOOTH",
"944 414 OFFCURVE",
"971 476 OFFCURVE",
"971 553 CURVE SMOOTH",
"971 604 OFFCURVE",
"949 643 OFFCURVE",
"905 643 CURVE SMOOTH",
"878 643 OFFCURVE",
"848 607 OFFCURVE",
"833 567 CURVE",
"833 560 OFFCURVE",
"838 557 OFFCURVE",
"842 560 CURVE",
"853 580 OFFCURVE",
"863 599 OFFCURVE",
"879 599 CURVE SMOOTH",
"902 599 OFFCURVE",
"915 572 OFFCURVE",
"915 528 CURVE SMOOTH",
"915 461 OFFCURVE",
"894 406 OFFCURVE",
"863 356 CURVE SMOOTH",
"831 306 OFFCURVE",
"790 262 OFFCURVE",
"747 218 CURVE SMOOTH",
"704 174 OFFCURVE",
"661 131 OFFCURVE",
"628 83 CURVE",
"631 106 OFFCURVE",
"631 132 OFFCURVE",
"630 160 CURVE SMOOTH",
"627 216 OFFCURVE",
"621 276 OFFCURVE",
"616 336 CURVE SMOOTH",
"611 395 OFFCURVE",
"611 450 OFFCURVE",
"620 495 CURVE SMOOTH",
"628 539 OFFCURVE",
"650 563 OFFCURVE",
"671 572 CURVE",
"676 580 OFFCURVE",
"671 599 OFFCURVE",
"664 596 CURVE",
"608 544 OFFCURVE",
"553 473 OFFCURVE",
"503 397 CURVE SMOOTH",
"453 321 OFFCURVE",
"408 239 OFFCURVE",
"372 163 CURVE",
"417 294 OFFCURVE",
"434 415 OFFCURVE",
"419 504 CURVE SMOOTH",
"403 592 OFFCURVE",
"357 648 OFFCURVE",
"274 648 CURVE SMOOTH",
"210 648 OFFCURVE",
"158 620 OFFCURVE",
"123 576 CURVE SMOOTH",
"88 532 OFFCURVE",
"68 472 OFFCURVE",
"71 408 CURVE",
"71 401 OFFCURVE",
"79 403 OFFCURVE",
"82 411 CURVE",
"82 462 OFFCURVE",
"96 509 OFFCURVE",
"122 545 CURVE SMOOTH",
"148 580 OFFCURVE",
"185 603 OFFCURVE",
"236 603 CURVE SMOOTH",
"288 603 OFFCURVE",
"326 571 OFFCURVE",
"350 518 CURVE SMOOTH",
"373 465 OFFCURVE",
"381 391 OFFCURVE",
"374 307 CURVE SMOOTH",
"367 223 OFFCURVE",
"344 127 OFFCURVE",
"307 34 CURVE SMOOTH",
"302 21 OFFCURVE",
"300 13 OFFCURVE",
"302 8 CURVE",
"303 3 OFFCURVE",
"307 0 OFFCURVE",
"312 0 CURVE SMOOTH",
"318 0 OFFCURVE",
"323 5 OFFCURVE",
"326 16 CURVE SMOOTH",
"329 27 OFFCURVE",
"335 44 OFFCURVE",
"345 67 CURVE SMOOTH",
"382 152 OFFCURVE",
"417 224 OFFCURVE",
"454 289 CURVE SMOOTH",
"491 354 OFFCURVE",
"530 413 OFFCURVE",
"575 476 CURVE",
"564 457 OFFCURVE",
"559 430 OFFCURVE",
"559 397 CURVE SMOOTH",
"559 329 OFFCURVE",
"567 245 OFFCURVE",
"575 158 CURVE SMOOTH",
"578 114 OFFCURVE",
"579 73 OFFCURVE",
"576 34 CURVE"
);
}
);
width = 845;
}
);
note = W;
unicode = 0057;
},
{
glyphname = X;
lastChange = "2017-06-04 12:09:41 +0000";
layers = (
{
layerId = "1178E776-45A7-4003-9263-224E9F7E8A45";
paths = (
{
closed = 1;
nodes = (
"754 644 OFFCURVE",
"696 617 OFFCURVE",
"641 570 CURVE SMOOTH",
"586 522 OFFCURVE",
"537 456 OFFCURVE",
"500 377 CURVE",
"493 410 OFFCURVE",
"488 442 OFFCURVE",
"485 474 CURVE SMOOTH",
"482 506 OFFCURVE",
"478 535 OFFCURVE",
"473 560 CURVE SMOOTH",
"463 610 OFFCURVE",
"448 644 OFFCURVE",
"413 644 CURVE SMOOTH",
"397 644 OFFCURVE",
"376 629 OFFCURVE",
"355 606 CURVE SMOOTH",
"334 582 OFFCURVE",
"313 552 OFFCURVE",
"298 520 CURVE",
"297 511 OFFCURVE",
"303 506 OFFCURVE",
"310 513 CURVE",
"329 550 OFFCURVE",
"354 584 OFFCURVE",
"381 584 CURVE SMOOTH",
"392 584 OFFCURVE",
"401 578 OFFCURVE",
"407 565 CURVE SMOOTH",
"419 540 OFFCURVE",
"428 492 OFFCURVE",
"438 424 CURVE SMOOTH",
"443 390 OFFCURVE",
"450 351 OFFCURVE",
"459 308 CURVE",
"418 229 OFFCURVE",
"374 166 OFFCURVE",
"327 122 CURVE SMOOTH",
"280 78 OFFCURVE",
"229 54 OFFCURVE",
"173 54 CURVE SMOOTH",
"126 54 OFFCURVE",
"102 72 OFFCURVE",
"98 103 CURVE SMOOTH",
"94 131 OFFCURVE",
"101 158 OFFCURVE",
"122 189 CURVE",
"125 197 OFFCURVE",
"115 201 OFFCURVE",
"111 196 CURVE SMOOTH",
"92 173 OFFCURVE",
"78 145 OFFCURVE",
"67 120 CURVE SMOOTH",
"56 95 OFFCURVE",
"50 71 OFFCURVE",
"50 58 CURVE SMOOTH",
"50 23 OFFCURVE",
"80 0 OFFCURVE",
"131 0 CURVE SMOOTH",
"246 0 OFFCURVE",
"364 95 OFFCURVE",
"464 284 CURVE",
"481 207 OFFCURVE",
"510 136 OFFCURVE",
"550 84 CURVE SMOOTH",
"589 32 OFFCURVE",
"637 0 OFFCURVE",
"694 0 CURVE SMOOTH",
"741 0 OFFCURVE",
"774 26 OFFCURVE",
"810 106 CURVE",
"810 115 OFFCURVE",
"804 119 OFFCURVE",
"800 115 CURVE",
"784 76 OFFCURVE",
"759 52 OFFCURVE",
"720 52 CURVE SMOOTH",
"668 52 OFFCURVE",
"626 81 OFFCURVE",
"591 133 CURVE SMOOTH",
"555 185 OFFCURVE",
"526 261 OFFCURVE",
"505 354 CURVE",
"540 422 OFFCURVE",
"582 480 OFFCURVE",
"627 521 CURVE SMOOTH",
"671 561 OFFCURVE",
"719 585 OFFCURVE",
"764 585 CURVE SMOOTH",
"800 585 OFFCURVE",
"813 567 OFFCURVE",
"813 532 CURVE SMOOTH",
"813 517 OFFCURVE",
"810 502 OFFCURVE",
"803 486 CURVE",
"803 479 OFFCURVE",
"809 475 OFFCURVE",
"814 479 CURVE",
"835 510 OFFCURVE",
"851 558 OFFCURVE",
"851 590 CURVE SMOOTH",
"851 626 OFFCURVE",
"836 644 OFFCURVE",
"813 644 CURVE SMOOTH"
);
}
);
width = 813;
}
);
note = X;
unicode = 0058;
},
{
glyphname = Y;
lastChange = "2017-06-04 12:09:41 +0000";
layers = (
{
layerId = "1178E776-45A7-4003-9263-224E9F7E8A45";
paths = (
{
closed = 1;
nodes = (
"419 644 OFFCURVE",
"393 634 OFFCURVE",
"370 618 CURVE SMOOTH",
"347 602 OFFCURVE",
"327 580 OFFCURVE",
"315 559 CURVE",
"314 552 OFFCURVE",
"320 547 OFFCURVE",
"325 551 CURVE",
"340 575 OFFCURVE",
"369 604 OFFCURVE",
"400 604 CURVE SMOOTH",
"416 604 OFFCURVE",
"427 599 OFFCURVE",
"428 576 CURVE",
"429 565 OFFCURVE",
"427 549 OFFCURVE",
"423 529 CURVE",
"418 508 OFFCURVE",
"411 481 OFFCURVE",
"400 448 CURVE SMOOTH",
"379 380 OFFCURVE",
"354 305 OFFCURVE",
"343 232 CURVE SMOOTH",
"335 169 OFFCURVE",
"363 134 OFFCURVE",
"427 134 CURVE SMOOTH",
"476 134 OFFCURVE",
"528 157 OFFCURVE",
"577 197 CURVE SMOOTH",
"625 236 OFFCURVE",
"671 290 OFFCURVE",
"708 351 CURVE",
"625 183 OFFCURVE",
"552 72 OFFCURVE",
"479 4 CURVE SMOOTH",
"406 -65 OFFCURVE",
"330 -92 OFFCURVE",
"245 -92 CURVE SMOOTH",
"129 -92 OFFCURVE",
"66 -30 OFFCURVE",
"66 71 CURVE SMOOTH",
"66 115 OFFCURVE",
"78 155 OFFCURVE",
"106 186 CURVE SMOOTH",
"134 217 OFFCURVE",
"177 237 OFFCURVE",
"238 245 CURVE",
"245 252 OFFCURVE",
"246 258 OFFCURVE",
"239 259 CURVE",
"164 251 OFFCURVE",
"107 223 OFFCURVE",
"68 184 CURVE SMOOTH",
"28 144 OFFCURVE",
"7 95 OFFCURVE",
"7 44 CURVE SMOOTH",
"7 -57 OFFCURVE",
"78 -128 OFFCURVE",
"203 -128 CURVE SMOOTH",
"322 -128 OFFCURVE",
"430 -84 OFFCURVE",
"543 33 CURVE SMOOTH",
"656 150 OFFCURVE",
"775 341 OFFCURVE",
"912 634 CURVE",
"913 641 OFFCURVE",
"910 644 OFFCURVE",
"902 644 CURVE SMOOTH",
"885 644 OFFCURVE",
"864 641 OFFCURVE",
"849 628 CURVE",
"774 477 OFFCURVE",
"705 364 OFFCURVE",
"642 287 CURVE SMOOTH",
"579 210 OFFCURVE",
"519 171 OFFCURVE",
"461 171 CURVE SMOOTH",
"435 171 OFFCURVE",
"418 178 OFFCURVE",
"410 193 CURVE SMOOTH",
"394 222 OFFCURVE",
"407 292 OFFCURVE",
"428 358 CURVE SMOOTH",
"439 391 OFFCURVE",
"451 428 OFFCURVE",
"464 469 CURVE SMOOTH",
"485 534 OFFCURVE",
"491 578 OFFCURVE",
"487 606 CURVE SMOOTH",
"483 633 OFFCURVE",
"467 644 OFFCURVE",
"444 644 CURVE SMOOTH"
);
}
);
width = 700;
}
);
note = Y;
unicode = 0059;
},
{
glyphname = Yacute;
lastChange = "2017-06-04 12:09:41 +0000";
layers = (
{
layerId = "1178E776-45A7-4003-9263-224E9F7E8A45";
paths = (
{
closed = 1;
nodes = (
"672 707 OFFCURVE",
"637 685 OFFCURVE",
"610 669 CURVE",
"608 667 OFFCURVE",
"607 665 OFFCURVE",
"607 662 CURVE SMOOTH",
"607 659 OFFCURVE",
"608 658 OFFCURVE",
"611 658 CURVE",
"631 665 OFFCURVE",
"657 675 OFFCURVE",
"681 685 CURVE SMOOTH",
"704 695 OFFCURVE",
"726 706 OFFCURVE",
"739 715 CURVE",
"743 718 OFFCURVE",
"741 721 OFFCURVE",
"738 724 CURVE",
"726 729 OFFCURVE",
"704 738 OFFCURVE",
"697 734 CURVE"
);
},
{
closed = 1;
nodes = (
"419 644 OFFCURVE",
"393 634 OFFCURVE",
"370 618 CURVE SMOOTH",
"347 602 OFFCURVE",
"327 580 OFFCURVE",
"315 559 CURVE",
"314 552 OFFCURVE",
"320 547 OFFCURVE",
"325 551 CURVE",
"340 575 OFFCURVE",
"369 604 OFFCURVE",
"400 604 CURVE SMOOTH",
"416 604 OFFCURVE",
"427 599 OFFCURVE",
"428 576 CURVE",
"429 565 OFFCURVE",
"427 549 OFFCURVE",
"423 529 CURVE",
"418 508 OFFCURVE",
"411 481 OFFCURVE",
"400 448 CURVE SMOOTH",
"379 380 OFFCURVE",
"354 305 OFFCURVE",
"343 232 CURVE SMOOTH",
"335 169 OFFCURVE",
"363 134 OFFCURVE",
"427 134 CURVE SMOOTH",
"476 134 OFFCURVE",
"528 157 OFFCURVE",
"577 197 CURVE SMOOTH",
"625 236 OFFCURVE",
"671 290 OFFCURVE",
"708 351 CURVE",
"625 183 OFFCURVE",
"552 72 OFFCURVE",
"479 4 CURVE SMOOTH",
"406 -65 OFFCURVE",
"330 -92 OFFCURVE",
"245 -92 CURVE SMOOTH",
"129 -92 OFFCURVE",
"66 -30 OFFCURVE",
"66 71 CURVE SMOOTH",
"66 115 OFFCURVE",
"78 155 OFFCURVE",
"106 186 CURVE SMOOTH",
"134 217 OFFCURVE",
"177 237 OFFCURVE",
"238 245 CURVE",
"245 252 OFFCURVE",
"246 258 OFFCURVE",
"239 259 CURVE",
"164 251 OFFCURVE",
"107 223 OFFCURVE",
"68 184 CURVE SMOOTH",
"28 144 OFFCURVE",
"7 95 OFFCURVE",
"7 44 CURVE SMOOTH",
"7 -57 OFFCURVE",
"78 -128 OFFCURVE",
"203 -128 CURVE SMOOTH",
"322 -128 OFFCURVE",
"430 -84 OFFCURVE",
"543 33 CURVE SMOOTH",
"656 150 OFFCURVE",
"775 341 OFFCURVE",
"912 634 CURVE",
"913 641 OFFCURVE",
"910 644 OFFCURVE",
"902 644 CURVE SMOOTH",
"885 644 OFFCURVE",
"864 641 OFFCURVE",
"849 628 CURVE",
"774 477 OFFCURVE",
"705 364 OFFCURVE",
"642 287 CURVE SMOOTH",
"579 210 OFFCURVE",
"519 171 OFFCURVE",
"461 171 CURVE SMOOTH",
"435 171 OFFCURVE",
"418 178 OFFCURVE",
"410 193 CURVE SMOOTH",
"394 222 OFFCURVE",
"407 292 OFFCURVE",
"428 358 CURVE SMOOTH",
"439 391 OFFCURVE",
"451 428 OFFCURVE",
"464 469 CURVE SMOOTH",
"485 534 OFFCURVE",
"491 578 OFFCURVE",
"487 606 CURVE SMOOTH",
"483 633 OFFCURVE",
"467 644 OFFCURVE",
"444 644 CURVE SMOOTH"
);
}
);
width = 700;
}
);
note = Yacute;
unicode = 00DD;
},
{
glyphname = Ydieresis;
lastChange = "2017-06-04 12:09:41 +0000";
layers = (
{
layerId = "1178E776-45A7-4003-9263-224E9F7E8A45";
paths = (
{
closed = 1;
nodes = (
"638 667 OFFCURVE",
"653 689 OFFCURVE",
"653 708 CURVE SMOOTH",
"653 717 OFFCURVE",
"650 721 OFFCURVE",
"644 721 CURVE SMOOTH",
"623 721 OFFCURVE",
"608 697 OFFCURVE",
"608 684 CURVE SMOOTH",
"608 673 OFFCURVE",
"612 667 OFFCURVE",
"619 667 CURVE SMOOTH"
);
},
{
closed = 1;
nodes = (
"712 667 OFFCURVE",
"728 689 OFFCURVE",
"728 708 CURVE SMOOTH",
"728 717 OFFCURVE",
"725 721 OFFCURVE",
"719 721 CURVE SMOOTH",
"699 721 OFFCURVE",
"684 697 OFFCURVE",
"684 684 CURVE SMOOTH",
"684 673 OFFCURVE",
"688 667 OFFCURVE",
"696 667 CURVE SMOOTH"
);
},
{
closed = 1;
nodes = (
"419 644 OFFCURVE",
"393 634 OFFCURVE",
"370 618 CURVE SMOOTH",
"347 602 OFFCURVE",
"327 580 OFFCURVE",
"315 559 CURVE",
"314 552 OFFCURVE",
"320 547 OFFCURVE",
"325 551 CURVE",
"340 575 OFFCURVE",
"369 604 OFFCURVE",
"400 604 CURVE SMOOTH",
"416 604 OFFCURVE",
"427 599 OFFCURVE",
"428 576 CURVE",
"429 565 OFFCURVE",
"427 549 OFFCURVE",
"423 529 CURVE",
"418 508 OFFCURVE",
"411 481 OFFCURVE",
"400 448 CURVE SMOOTH",
"379 380 OFFCURVE",
"354 305 OFFCURVE",
"343 232 CURVE SMOOTH",
"335 169 OFFCURVE",
"363 134 OFFCURVE",
"427 134 CURVE SMOOTH",
"476 134 OFFCURVE",
"528 157 OFFCURVE",
"577 197 CURVE SMOOTH",
"625 236 OFFCURVE",
"671 290 OFFCURVE",
"708 351 CURVE",
"625 183 OFFCURVE",
"552 72 OFFCURVE",
"479 4 CURVE SMOOTH",
"406 -65 OFFCURVE",
"330 -92 OFFCURVE",
"245 -92 CURVE SMOOTH",
"129 -92 OFFCURVE",
"66 -30 OFFCURVE",
"66 71 CURVE SMOOTH",
"66 115 OFFCURVE",
"78 155 OFFCURVE",
"106 186 CURVE SMOOTH",
"134 217 OFFCURVE",
"177 237 OFFCURVE",
"238 245 CURVE",
"245 252 OFFCURVE",
"246 258 OFFCURVE",
"239 259 CURVE",
"164 251 OFFCURVE",
"107 223 OFFCURVE",
"68 184 CURVE SMOOTH",
"28 144 OFFCURVE",
"7 95 OFFCURVE",
"7 44 CURVE SMOOTH",
"7 -57 OFFCURVE",
"78 -128 OFFCURVE",
"203 -128 CURVE SMOOTH",
"322 -128 OFFCURVE",
"430 -84 OFFCURVE",
"543 33 CURVE SMOOTH",
"656 150 OFFCURVE",
"775 341 OFFCURVE",
"912 634 CURVE",
"913 641 OFFCURVE",
"910 644 OFFCURVE",
"902 644 CURVE SMOOTH",
"885 644 OFFCURVE",
"864 641 OFFCURVE",
"849 628 CURVE",
"774 477 OFFCURVE",
"705 364 OFFCURVE",
"642 287 CURVE SMOOTH",
"579 210 OFFCURVE",
"519 171 OFFCURVE",
"461 171 CURVE SMOOTH",
"435 171 OFFCURVE",
"418 178 OFFCURVE",
"410 193 CURVE SMOOTH",
"394 222 OFFCURVE",
"407 292 OFFCURVE",
"428 358 CURVE SMOOTH",
"439 391 OFFCURVE",
"451 428 OFFCURVE",
"464 469 CURVE SMOOTH",
"485 534 OFFCURVE",
"491 578 OFFCURVE",
"487 606 CURVE SMOOTH",
"483 633 OFFCURVE",
"467 644 OFFCURVE",
"444 644 CURVE SMOOTH"
);
}
);
width = 700;
}
);
note = Ydieresis;
unicode = 0178;
},
{
glyphname = Z;
lastChange = "2017-06-04 12:09:41 +0000";
layers = (
{
layerId = "1178E776-45A7-4003-9263-224E9F7E8A45";
paths = (
{
closed = 1;
nodes = (
"379 644 OFFCURVE",
"339 627 OFFCURVE",
"311 596 CURVE SMOOTH",
"283 565 OFFCURVE",
"266 522 OFFCURVE",
"257 471 CURVE",
"258 464 OFFCURVE",
"266 461 OFFCURVE",
"270 468 CURVE",
"283 548 OFFCURVE",
"317 590 OFFCURVE",
"397 590 CURVE SMOOTH",
"473 590 OFFCURVE",
"549 567 OFFCURVE",
"612 546 CURVE",
"507 447 OFFCURVE",
"423 369 OFFCURVE",
"338 287 CURVE SMOOTH",
"253 205 OFFCURVE",
"165 121 OFFCURVE",
"52 14 CURVE",
"48 7 OFFCURVE",
"63 -3 OFFCURVE",
"71 0 CURVE",
"90 19 OFFCURVE",
"106 31 OFFCURVE",
"120 36 CURVE SMOOTH",
"148 45 OFFCURVE",
"189 30 OFFCURVE",
"220 20 CURVE SMOOTH",
"235 15 OFFCURVE",
"251 10 OFFCURVE",
"268 6 CURVE SMOOTH",
"300 -2 OFFCURVE",
"338 -7 OFFCURVE",
"386 -7 CURVE SMOOTH",
"446 -7 OFFCURVE",
"493 6 OFFCURVE",
"530 34 CURVE SMOOTH",
"566 62 OFFCURVE",
"594 103 OFFCURVE",
"621 159 CURVE",
"624 166 OFFCURVE",
"613 171 OFFCURVE",
"609 168 CURVE",
"576 91 OFFCURVE",
"529 52 OFFCURVE",
"437 52 CURVE SMOOTH",
"362 52 OFFCURVE",
"309 64 OFFCURVE",
"268 76 CURVE SMOOTH",
"227 87 OFFCURVE",
"196 98 OFFCURVE",
"164 95 CURVE",
"209 138 OFFCURVE",
"255 181 OFFCURVE",
"302 226 CURVE SMOOTH",
"397 315 OFFCURVE",
"491 405 OFFCURVE",
"583 490 CURVE SMOOTH",
"628 532 OFFCURVE",
"672 573 OFFCURVE",
"714 612 CURVE",
"716 617 OFFCURVE",
"714 619 OFFCURVE",
"708 619 CURVE SMOOTH",
"695 619 OFFCURVE",
"687 617 OFFCURVE",
"684 614 CURVE",
"665 598 OFFCURVE",
"654 598 OFFCURVE",
"621 609 CURVE SMOOTH",
"553 630 OFFCURVE",
"503 644 OFFCURVE",
"436 644 CURVE SMOOTH"
);
}
);
width = 625;
}
);
note = Z;
unicode = 005A;
},
{
glyphname = Zcaron;
lastChange = "2017-06-04 12:09:41 +0000";
layers = (
{
layerId = "1178E776-45A7-4003-9263-224E9F7E8A45";
paths = (
{
closed = 1;
nodes = (
"522 698 OFFCURVE",
"564 725 OFFCURVE",
"587 738 CURVE",
"590 743 OFFCURVE",
"589 748 OFFCURVE",
"582 748 CURVE",
"577 745 OFFCURVE",
"572 742 OFFCURVE",
"565 739 CURVE",
"558 735 OFFCURVE",
"551 731 OFFCURVE",
"544 727 CURVE",
"530 718 OFFCURVE",
"515 709 OFFCURVE",
"507 702 CURVE",
"487 719 OFFCURVE",
"466 735 OFFCURVE",
"442 746 CURVE",
"433 747 OFFCURVE",
"426 746 OFFCURVE",
"420 743 CURVE SMOOTH",
"414 740 OFFCURVE",
"413 736 OFFCURVE",
"416 733 CURVE",
"441 722 OFFCURVE",
"472 695 OFFCURVE",
"489 672 CURVE",
"493 669 OFFCURVE",
"497 668 OFFCURVE",
"501 671 CURVE"
);
},
{
closed = 1;
nodes = (
"346 644 OFFCURVE",
"306 627 OFFCURVE",
"278 596 CURVE SMOOTH",
"250 565 OFFCURVE",
"233 522 OFFCURVE",
"224 471 CURVE",
"225 464 OFFCURVE",
"233 461 OFFCURVE",
"237 468 CURVE",
"250 548 OFFCURVE",
"284 590 OFFCURVE",
"364 590 CURVE SMOOTH",
"440 590 OFFCURVE",
"516 567 OFFCURVE",
"579 546 CURVE",
"474 447 OFFCURVE",
"390 369 OFFCURVE",
"305 287 CURVE SMOOTH",
"220 205 OFFCURVE",
"132 121 OFFCURVE",
"19 14 CURVE",
"15 7 OFFCURVE",
"30 -3 OFFCURVE",
"38 0 CURVE",
"57 19 OFFCURVE",
"73 31 OFFCURVE",
"87 36 CURVE SMOOTH",
"115 45 OFFCURVE",
"156 30 OFFCURVE",
"187 20 CURVE SMOOTH",
"202 15 OFFCURVE",
"218 10 OFFCURVE",
"235 6 CURVE SMOOTH",
"267 -2 OFFCURVE",
"305 -7 OFFCURVE",
"353 -7 CURVE SMOOTH",
"413 -7 OFFCURVE",
"460 6 OFFCURVE",
"497 34 CURVE SMOOTH",
"533 62 OFFCURVE",
"561 103 OFFCURVE",
"588 159 CURVE",
"591 166 OFFCURVE",
"580 171 OFFCURVE",
"576 168 CURVE",
"543 91 OFFCURVE",
"496 52 OFFCURVE",
"404 52 CURVE SMOOTH",
"329 52 OFFCURVE",
"276 64 OFFCURVE",
"235 76 CURVE SMOOTH",
"194 87 OFFCURVE",
"163 98 OFFCURVE",
"131 95 CURVE",
"176 138 OFFCURVE",
"222 181 OFFCURVE",
"269 226 CURVE SMOOTH",
"364 315 OFFCURVE",
"458 405 OFFCURVE",
"550 490 CURVE SMOOTH",
"595 532 OFFCURVE",
"639 573 OFFCURVE",
"681 612 CURVE",
"683 617 OFFCURVE",
"681 619 OFFCURVE",
"675 619 CURVE SMOOTH",
"662 619 OFFCURVE",
"654 617 OFFCURVE",
"651 614 CURVE",
"632 598 OFFCURVE",
"621 598 OFFCURVE",
"588 609 CURVE SMOOTH",
"520 630 OFFCURVE",
"470 644 OFFCURVE",
"403 644 CURVE SMOOTH"
);
}
);
width = 592;
}
);
note = Zcaron;
unicode = 017D;
},
{
glyphname = a;
lastChange = "2017-06-04 12:09:41 +0000";
layers = (
{
layerId = "1178E776-45A7-4003-9263-224E9F7E8A45";
paths = (
{
closed = 1;
nodes = (
"290 46 OFFCURVE",
"279 36 OFFCURVE",
"271 35 CURVE",
"263 33 OFFCURVE",
"257 34 OFFCURVE",
"254 38 CURVE",
"246 50 OFFCURVE",
"249 85 OFFCURVE",
"261 126 CURVE SMOOTH",
"273 166 OFFCURVE",
"295 214 OFFCURVE",
"326 251 CURVE",
"326 254 OFFCURVE",
"325 256 OFFCURVE",
"322 256 CURVE SMOOTH",
"306 256 OFFCURVE",
"282 248 OFFCURVE",
"269 239 CURVE",
"256 250 OFFCURVE",
"237 256 OFFCURVE",
"214 256 CURVE SMOOTH",
"170 256 OFFCURVE",
"125 232 OFFCURVE",
"90 197 CURVE SMOOTH",
"54 162 OFFCURVE",
"31 117 OFFCURVE",
"31 73 CURVE SMOOTH",
"31 34 OFFCURVE",
"49 0 OFFCURVE",
"81 0 CURVE",
"128 8 OFFCURVE",
"170 53 OFFCURVE",
"206 110 CURVE",
"197 80 OFFCURVE",
"195 54 OFFCURVE",
"200 33 CURVE",
"204 11 OFFCURVE",
"214 0 OFFCURVE",
"229 0 CURVE SMOOTH",
"256 0 OFFCURVE",
"287 22 OFFCURVE",
"311 57 CURVE",
"312 62 OFFCURVE",
"307 66 OFFCURVE",
"304 63 CURVE"
);
},
{
closed = 1;
nodes = (
"99 37 OFFCURVE",
"87 56 OFFCURVE",
"87 85 CURVE SMOOTH",
"87 130 OFFCURVE",
"99 169 OFFCURVE",
"119 197 CURVE SMOOTH",
"138 224 OFFCURVE",
"165 240 OFFCURVE",
"196 240 CURVE SMOOTH",
"221 240 OFFCURVE",
"243 228 OFFCURVE",
"248 211 CURVE",
"229 168 OFFCURVE",
"203 125 OFFCURVE",
"178 92 CURVE SMOOTH",
"153 59 OFFCURVE",
"128 37 OFFCURVE",
"112 37 CURVE SMOOTH"
);
}
);
width = 327;
}
);
note = a;
unicode = 0061;
},
{
glyphname = acute;
lastChange = "2017-06-04 12:09:41 +0000";
layers = (
{
layerId = "1178E776-45A7-4003-9263-224E9F7E8A45";
paths = (
{
closed = 1;
nodes = (
"69 360 OFFCURVE",
"42 337 OFFCURVE",
"23 325 CURVE",
"21 323 OFFCURVE",
"20 321 OFFCURVE",
"20 318 CURVE SMOOTH",
"20 315 OFFCURVE",
"21 314 OFFCURVE",
"24 314 CURVE",
"41 319 OFFCURVE",
"64 327 OFFCURVE",
"85 335 CURVE SMOOTH",
"106 343 OFFCURVE",
"127 352 OFFCURVE",
"140 361 CURVE",
"143 364 OFFCURVE",
"142 369 OFFCURVE",
"138 370 CURVE",
"119 378 OFFCURVE",
"97 388 OFFCURVE",
"88 383 CURVE"
);
}
);
width = 157;
}
);
note = acute;
unicode = 00B4;
},
{
glyphname = ae;
lastChange = "2017-06-04 12:09:41 +0000";
layers = (
{
layerId = "1178E776-45A7-4003-9263-224E9F7E8A45";
paths = (
{
closed = 1;
nodes = (
"419 230 OFFCURVE",
"395 256 OFFCURVE",
"360 256 CURVE SMOOTH",
"341 256 OFFCURVE",
"322 249 OFFCURVE",
"304 235 CURVE",
"311 244 OFFCURVE",
"318 254 OFFCURVE",
"326 263 CURVE",
"327 266 OFFCURVE",
"326 268 OFFCURVE",
"321 268 CURVE SMOOTH",
"305 268 OFFCURVE",
"281 250 OFFCURVE",
"269 239 CURVE",
"254 250 OFFCURVE",
"238 256 OFFCURVE",
"214 256 CURVE SMOOTH",
"170 256 OFFCURVE",
"125 232 OFFCURVE",
"90 197 CURVE SMOOTH",
"54 162 OFFCURVE",
"31 117 OFFCURVE",
"31 73 CURVE SMOOTH",
"31 34 OFFCURVE",
"49 0 OFFCURVE",
"80 0 CURVE",
"136 7 OFFCURVE",
"182 66 OFFCURVE",
"229 142 CURVE",
"218 116 OFFCURVE",
"212 91 OFFCURVE",
"212 67 CURVE SMOOTH",
"212 24 OFFCURVE",
"231 0 OFFCURVE",
"278 0 CURVE SMOOTH",
"325 0 OFFCURVE",
"367 28 OFFCURVE",
"394 63 CURVE",
"397 68 OFFCURVE",
"393 75 OFFCURVE",
"388 72 CURVE",
"371 49 OFFCURVE",
"341 33 OFFCURVE",
"316 33 CURVE SMOOTH",
"281 33 OFFCURVE",
"267 53 OFFCURVE",
"267 86 CURVE SMOOTH",
"267 93 OFFCURVE",
"267 101 OFFCURVE",
"267 108 CURVE SMOOTH",
"267 115 OFFCURVE",
"267 121 OFFCURVE",
"268 127 CURVE",
"369 142 OFFCURVE",
"419 168 OFFCURVE",
"419 206 CURVE SMOOTH"
);
},
{
closed = 1;
nodes = (
"364 181 OFFCURVE",
"356 170 OFFCURVE",
"341 161 CURVE SMOOTH",
"326 152 OFFCURVE",
"302 145 OFFCURVE",
"270 142 CURVE",
"279 202 OFFCURVE",
"301 230 OFFCURVE",
"332 230 CURVE SMOOTH",
"351 230 OFFCURVE",
"364 214 OFFCURVE",
"364 194 CURVE SMOOTH"
);
},
{
closed = 1;
nodes = (
"99 37 OFFCURVE",
"87 56 OFFCURVE",
"87 85 CURVE SMOOTH",
"87 130 OFFCURVE",
"99 169 OFFCURVE",
"119 197 CURVE SMOOTH",
"138 224 OFFCURVE",
"165 240 OFFCURVE",
"196 240 CURVE SMOOTH",
"221 240 OFFCURVE",
"243 228 OFFCURVE",
"248 211 CURVE",
"229 168 OFFCURVE",
"204 125 OFFCURVE",
"178 92 CURVE SMOOTH",
"152 59 OFFCURVE",
"127 37 OFFCURVE",
"112 37 CURVE SMOOTH"
);
}
);
width = 419;
}
);
note = ae;
unicode = 00E6;
},
{
glyphname = ampersand;
lastChange = "2017-06-04 12:09:41 +0000";
layers = (
{
layerId = "1178E776-45A7-4003-9263-224E9F7E8A45";
paths = (
{
closed = 1;
nodes = (
"447 256 OFFCURVE",
"431 251 OFFCURVE",
"417 241 CURVE SMOOTH",
"388 221 OFFCURVE",
"363 188 OFFCURVE",
"339 152 CURVE SMOOTH",
"327 133 OFFCURVE",
"314 116 OFFCURVE",
"301 99 CURVE",
"258 142 OFFCURVE",
"228 201 OFFCURVE",
"213 265 CURVE",
"242 282 OFFCURVE",
"273 300 OFFCURVE",
"295 324 CURVE SMOOTH",
"317 347 OFFCURVE",
"331 374 OFFCURVE",
"331 413 CURVE SMOOTH",
"331 449 OFFCURVE",
"312 475 OFFCURVE",
"272 475 CURVE SMOOTH",
"243 475 OFFCURVE",
"214 457 OFFCURVE",
"194 431 CURVE SMOOTH",
"173 405 OFFCURVE",
"160 369 OFFCURVE",
"160 337 CURVE SMOOTH",
"160 312 OFFCURVE",
"163 284 OFFCURVE",
"168 256 CURVE",
"150 247 OFFCURVE",
"132 238 OFFCURVE",
"115 229 CURVE SMOOTH",
"97 220 OFFCURVE",
"81 210 OFFCURVE",
"67 199 CURVE",
"39 175 OFFCURVE",
"20 146 OFFCURVE",
"20 102 CURVE SMOOTH",
"20 38 OFFCURVE",
"67 0 OFFCURVE",
"140 0 CURVE SMOOTH",
"201 0 OFFCURVE",
"243 20 OFFCURVE",
"276 51 CURVE",
"311 19 OFFCURVE",
"354 0 OFFCURVE",
"405 0 CURVE SMOOTH",
"457 0 OFFCURVE",
"490 23 OFFCURVE",
"507 58 CURVE",
"514 70 OFFCURVE",
"502 73 OFFCURVE",
"498 66 CURVE",
"486 51 OFFCURVE",
"469 40 OFFCURVE",
"442 40 CURVE SMOOTH",
"391 40 OFFCURVE",
"347 59 OFFCURVE",
"312 90 CURVE",
"324 105 OFFCURVE",
"335 120 OFFCURVE",
"345 135 CURVE SMOOTH",
"355 150 OFFCURVE",
"366 163 OFFCURVE",
"377 175 CURVE SMOOTH",
"399 199 OFFCURVE",
"421 216 OFFCURVE",
"453 216 CURVE SMOOTH",
"478 216 OFFCURVE",
"496 206 OFFCURVE",
"507 191 CURVE SMOOTH",
"512 184 OFFCURVE",
"519 189 OFFCURVE",
"519 196 CURVE SMOOTH",
"519 227 OFFCURVE",
"499 256 OFFCURVE",
"466 256 CURVE SMOOTH"
);
},
{
closed = 1;
nodes = (
"200 427 OFFCURVE",
"215 449 OFFCURVE",
"246 449 CURVE SMOOTH",
"273 449 OFFCURVE",
"284 427 OFFCURVE",
"284 399 CURVE SMOOTH",
"284 339 OFFCURVE",
"252 306 OFFCURVE",
"209 279 CURVE",
"203 309 OFFCURVE",
"200 338 OFFCURVE",
"200 367 CURVE SMOOTH"
);
},
{
closed = 1;
nodes = (
"76 152 OFFCURVE",
"87 174 OFFCURVE",
"104 193 CURVE SMOOTH",
"121 212 OFFCURVE",
"146 227 OFFCURVE",
"171 242 CURVE",
"187 174 OFFCURVE",
"218 109 OFFCURVE",
"265 62 CURVE",
"240 42 OFFCURVE",
"212 29 OFFCURVE",
"176 29 CURVE SMOOTH",
"108 29 OFFCURVE",
"76 64 OFFCURVE",
"76 124 CURVE SMOOTH"
);
}
);
width = 524;
}
);
note = ampersand;
unicode = 0026;
},
{
glyphname = at;
lastChange = "2017-06-04 12:09:41 +0000";
layers = (
{
layerId = "1178E776-45A7-4003-9263-224E9F7E8A45";
paths = (
{
closed = 1;
nodes = (
"331 75 OFFCURVE",
"323 86 OFFCURVE",
"323 107 CURVE SMOOTH",
"323 123 OFFCURVE",
"328 148 OFFCURVE",
"339 174 CURVE SMOOTH",
"350 200 OFFCURVE",
"364 226 OFFCURVE",
"383 249 CURVE",
"384 252 OFFCURVE",
"383 253 OFFCURVE",
"380 253 CURVE SMOOTH",
"371 253 OFFCURVE",
"349 247 OFFCURVE",
"342 242 CURVE",
"330 250 OFFCURVE",
"317 255 OFFCURVE",
"297 255 CURVE SMOOTH",
"261 255 OFFCURVE",
"226 236 OFFCURVE",
"199 208 CURVE SMOOTH",
"171 180 OFFCURVE",
"153 143 OFFCURVE",
"153 107 CURVE SMOOTH",
"153 68 OFFCURVE",
"171 49 OFFCURVE",
"195 49 CURVE",
"230 56 OFFCURVE",
"262 92 OFFCURVE",
"291 137 CURVE",
"284 118 OFFCURVE",
"280 101 OFFCURVE",
"280 86 CURVE SMOOTH",
"280 56 OFFCURVE",
"292 41 OFFCURVE",
"315 41 CURVE SMOOTH",
"352 41 OFFCURVE",
"392 61 OFFCURVE",
"422 93 CURVE SMOOTH",
"452 125 OFFCURVE",
"473 168 OFFCURVE",
"473 212 CURVE SMOOTH",
"473 252 OFFCURVE",
"456 290 OFFCURVE",
"427 318 CURVE SMOOTH",
"398 346 OFFCURVE",
"357 364 OFFCURVE",
"309 364 CURVE SMOOTH",
"229 364 OFFCURVE",
"164 334 OFFCURVE",
"120 289 CURVE SMOOTH",
"75 244 OFFCURVE",
"50 181 OFFCURVE",
"50 116 CURVE SMOOTH",
"50 -8 OFFCURVE",
"125 -76 OFFCURVE",
"242 -76 CURVE SMOOTH",
"325 -76 OFFCURVE",
"392 -38 OFFCURVE",
"425 22 CURVE",
"426 29 OFFCURVE",
"422 35 OFFCURVE",
"418 31 CURVE",
"391 -16 OFFCURVE",
"346 -43 OFFCURVE",
"270 -43 CURVE SMOOTH",
"211 -43 OFFCURVE",
"167 -24 OFFCURVE",
"136 8 CURVE SMOOTH",
"105 39 OFFCURVE",
"89 83 OFFCURVE",
"89 134 CURVE SMOOTH",
"89 202 OFFCURVE",
"108 254 OFFCURVE",
"141 288 CURVE SMOOTH",
"174 322 OFFCURVE",
"220 339 OFFCURVE",
"276 339 CURVE SMOOTH",
"331 339 OFFCURVE",
"371 322 OFFCURVE",
"399 295 CURVE",
"426 267 OFFCURVE",
"440 230 OFFCURVE",
"440 191 CURVE SMOOTH",
"440 115 OFFCURVE",
"400 75 OFFCURVE",
"347 75 CURVE SMOOTH"
);
},
{
closed = 1;
nodes = (
"206 81 OFFCURVE",
"197 98 OFFCURVE",
"197 121 CURVE SMOOTH",
"197 157 OFFCURVE",
"207 186 OFFCURVE",
"223 207 CURVE SMOOTH",
"239 227 OFFCURVE",
"261 239 OFFCURVE",
"282 239 CURVE SMOOTH",
"302 239 OFFCURVE",
"315 228 OFFCURVE",
"320 213 CURVE",
"305 181 OFFCURVE",
"286 148 OFFCURVE",
"267 124 CURVE SMOOTH",
"248 99 OFFCURVE",
"229 81 OFFCURVE",
"217 81 CURVE SMOOTH"
);
}
);
width = 513;
}
);
note = at;
unicode = 0040;
},
{
glyphname = b;
lastChange = "2017-06-04 12:09:41 +0000";
layers = (
{
layerId = "1178E776-45A7-4003-9263-224E9F7E8A45";
paths = (
{
closed = 1;
nodes = (
"401 756 OFFCURVE",
"285 623 OFFCURVE",
"172 379 CURVE SMOOTH",
"144 318 OFFCURVE",
"118 253 OFFCURVE",
"101 195 CURVE SMOOTH",
"84 137 OFFCURVE",
"73 83 OFFCURVE",
"73 46 CURVE SMOOTH",
"73 17 OFFCURVE",
"85 0 OFFCURVE",
"118 0 CURVE SMOOTH",
"158 0 OFFCURVE",
"206 23 OFFCURVE",
"245 59 CURVE SMOOTH",
"284 94 OFFCURVE",
"312 141 OFFCURVE",
"312 192 CURVE SMOOTH",
"312 227 OFFCURVE",
"293 256 OFFCURVE",
"265 256 CURVE SMOOTH",
"242 256 OFFCURVE",
"218 246 OFFCURVE",
"197 231 CURVE SMOOTH",
"176 216 OFFCURVE",
"158 199 OFFCURVE",
"149 184 CURVE",
"198 375 OFFCURVE",
"249 505 OFFCURVE",
"306 589 CURVE SMOOTH",
"362 672 OFFCURVE",
"425 707 OFFCURVE",
"500 707 CURVE SMOOTH",
"547 707 OFFCURVE",
"570 685 OFFCURVE",
"574 658 CURVE",
"576 655 OFFCURVE",
"579 654 OFFCURVE",
"583 657 CURVE",
"588 682 OFFCURVE",
"587 706 OFFCURVE",
"578 725 CURVE SMOOTH",
"569 744 OFFCURVE",
"551 756 OFFCURVE",
"526 756 CURVE SMOOTH"
);
},
{
closed = 1;
nodes = (
"250 223 OFFCURVE",
"263 209 OFFCURVE",
"263 170 CURVE SMOOTH",
"263 137 OFFCURVE",
"249 102 OFFCURVE",
"229 75 CURVE SMOOTH",
"208 47 OFFCURVE",
"181 29 OFFCURVE",
"156 29 CURVE SMOOTH",
"136 29 OFFCURVE",
"125 40 OFFCURVE",
"128 69 CURVE SMOOTH",
"132 120 OFFCURVE",
"147 159 OFFCURVE",
"167 185 CURVE SMOOTH",
"187 211 OFFCURVE",
"211 223 OFFCURVE",
"231 223 CURVE SMOOTH"
);
}
);
width = 319;
}
);
note = b;
unicode = 0062;
},
{
glyphname = bracketleft;
lastChange = "2017-06-04 12:09:41 +0000";
layers = (
{
layerId = "1178E776-45A7-4003-9263-224E9F7E8A45";
paths = (
{
closed = 1;
nodes = (
"201 397 OFFCURVE",
"139 149 OFFCURVE",
"79 -84 CURVE",
"79 -91 OFFCURVE",
"83 -94 OFFCURVE",
"90 -94 CURVE SMOOTH",
"127 -94 OFFCURVE",
"150 -95 OFFCURVE",
"171 -95 CURVE",
"182 -96 OFFCURVE",
"192 -96 OFFCURVE",
"203 -96 CURVE SMOOTH",
"213 -96 OFFCURVE",
"225 -96 OFFCURVE",
"240 -96 CURVE",
"251 -95 OFFCURVE",
"258 -93 OFFCURVE",
"259 -88 CURVE",
"260 -84 OFFCURVE",
"259 -81 OFFCURVE",
"255 -79 CURVE",
"243 -79 OFFCURVE",
"233 -79 OFFCURVE",
"225 -79 CURVE",
"216 -80 OFFCURVE",
"208 -80 OFFCURVE",
"201 -80 CURVE SMOOTH",
"193 -80 OFFCURVE",
"185 -80 OFFCURVE",
"177 -79 CURVE",
"168 -79 OFFCURVE",
"158 -79 OFFCURVE",
"147 -79 CURVE",
"184 120 OFFCURVE",
"243 358 OFFCURVE",
"308 606 CURVE",
"327 606 OFFCURVE",
"348 606 OFFCURVE",
"369 606 CURVE SMOOTH",
"390 606 OFFCURVE",
"409 605 OFFCURVE",
"425 604 CURVE",
"433 605 OFFCURVE",
"439 607 OFFCURVE",
"442 612 CURVE SMOOTH",
"445 617 OFFCURVE",
"444 620 OFFCURVE",
"438 621 CURVE",
"403 622 OFFCURVE",
"376 623 OFFCURVE",
"349 623 CURVE SMOOTH",
"336 623 OFFCURVE",
"322 623 OFFCURVE",
"309 623 CURVE SMOOTH",
"295 623 OFFCURVE",
"280 623 OFFCURVE",
"264 623 CURVE SMOOTH",
"255 623 OFFCURVE",
"249 619 OFFCURVE",
"248 612 CURVE"
);
}
);
width = 331;
}
);
note = bracketleft;
unicode = 005B;
},
{
glyphname = bracketright;
lastChange = "2017-06-04 12:09:41 +0000";
layers = (
{
layerId = "1178E776-45A7-4003-9263-224E9F7E8A45";
paths = (
{
closed = 1;
nodes = (
"219 -33 OFFCURVE",
"232 23 OFFCURVE",
"246 81 CURVE SMOOTH",
"273 196 OFFCURVE",
"301 315 OFFCURVE",
"332 435 CURVE SMOOTH",
"347 494 OFFCURVE",
"362 553 OFFCURVE",
"377 611 CURVE",
"377 617 OFFCURVE",
"373 620 OFFCURVE",
"366 620 CURVE SMOOTH",
"329 621 OFFCURVE",
"306 622 OFFCURVE",
"285 622 CURVE SMOOTH",
"274 622 OFFCURVE",
"264 622 OFFCURVE",
"254 623 CURVE",
"243 623 OFFCURVE",
"231 623 OFFCURVE",
"216 623 CURVE",
"205 622 OFFCURVE",
"198 619 OFFCURVE",
"197 615 CURVE",
"196 610 OFFCURVE",
"197 607 OFFCURVE",
"202 606 CURVE",
"214 606 OFFCURVE",
"224 606 OFFCURVE",
"233 607 CURVE",
"241 607 OFFCURVE",
"249 607 OFFCURVE",
"256 607 CURVE SMOOTH",
"271 607 OFFCURVE",
"286 606 OFFCURVE",
"309 605 CURVE",
"273 406 OFFCURVE",
"213 169 OFFCURVE",
"148 -79 CURVE",
"109 -80 OFFCURVE",
"63 -80 OFFCURVE",
"31 -77 CURVE",
"23 -78 OFFCURVE",
"17 -80 OFFCURVE",
"14 -85 CURVE SMOOTH",
"11 -90 OFFCURVE",
"12 -94 OFFCURVE",
"18 -95 CURVE",
"35 -95 OFFCURVE",
"50 -95 OFFCURVE",
"65 -95 CURVE",
"80 -96 OFFCURVE",
"94 -96 OFFCURVE",
"107 -96 CURVE SMOOTH",
"120 -96 OFFCURVE",
"134 -96 OFFCURVE",
"148 -96 CURVE SMOOTH",
"161 -96 OFFCURVE",
"176 -96 OFFCURVE",
"192 -96 CURVE SMOOTH",
"203 -96 OFFCURVE",
"205 -94 OFFCURVE",
"208 -86 CURVE"
);
}
);
width = 352;
}
);
note = bracketright;
unicode = 005D;
},
{
glyphname = c;
lastChange = "2017-06-04 12:09:41 +0000";
layers = (
{
layerId = "1178E776-45A7-4003-9263-224E9F7E8A45";
paths = (
{
closed = 1;
nodes = (
"205 169 OFFCURVE",
"214 178 OFFCURVE",
"222 187 CURVE",
"229 196 OFFCURVE",
"234 206 OFFCURVE",
"234 214 CURVE SMOOTH",
"234 235 OFFCURVE",
"216 256 OFFCURVE",
"185 256 CURVE SMOOTH",
"150 256 OFFCURVE",
"113 230 OFFCURVE",
"82 193 CURVE SMOOTH",
"51 156 OFFCURVE",
"30 106 OFFCURVE",
"30 59 CURVE SMOOTH",
"30 22 OFFCURVE",
"53 0 OFFCURVE",
"82 0 CURVE SMOOTH",
"129 0 OFFCURVE",
"171 27 OFFCURVE",
"204 70 CURVE",
"207 75 OFFCURVE",
"201 81 OFFCURVE",
"196 78 CURVE",
"173 51 OFFCURVE",
"144 33 OFFCURVE",
"121 33 CURVE SMOOTH",
"96 33 OFFCURVE",
"84 49 OFFCURVE",
"84 80 CURVE SMOOTH",
"84 165 OFFCURVE",
"112 224 OFFCURVE",
"155 224 CURVE SMOOTH",
"188 224 OFFCURVE",
"201 199 OFFCURVE",
"192 171 CURVE",
"192 166 OFFCURVE",
"194 165 OFFCURVE",
"198 166 CURVE"
);
}
);
width = 229;
}
);
note = c;
unicode = 0063;
},
{
glyphname = caron;
lastChange = "2017-06-04 12:09:41 +0000";
layers = (
{
layerId = "1178E776-45A7-4003-9263-224E9F7E8A45";
paths = (
{
closed = 1;
nodes = (
"122 355 OFFCURVE",
"151 379 OFFCURVE",
"174 392 CURVE",
"177 397 OFFCURVE",
"174 402 OFFCURVE",
"169 402 CURVE",
"147 391 OFFCURVE",
"128 379 OFFCURVE",
"112 368 CURVE",
"93 380 OFFCURVE",
"75 389 OFFCURVE",
"52 398 CURVE",
"43 399 OFFCURVE",
"36 398 OFFCURVE",
"29 393 CURVE SMOOTH",
"22 388 OFFCURVE",
"20 384 OFFCURVE",
"23 381 CURVE",
"48 369 OFFCURVE",
"73 352 OFFCURVE",
"89 329 CURVE",
"93 324 OFFCURVE",
"97 324 OFFCURVE",
"101 328 CURVE"
);
}
);
width = 196;
}
);
note = caron;
unicode = 02C7;
},
{
glyphname = ccedilla;
lastChange = "2017-06-04 12:09:41 +0000";
layers = (
{
layerId = "1178E776-45A7-4003-9263-224E9F7E8A45";
paths = (
{
closed = 1;
nodes = (
"204 169 OFFCURVE",
"213 178 OFFCURVE",
"221 187 CURVE",
"228 196 OFFCURVE",
"234 206 OFFCURVE",
"234 214 CURVE SMOOTH",
"234 235 OFFCURVE",
"215 256 OFFCURVE",
"184 256 CURVE SMOOTH",
"149 256 OFFCURVE",
"112 230 OFFCURVE",
"82 193 CURVE SMOOTH",
"52 156 OFFCURVE",
"30 106 OFFCURVE",
"30 59 CURVE SMOOTH",
"30 22 OFFCURVE",
"52 0 OFFCURVE",
"81 0 CURVE SMOOTH",
"84 0 OFFCURVE",
"88 0 OFFCURVE",
"92 0 CURVE SMOOTH",
"96 0 OFFCURVE",
"100 1 OFFCURVE",
"103 2 CURVE",
"82 -9 OFFCURVE",
"72 -35 OFFCURVE",
"79 -54 CURVE",
"88 -83 OFFCURVE",
"78 -103 OFFCURVE",
"41 -122 CURVE",
"40 -123 OFFCURVE",
"39 -125 OFFCURVE",
"39 -128 CURVE SMOOTH",
"39 -131 OFFCURVE",
"40 -132 OFFCURVE",
"42 -133 CURVE",
"94 -112 OFFCURVE",
"121 -67 OFFCURVE",
"109 -34 CURVE",
"102 -17 OFFCURVE",
"108 0 OFFCURVE",
"133 11 CURVE",
"154 22 OFFCURVE",
"183 44 OFFCURVE",
"203 69 CURVE",
"206 76 OFFCURVE",
"200 80 OFFCURVE",
"195 77 CURVE",
"172 50 OFFCURVE",
"144 33 OFFCURVE",
"120 33 CURVE SMOOTH",
"95 33 OFFCURVE",
"83 48 OFFCURVE",
"83 79 CURVE SMOOTH",
"83 166 OFFCURVE",
"111 224 OFFCURVE",
"154 224 CURVE SMOOTH",
"187 224 OFFCURVE",
"202 199 OFFCURVE",
"191 170 CURVE",
"191 167 OFFCURVE",
"194 165 OFFCURVE",
"197 166 CURVE"
);
}
);
width = 229;
}
);
note = ccedilla;
unicode = 00E7;
},
{
glyphname = circumflex;
lastChange = "2017-06-04 12:09:41 +0000";
layers = (
{
layerId = "1178E776-45A7-4003-9263-224E9F7E8A45";
paths = (
{
closed = 1;
nodes = (
"75 368 OFFCURVE",
"46 344 OFFCURVE",
"23 331 CURVE",
"20 326 OFFCURVE",
"23 321 OFFCURVE",
"28 321 CURVE",
"50 332 OFFCURVE",
"69 344 OFFCURVE",
"85 355 CURVE",
"104 343 OFFCURVE",
"122 334 OFFCURVE",
"145 325 CURVE",
"154 324 OFFCURVE",
"162 325 OFFCURVE",
"169 330 CURVE SMOOTH",
"176 335 OFFCURVE",
"177 339 OFFCURVE",
"174 342 CURVE",
"149 354 OFFCURVE",
"124 371 OFFCURVE",
"108 394 CURVE",
"103 398 OFFCURVE",
"99 398 OFFCURVE",
"96 395 CURVE"
);
}
);
width = 196;
}
);
note = circumflex;
unicode = 02C6;
},
{
glyphname = colon;
lastChange = "2017-06-04 12:09:41 +0000";
layers = (
{
layerId = "1178E776-45A7-4003-9263-224E9F7E8A45";
paths = (
{
closed = 1;
nodes = (
"49 0 OFFCURVE",
"61 8 OFFCURVE",
"70 19 CURVE SMOOTH",
"79 30 OFFCURVE",
"85 44 OFFCURVE",
"85 55 CURVE SMOOTH",
"85 64 OFFCURVE",
"77 71 OFFCURVE",
"69 71 CURVE SMOOTH",
"57 71 OFFCURVE",
"44 64 OFFCURVE",
"35 54 CURVE SMOOTH",
"26 44 OFFCURVE",
"20 32 OFFCURVE",
"20 24 CURVE SMOOTH",
"20 5 OFFCURVE",
"28 0 OFFCURVE",
"40 0 CURVE SMOOTH"
);
},
{
closed = 1;
nodes = (
"107 185 OFFCURVE",
"119 193 OFFCURVE",
"128 204 CURVE SMOOTH",
"137 215 OFFCURVE",
"143 229 OFFCURVE",
"143 240 CURVE SMOOTH",
"143 249 OFFCURVE",
"135 256 OFFCURVE",
"127 256 CURVE SMOOTH",
"115 256 OFFCURVE",
"102 249 OFFCURVE",
"94 239 CURVE",
"85 229 OFFCURVE",
"79 217 OFFCURVE",
"79 209 CURVE SMOOTH",
"79 190 OFFCURVE",
"86 185 OFFCURVE",
"98 185 CURVE SMOOTH"
);
}
);
width = 160;
}
);
note = colon;
unicode = 003A;
},
{
glyphname = comma;
lastChange = "2017-06-04 12:09:41 +0000";
layers = (
{
layerId = "1178E776-45A7-4003-9263-224E9F7E8A45";
paths = (
{
closed = 1;
nodes = (
"79 70 OFFCURVE",
"74 68 OFFCURVE",
"69 65 CURVE",
"57 57 OFFCURVE",
"47 47 OFFCURVE",
"43 37 CURVE",
"40 32 OFFCURVE",
"40 28 OFFCURVE",
"42 26 CURVE",
"49 23 OFFCURVE",
"53 14 OFFCURVE",
"53 -1 CURVE SMOOTH",
"53 -32 OFFCURVE",
"33 -60 OFFCURVE",
"5 -77 CURVE",
"0 -84 OFFCURVE",
"2 -88 OFFCURVE",
"7 -88 CURVE",
"60 -57 OFFCURVE",
"97 -9 OFFCURVE",
"97 35 CURVE SMOOTH",
"97 51 OFFCURVE",
"91 67 OFFCURVE",
"84 70 CURVE"
);
}
);
width = 122;
}
);
note = comma;
unicode = 002C;
},
{
glyphname = d;
lastChange = "2017-06-04 12:09:41 +0000";
layers = (
{
layerId = "1178E776-45A7-4003-9263-224E9F7E8A45";
paths = (
{
closed = 1;
nodes = (
"573 756 OFFCURVE",
"524 724 OFFCURVE",
"477 673 CURVE SMOOTH",
"430 622 OFFCURVE",
"385 552 OFFCURVE",
"345 477 CURVE SMOOTH",
"305 402 OFFCURVE",
"271 322 OFFCURVE",
"247 250 CURVE",
"236 255 OFFCURVE",
"224 257 OFFCURVE",
"210 257 CURVE SMOOTH",
"159 257 OFFCURVE",
"114 234 OFFCURVE",
"82 198 CURVE SMOOTH",
"50 162 OFFCURVE",
"30 113 OFFCURVE",
"30 61 CURVE SMOOTH",
"30 25 OFFCURVE",
"50 0 OFFCURVE",
"81 0 CURVE",
"128 13 OFFCURVE",
"181 59 OFFCURVE",
"208 116 CURVE",
"203 93 OFFCURVE",
"199 75 OFFCURVE",
"196 52 CURVE SMOOTH",
"193 25 OFFCURVE",
"205 0 OFFCURVE",
"234 0 CURVE SMOOTH",
"247 0 OFFCURVE",
"265 9 OFFCURVE",
"281 22 CURVE SMOOTH",
"296 34 OFFCURVE",
"309 50 OFFCURVE",
"316 63 CURVE",
"317 68 OFFCURVE",
"311 72 OFFCURVE",
"308 69 CURVE",
"297 50 OFFCURVE",
"284 37 OFFCURVE",
"269 37 CURVE SMOOTH",
"262 37 OFFCURVE",
"257 42 OFFCURVE",
"254 53 CURVE SMOOTH",
"251 63 OFFCURVE",
"252 75 OFFCURVE",
"255 90 CURVE SMOOTH",
"295 301 OFFCURVE",
"345 452 OFFCURVE",
"405 552 CURVE SMOOTH",
"464 651 OFFCURVE",
"531 698 OFFCURVE",
"603 698 CURVE SMOOTH",
"627 698 OFFCURVE",
"642 688 OFFCURVE",
"639 668 CURVE",
"640 663 OFFCURVE",
"645 662 OFFCURVE",
"648 665 CURVE",
"659 686 OFFCURVE",
"661 710 OFFCURVE",
"656 727 CURVE SMOOTH",
"651 744 OFFCURVE",
"638 756 OFFCURVE",
"618 756 CURVE SMOOTH"
);
},
{
closed = 1;
nodes = (
"96 39 OFFCURVE",
"85 55 OFFCURVE",
"85 76 CURVE SMOOTH",
"85 124 OFFCURVE",
"99 165 OFFCURVE",
"119 194 CURVE SMOOTH",
"139 223 OFFCURVE",
"167 241 OFFCURVE",
"195 241 CURVE SMOOTH",
"214 241 OFFCURVE",
"231 234 OFFCURVE",
"236 218 CURVE",
"233 206 OFFCURVE",
"229 193 OFFCURVE",
"224 181 CURVE",
"211 142 OFFCURVE",
"191 108 OFFCURVE",
"170 82 CURVE SMOOTH",
"149 56 OFFCURVE",
"128 39 OFFCURVE",
"113 39 CURVE SMOOTH"
);
}
);
width = 317;
}
);
note = d;
unicode = 0064;
},
{
glyphname = dagger;
lastChange = "2017-06-04 12:09:41 +0000";
layers = (
{
layerId = "1178E776-45A7-4003-9263-224E9F7E8A45";
paths = (
{
closed = 1;
nodes = (
"207 332 OFFCURVE",
"176 333 OFFCURVE",
"147 332 CURVE",
"167 392 OFFCURVE",
"187 451 OFFCURVE",
"210 510 CURVE",
"210 517 OFFCURVE",
"207 519 OFFCURVE",
"202 518 CURVE SMOOTH",
"197 517 OFFCURVE",
"191 514 OFFCURVE",
"185 509 CURVE",
"172 499 OFFCURVE",
"157 482 OFFCURVE",
"153 470 CURVE",
"138 433 OFFCURVE",
"125 386 OFFCURVE",
"110 331 CURVE",
"101 330 OFFCURVE",
"92 330 OFFCURVE",
"84 330 CURVE",
"68 329 OFFCURVE",
"41 329 OFFCURVE",
"27 315 CURVE SMOOTH",
"20 308 OFFCURVE",
"19 303 OFFCURVE",
"25 302 CURVE",
"52 309 OFFCURVE",
"78 310 OFFCURVE",
"106 313 CURVE",
"90 254 OFFCURVE",
"75 188 OFFCURVE",
"61 123 CURVE SMOOTH",
"47 58 OFFCURVE",
"33 -8 OFFCURVE",
"22 -68 CURVE",
"21 -83 OFFCURVE",
"33 -78 OFFCURVE",
"36 -63 CURVE SMOOTH",
"61 58 OFFCURVE",
"99 187 OFFCURVE",
"142 316 CURVE",
"170 317 OFFCURVE",
"198 318 OFFCURVE",
"229 318 CURVE",
"244 319 OFFCURVE",
"251 330 OFFCURVE",
"236 331 CURVE SMOOTH"
);
}
);
width = 185;
}
);
note = dagger;
unicode = 2020;
},
{
glyphname = daggerdbl;
lastChange = "2017-06-04 12:09:41 +0000";
layers = (
{
layerId = "1178E776-45A7-4003-9263-224E9F7E8A45";
paths = (
{
closed = 1;
nodes = (
"208 332 OFFCURVE",
"178 333 OFFCURVE",
"147 332 CURVE",
"167 392 OFFCURVE",
"189 451 OFFCURVE",
"210 510 CURVE",
"210 517 OFFCURVE",
"208 519 OFFCURVE",
"203 518 CURVE SMOOTH",
"198 517 OFFCURVE",
"192 514 OFFCURVE",
"185 509 CURVE",
"172 499 OFFCURVE",
"157 482 OFFCURVE",
"153 470 CURVE",
"138 433 OFFCURVE",
"125 386 OFFCURVE",
"110 331 CURVE",
"101 330 OFFCURVE",
"92 330 OFFCURVE",
"84 330 CURVE",
"68 329 OFFCURVE",
"41 329 OFFCURVE",
"27 315 CURVE SMOOTH",
"20 308 OFFCURVE",
"19 303 OFFCURVE",
"25 302 CURVE",
"52 309 OFFCURVE",
"78 310 OFFCURVE",
"106 313 CURVE",
"89 249 OFFCURVE",
"73 180 OFFCURVE",
"58 108 CURVE",
"49 108 OFFCURVE",
"40 108 OFFCURVE",
"31 108 CURVE",
"14 107 OFFCURVE",
"-14 106 OFFCURVE",
"-26 93 CURVE",
"-33 86 OFFCURVE",
"-33 83 OFFCURVE",
"-28 82 CURVE",
"-1 87 OFFCURVE",
"26 90 OFFCURVE",
"54 93 CURVE",
"48 65 OFFCURVE",
"43 38 OFFCURVE",
"38 11 CURVE SMOOTH",
"33 -16 OFFCURVE",
"27 -43 OFFCURVE",
"22 -68 CURVE",
"21 -83 OFFCURVE",
"33 -78 OFFCURVE",
"37 -63 CURVE",
"48 -12 OFFCURVE",
"59 41 OFFCURVE",
"74 94 CURVE",
"91 95 OFFCURVE",
"108 96 OFFCURVE",
"125 96 CURVE SMOOTH",
"142 96 OFFCURVE",
"159 96 OFFCURVE",
"176 95 CURVE",
"187 96 OFFCURVE",
"193 102 OFFCURVE",
"182 105 CURVE",
"147 108 OFFCURVE",
"111 109 OFFCURVE",
"78 109 CURVE",
"97 177 OFFCURVE",
"119 245 OFFCURVE",
"142 316 CURVE",
"170 317 OFFCURVE",
"198 318 OFFCURVE",
"229 318 CURVE",
"245 319 OFFCURVE",
"252 330 OFFCURVE",
"237 331 CURVE SMOOTH"
);
}
);
width = 185;
}
);
note = daggerdbl;
unicode = 2021;
},
{
glyphname = dieresis;
lastChange = "2017-06-04 12:09:41 +0000";
layers = (
{
layerId = "1178E776-45A7-4003-9263-224E9F7E8A45";
paths = (
{
closed = 1;
nodes = (
"40 316 OFFCURVE",
"50 324 OFFCURVE",
"58 333 CURVE",
"65 342 OFFCURVE",
"70 354 OFFCURVE",
"70 365 CURVE SMOOTH",
"70 373 OFFCURVE",
"63 383 OFFCURVE",
"56 383 CURVE SMOOTH",
"44 383 OFFCURVE",
"34 375 OFFCURVE",
"27 366 CURVE",
"19 357 OFFCURVE",
"14 346 OFFCURVE",
"14 338 CURVE SMOOTH",
"14 326 OFFCURVE",
"22 316 OFFCURVE",
"31 316 CURVE SMOOTH"
);
},
{
closed = 1;
nodes = (
"131 316 OFFCURVE",
"141 324 OFFCURVE",
"149 333 CURVE SMOOTH",
"157 342 OFFCURVE",
"162 354 OFFCURVE",
"162 365 CURVE SMOOTH",
"162 373 OFFCURVE",
"155 383 OFFCURVE",
"148 383 CURVE SMOOTH",
"136 383 OFFCURVE",
"126 375 OFFCURVE",
"118 366 CURVE SMOOTH",
"110 357 OFFCURVE",
"105 346 OFFCURVE",
"105 338 CURVE SMOOTH",
"105 326 OFFCURVE",
"113 316 OFFCURVE",
"122 316 CURVE SMOOTH"
);
}
);
width = 174;
}
);
note = dieresis;
unicode = 00A8;
},
{
glyphname = e;
lastChange = "2017-06-04 12:09:41 +0000";
layers = (
{
layerId = "1178E776-45A7-4003-9263-224E9F7E8A45";
paths = (
{
closed = 1;
nodes = (
"237 231 OFFCURVE",
"213 256 OFFCURVE",
"177 256 CURVE SMOOTH",
"141 256 OFFCURVE",
"104 230 OFFCURVE",
"77 193 CURVE SMOOTH",
"49 156 OFFCURVE",
"30 108 OFFCURVE",
"30 67 CURVE SMOOTH",
"30 24 OFFCURVE",
"49 0 OFFCURVE",
"96 0 CURVE SMOOTH",
"143 0 OFFCURVE",
"185 28 OFFCURVE",
"212 63 CURVE",
"213 68 OFFCURVE",
"210 75 OFFCURVE",
"205 72 CURVE",
"189 49 OFFCURVE",
"159 33 OFFCURVE",
"134 33 CURVE SMOOTH",
"99 33 OFFCURVE",
"84 52 OFFCURVE",
"84 87 CURVE SMOOTH",
"84 102 OFFCURVE",
"85 115 OFFCURVE",
"86 128 CURVE",
"187 142 OFFCURVE",
"237 168 OFFCURVE",
"237 206 CURVE SMOOTH"
);
},
{
closed = 1;
nodes = (
"169 230 OFFCURVE",
"182 214 OFFCURVE",
"182 194 CURVE SMOOTH",
"182 181 OFFCURVE",
"174 170 OFFCURVE",
"159 161 CURVE SMOOTH",
"144 152 OFFCURVE",
"120 145 OFFCURVE",
"88 142 CURVE",
"96 202 OFFCURVE",
"119 230 OFFCURVE",
"150 230 CURVE SMOOTH"
);
}
);
width = 237;
}
);
note = e;
unicode = 0065;
},
{
glyphname = emdash;
lastChange = "2017-06-04 12:09:41 +0000";
layers = (
{
layerId = "1178E776-45A7-4003-9263-224E9F7E8A45";
paths = (
{
closed = 1;
nodes = (
"20 162 OFFCURVE",
"18 146 OFFCURVE",
"22 143 CURVE",
"31 144 OFFCURVE",
"51 144 OFFCURVE",
"80 145 CURVE SMOOTH",
"138 145 OFFCURVE",
"222 146 OFFCURVE",
"323 146 CURVE SMOOTH",
"373 146 OFFCURVE",
"424 146 OFFCURVE",
"477 146 CURVE SMOOTH",
"529 146 OFFCURVE",
"581 146 OFFCURVE",
"632 146 CURVE SMOOTH",
"683 146 OFFCURVE",
"730 146 OFFCURVE",
"773 145 CURVE SMOOTH",
"816 144 OFFCURVE",
"853 144 OFFCURVE",
"884 144 CURVE SMOOTH",
"915 143 OFFCURVE",
"937 143 OFFCURVE",
"950 142 CURVE",
"958 142 OFFCURVE",
"966 148 OFFCURVE",
"973 153 CURVE SMOOTH",
"980 158 OFFCURVE",
"982 164 OFFCURVE",
"978 167 CURVE",
"969 167 OFFCURVE",
"950 167 OFFCURVE",
"921 167 CURVE SMOOTH",
"891 167 OFFCURVE",
"854 167 OFFCURVE",
"811 167 CURVE SMOOTH",
"768 167 OFFCURVE",
"720 167 OFFCURVE",
"667 167 CURVE SMOOTH",
"614 167 OFFCURVE",
"561 167 OFFCURVE",
"506 167 CURVE SMOOTH",
"451 167 OFFCURVE",
"398 167 OFFCURVE",
"345 167 CURVE SMOOTH",
"239 167 OFFCURVE",
"151 166 OFFCURVE",
"92 165 CURVE SMOOTH",
"62 164 OFFCURVE",
"43 164 OFFCURVE",
"35 163 CURVE"
);
}
);
width = 1000;
}
);
note = emdash;
unicode = 2014;
},
{
glyphname = endash;
lastChange = "2017-06-04 12:09:41 +0000";
layers = (
{
layerId = "1178E776-45A7-4003-9263-224E9F7E8A45";
paths = (
{
closed = 1;
nodes = (
"20 162 OFFCURVE",
"18 146 OFFCURVE",
"22 143 CURVE",
"47 144 OFFCURVE",
"92 146 OFFCURVE",
"144 146 CURVE SMOOTH",
"170 146 OFFCURVE",
"197 146 OFFCURVE",
"226 146 CURVE SMOOTH",
"255 146 OFFCURVE",
"283 146 OFFCURVE",
"311 146 CURVE SMOOTH",
"366 145 OFFCURVE",
"415 143 OFFCURVE",
"450 142 CURVE SMOOTH",
"458 142 OFFCURVE",
"466 148 OFFCURVE",
"473 153 CURVE SMOOTH",
"480 158 OFFCURVE",
"482 164 OFFCURVE",
"478 167 CURVE",
"467 167 OFFCURVE",
"449 167 OFFCURVE",
"426 167 CURVE SMOOTH",
"403 167 OFFCURVE",
"377 167 OFFCURVE",
"348 167 CURVE SMOOTH",
"319 167 OFFCURVE",
"288 167 OFFCURVE",
"256 167 CURVE SMOOTH",
"224 167 OFFCURVE",
"194 167 OFFCURVE",
"165 167 CURVE SMOOTH",
"107 166 OFFCURVE",
"56 164 OFFCURVE",
"35 163 CURVE SMOOTH"
);
}
);
width = 500;
}
);
note = endash;
unicode = 2013;
},
{
glyphname = eth;
lastChange = "2017-06-04 12:09:41 +0000";
layers = (
{
layerId = "1178E776-45A7-4003-9263-224E9F7E8A45";
paths = (
{
closed = 1;
nodes = (
"184 484 OFFCURVE",
"192 489 OFFCURVE",
"199 494 CURVE SMOOTH",
"206 499 OFFCURVE",
"214 503 OFFCURVE",
"221 508 CURVE",
"224 511 OFFCURVE",
"226 514 OFFCURVE",
"225 516 CURVE SMOOTH",
"224 518 OFFCURVE",
"222 519 OFFCURVE",
"221 519 CURVE",
"213 514 OFFCURVE",
"205 510 OFFCURVE",
"196 505 CURVE SMOOTH",
"187 500 OFFCURVE",
"179 494 OFFCURVE",
"170 489 CURVE",
"158 509 OFFCURVE",
"145 529 OFFCURVE",
"130 548 CURVE SMOOTH",
"98 591 OFFCURVE",
"94 629 OFFCURVE",
"123 664 CURVE",
"126 669 OFFCURVE",
"122 675 OFFCURVE",
"117 674 CURVE",
"90 655 OFFCURVE",
"74 629 OFFCURVE",
"67 602 CURVE SMOOTH",
"60 574 OFFCURVE",
"66 546 OFFCURVE",
"86 522 CURVE SMOOTH",
"103 502 OFFCURVE",
"118 482 OFFCURVE",
"131 463 CURVE",
"106 446 OFFCURVE",
"84 430 OFFCURVE",
"69 417 CURVE",
"64 410 OFFCURVE",
"60 404 OFFCURVE",
"59 399 CURVE SMOOTH",
"58 393 OFFCURVE",
"59 390 OFFCURVE",
"62 391 CURVE",
"85 411 OFFCURVE",
"111 432 OFFCURVE",
"138 452 CURVE",
"182 385 OFFCURVE",
"204 325 OFFCURVE",
"212 249 CURVE",
"172 266 OFFCURVE",
"128 249 OFFCURVE",
"93 213 CURVE SMOOTH",
"57 176 OFFCURVE",
"33 122 OFFCURVE",
"33 67 CURVE SMOOTH",
"33 26 OFFCURVE",
"58 0 OFFCURVE",
"94 0 CURVE SMOOTH",
"127 1 OFFCURVE",
"167 28 OFFCURVE",
"199 69 CURVE SMOOTH",
"230 109 OFFCURVE",
"253 164 OFFCURVE",
"253 224 CURVE SMOOTH",
"253 309 OFFCURVE",
"227 394 OFFCURVE",
"176 479 CURVE"
);
},
{
closed = 1;
nodes = (
"97 34 OFFCURVE",
"85 62 OFFCURVE",
"85 93 CURVE SMOOTH",
"85 181 OFFCURVE",
"123 240 OFFCURVE",
"178 240 CURVE SMOOTH",
"201 240 OFFCURVE",
"214 226 OFFCURVE",
"214 187 CURVE SMOOTH",
"214 147 OFFCURVE",
"201 109 OFFCURVE",
"184 81 CURVE SMOOTH",
"167 52 OFFCURVE",
"144 34 OFFCURVE",
"124 34 CURVE SMOOTH"
);
}
);
width = 264;
}
);
note = eth;
unicode = 00F0;
},
{
glyphname = exclam;
lastChange = "2017-06-04 12:09:41 +0000";
layers = (
{
layerId = "1178E776-45A7-4003-9263-224E9F7E8A45";
paths = (
{
closed = 1;
nodes = (
"85 0 OFFCURVE",
"96 8 OFFCURVE",
"105 19 CURVE SMOOTH",
"114 30 OFFCURVE",
"120 44 OFFCURVE",
"120 55 CURVE SMOOTH",
"120 64 OFFCURVE",
"112 71 OFFCURVE",
"104 71 CURVE SMOOTH",
"92 71 OFFCURVE",
"79 64 OFFCURVE",
"70 54 CURVE SMOOTH",
"61 44 OFFCURVE",
"55 32 OFFCURVE",
"55 24 CURVE SMOOTH",
"55 5 OFFCURVE",
"62 0 OFFCURVE",
"74 0 CURVE SMOOTH"
);
},
{
closed = 1;
nodes = (
"338 544 OFFCURVE",
"322 544 OFFCURVE",
"301 535 CURVE SMOOTH",
"280 526 OFFCURVE",
"253 509 OFFCURVE",
"244 494 CURVE",
"231 443 OFFCURVE",
"208 373 OFFCURVE",
"184 306 CURVE SMOOTH",
"160 238 OFFCURVE",
"136 174 OFFCURVE",
"120 138 CURVE",
"116 123 OFFCURVE",
"126 119 OFFCURVE",
"137 131 CURVE",
"147 152 OFFCURVE",
"160 179 OFFCURVE",
"176 212 CURVE SMOOTH",
"192 245 OFFCURVE",
"209 281 OFFCURVE",
"228 318 CURVE SMOOTH",
"264 392 OFFCURVE",
"302 469 OFFCURVE",
"329 524 CURVE SMOOTH"
);
}
);
width = 200;
}
);
note = exclam;
unicode = 0021;
},
{
glyphname = exclamdown;
lastChange = "2017-06-04 12:09:41 +0000";
layers = (
{
layerId = "1178E776-45A7-4003-9263-224E9F7E8A45";
paths = (
{
closed = 1;
nodes = (
"161 255 OFFCURVE",
"150 247 OFFCURVE",
"141 236 CURVE",
"132 224 OFFCURVE",
"126 211 OFFCURVE",
"126 200 CURVE SMOOTH",
"126 191 OFFCURVE",
"134 184 OFFCURVE",
"142 184 CURVE SMOOTH",
"154 184 OFFCURVE",
"167 192 OFFCURVE",
"176 202 CURVE SMOOTH",
"185 212 OFFCURVE",
"191 223 OFFCURVE",
"191 231 CURVE SMOOTH",
"191 250 OFFCURVE",
"184 255 OFFCURVE",
"172 255 CURVE SMOOTH"
);
},
{
closed = 1;
nodes = (
"-94 -289 OFFCURVE",
"-76 -289 OFFCURVE",
"-55 -280 CURVE SMOOTH",
"-34 -271 OFFCURVE",
"-7 -254 OFFCURVE",
"2 -239 CURVE",
"15 -190 OFFCURVE",
"38 -118 OFFCURVE",
"62 -50 CURVE SMOOTH",
"86 17 OFFCURVE",
"110 81 OFFCURVE",
"126 117 CURVE",
"130 132 OFFCURVE",
"120 136 OFFCURVE",
"109 124 CURVE",
"89 81 OFFCURVE",
"55 12 OFFCURVE",
"19 -62 CURVE SMOOTH",
"-18 -136 OFFCURVE",
"-56 -214 OFFCURVE",
"-83 -269 CURVE"
);
}
);
width = 196;
}
);
note = exclamdown;
unicode = 00A1;
},
{
glyphname = f;
lastChange = "2017-06-04 12:09:41 +0000";
layers = (
{
layerId = "1178E776-45A7-4003-9263-224E9F7E8A45";
paths = (
{
closed = 1;
nodes = (
"416 727 OFFCURVE",
"349 692 OFFCURVE",
"285 614 CURVE SMOOTH",
"221 536 OFFCURVE",
"160 416 OFFCURVE",
"105 251 CURVE",
"99 250 OFFCURVE",
"93 250 OFFCURVE",
"88 250 CURVE",
"76 249 OFFCURVE",
"66 248 OFFCURVE",
"54 244 CURVE",
"42 239 OFFCURVE",
"33 233 OFFCURVE",
"29 228 CURVE",
"27 225 OFFCURVE",
"28 224 OFFCURVE",
"31 223 CURVE",
"52 227 OFFCURVE",
"75 230 OFFCURVE",
"100 233 CURVE",
"94 215 LINE SMOOTH",
"37 28 OFFCURVE",
"-7 -76 OFFCURVE",
"-51 -135 CURVE SMOOTH",
"-96 -195 OFFCURVE",
"-142 -207 OFFCURVE",
"-203 -207 CURVE SMOOTH",
"-235 -207 OFFCURVE",
"-254 -197 OFFCURVE",
"-264 -184 CURVE SMOOTH",
"-274 -171 OFFCURVE",
"-276 -154 OFFCURVE",
"-269 -141 CURVE",
"-269 -137 OFFCURVE",
"-273 -133 OFFCURVE",
"-277 -137 CURVE",
"-290 -152 OFFCURVE",
"-296 -168 OFFCURVE",
"-296 -186 CURVE SMOOTH",
"-296 -219 OFFCURVE",
"-272 -243 OFFCURVE",
"-228 -243 CURVE SMOOTH",
"-163 -243 OFFCURVE",
"-95 -211 OFFCURVE",
"-30 -138 CURVE SMOOTH",
"34 -65 OFFCURVE",
"95 50 OFFCURVE",
"147 217 CURVE SMOOTH",
"148 220 OFFCURVE",
"150 224 OFFCURVE",
"151 228 CURVE",
"152 231 OFFCURVE",
"153 235 OFFCURVE",
"154 238 CURVE",
"171 239 OFFCURVE",
"189 240 OFFCURVE",
"206 241 CURVE",
"223 241 OFFCURVE",
"240 241 OFFCURVE",
"255 242 CURVE SMOOTH",
"266 243 OFFCURVE",
"267 250 OFFCURVE",
"260 253 CURVE",
"243 253 OFFCURVE",
"226 253 OFFCURVE",
"209 253 CURVE SMOOTH",
"192 253 OFFCURVE",
"175 253 OFFCURVE",
"158 252 CURVE",
"198 380 OFFCURVE",
"231 470 OFFCURVE",
"260 533 CURVE SMOOTH",
"289 596 OFFCURVE",
"315 632 OFFCURVE",
"343 652 CURVE SMOOTH",
"370 672 OFFCURVE",
"400 677 OFFCURVE",
"436 677 CURVE SMOOTH",
"495 677 OFFCURVE",
"519 654 OFFCURVE",
"522 627 CURVE",
"523 621 OFFCURVE",
"527 620 OFFCURVE",
"532 624 CURVE",
"543 648 OFFCURVE",
"543 673 OFFCURVE",
"534 693 CURVE SMOOTH",
"525 713 OFFCURVE",
"506 727 OFFCURVE",
"481 727 CURVE SMOOTH"
);
}
);
width = 173;
}
);
note = f;
unicode = 0066;
},
{
glyphname = fi;
lastChange = "2017-06-04 12:09:41 +0000";
layers = (
{
layerId = "1178E776-45A7-4003-9263-224E9F7E8A45";
paths = (
{
closed = 1;
nodes = (
"416 726 OFFCURVE",
"349 689 OFFCURVE",
"285 612 CURVE SMOOTH",
"221 535 OFFCURVE",
"159 414 OFFCURVE",
"106 249 CURVE",
"100 249 OFFCURVE",
"94 249 OFFCURVE",
"88 249 CURVE",
"76 248 OFFCURVE",
"66 247 OFFCURVE",
"54 243 CURVE",
"42 238 OFFCURVE",
"33 232 OFFCURVE",
"30 227 CURVE",
"28 224 OFFCURVE",
"29 223 OFFCURVE",
"32 222 CURVE",
"51 226 OFFCURVE",
"73 228 OFFCURVE",
"100 231 CURVE",
"99 228 OFFCURVE",
"98 225 OFFCURVE",
"97 223 CURVE",
"96 220 OFFCURVE",
"95 217 OFFCURVE",
"94 214 CURVE SMOOTH",
"55 90 OFFCURVE",
"24 2 OFFCURVE",
"-6 -61 CURVE SMOOTH",
"-36 -124 OFFCURVE",
"-65 -160 OFFCURVE",
"-96 -181 CURVE SMOOTH",
"-128 -202 OFFCURVE",
"-162 -208 OFFCURVE",
"-202 -208 CURVE SMOOTH",
"-234 -208 OFFCURVE",
"-254 -198 OFFCURVE",
"-264 -185 CURVE SMOOTH",
"-274 -172 OFFCURVE",
"-276 -155 OFFCURVE",
"-269 -142 CURVE",
"-269 -138 OFFCURVE",
"-273 -135 OFFCURVE",
"-277 -138 CURVE",
"-289 -153 OFFCURVE",
"-295 -170 OFFCURVE",
"-295 -187 CURVE SMOOTH",
"-295 -220 OFFCURVE",
"-272 -244 OFFCURVE",
"-228 -244 CURVE SMOOTH",
"-163 -244 OFFCURVE",
"-94 -212 OFFCURVE",
"-29 -139 CURVE SMOOTH",
"35 -67 OFFCURVE",
"96 48 OFFCURVE",
"148 215 CURVE SMOOTH",
"154 236 LINE",
"201 239 OFFCURVE",
"245 240 OFFCURVE",
"261 240 CURVE",
"242 215 OFFCURVE",
"223 176 OFFCURVE",
"208 137 CURVE SMOOTH",
"193 97 OFFCURVE",
"183 58 OFFCURVE",
"183 33 CURVE SMOOTH",
"183 11 OFFCURVE",
"195 0 OFFCURVE",
"218 0 CURVE SMOOTH",
"245 0 OFFCURVE",
"275 23 OFFCURVE",
"303 58 CURVE",
"306 63 OFFCURVE",
"300 69 OFFCURVE",
"297 66 CURVE",
"278 45 OFFCURVE",
"266 31 OFFCURVE",
"251 31 CURVE SMOOTH",
"242 31 OFFCURVE",
"237 38 OFFCURVE",
"237 52 CURVE SMOOTH",
"237 75 OFFCURVE",
"246 111 OFFCURVE",
"261 148 CURVE",
"273 183 OFFCURVE",
"293 220 OFFCURVE",
"312 247 CURVE",
"313 251 OFFCURVE",
"311 254 OFFCURVE",
"307 256 CURVE",
"296 255 OFFCURVE",
"284 254 OFFCURVE",
"272 253 CURVE",
"248 252 OFFCURVE",
"219 251 OFFCURVE",
"195 251 CURVE SMOOTH",
"182 251 OFFCURVE",
"170 251 OFFCURVE",
"159 251 CURVE",
"219 443 OFFCURVE",
"262 550 OFFCURVE",
"303 608 CURVE SMOOTH",
"343 666 OFFCURVE",
"382 676 OFFCURVE",
"437 676 CURVE SMOOTH",
"496 676 OFFCURVE",
"519 653 OFFCURVE",
"522 626 CURVE",
"525 620 OFFCURVE",
"528 619 OFFCURVE",
"532 623 CURVE",
"543 647 OFFCURVE",
"543 672 OFFCURVE",
"534 692 CURVE SMOOTH",
"525 712 OFFCURVE",
"506 726 OFFCURVE",
"481 726 CURVE SMOOTH"
);
},
{
closed = 1;
nodes = (
"343 383 OFFCURVE",
"312 350 OFFCURVE",
"297 330 CURVE",
"295 327 OFFCURVE",
"294 323 OFFCURVE",
"294 319 CURVE SMOOTH",
"294 314 OFFCURVE",
"295 310 OFFCURVE",
"296 307 CURVE",
"299 300 OFFCURVE",
"304 295 OFFCURVE",
"308 299 CURVE",
"327 334 OFFCURVE",
"353 372 OFFCURVE",
"381 397 CURVE",
"384 400 OFFCURVE",
"378 404 OFFCURVE",
"374 403 CURVE"
);
}
);
width = 315;
}
);
note = fi;
unicode = FB01;
},
{
glyphname = g;
lastChange = "2017-06-04 12:09:41 +0000";
layers = (
{
layerId = "1178E776-45A7-4003-9263-224E9F7E8A45";
paths = (
{
closed = 1;
nodes = (
"226 258 OFFCURVE",
"203 256 OFFCURVE",
"158 256 CURVE SMOOTH",
"127 256 OFFCURVE",
"97 237 OFFCURVE",
"74 209 CURVE SMOOTH",
"50 181 OFFCURVE",
"34 144 OFFCURVE",
"34 111 CURVE SMOOTH",
"34 67 OFFCURVE",
"55 44 OFFCURVE",
"94 44 CURVE SMOOTH",
"110 44 OFFCURVE",
"127 54 OFFCURVE",
"142 69 CURVE",
"141 68 OFFCURVE",
"141 67 OFFCURVE",
"141 67 CURVE",
"140 66 OFFCURVE",
"140 65 OFFCURVE",
"139 64 CURVE",
"115 23 OFFCURVE",
"111 -16 OFFCURVE",
"136 -59 CURVE SMOOTH",
"153 -90 OFFCURVE",
"163 -110 OFFCURVE",
"163 -141 CURVE SMOOTH",
"163 -192 OFFCURVE",
"133 -229 OFFCURVE",
"69 -229 CURVE SMOOTH",
"-7 -229 OFFCURVE",
"-58 -183 OFFCURVE",
"-58 -115 CURVE SMOOTH",
"-58 -80 OFFCURVE",
"-39 -60 OFFCURVE",
"-10 -49 CURVE",
"-7 -45 OFFCURVE",
"-9 -39 OFFCURVE",
"-16 -39 CURVE",
"-80 -56 OFFCURVE",
"-113 -95 OFFCURVE",
"-113 -142 CURVE SMOOTH",
"-113 -203 OFFCURVE",
"-50 -244 OFFCURVE",
"51 -244 CURVE SMOOTH",
"100 -244 OFFCURVE",
"142 -230 OFFCURVE",
"170 -208 CURVE SMOOTH",
"198 -186 OFFCURVE",
"214 -157 OFFCURVE",
"214 -124 CURVE SMOOTH",
"214 -84 OFFCURVE",
"200 -53 OFFCURVE",
"171 -8 CURVE SMOOTH",
"162 6 OFFCURVE",
"157 19 OFFCURVE",
"156 30 CURVE SMOOTH",
"154 52 OFFCURVE",
"162 70 OFFCURVE",
"175 88 CURVE",
"182 97 OFFCURVE",
"188 106 OFFCURVE",
"195 117 CURVE SMOOTH",
"208 138 OFFCURVE",
"220 162 OFFCURVE",
"220 195 CURVE SMOOTH",
"220 210 OFFCURVE",
"215 223 OFFCURVE",
"206 234 CURVE",
"226 237 OFFCURVE",
"238 250 OFFCURVE",
"249 265 CURVE",
"250 269 OFFCURVE",
"245 274 OFFCURVE",
"241 271 CURVE"
);
},
{
closed = 1;
nodes = (
"150 88 OFFCURVE",
"131 75 OFFCURVE",
"116 75 CURVE SMOOTH",
"91 75 OFFCURVE",
"78 94 OFFCURVE",
"78 133 CURVE SMOOTH",
"78 197 OFFCURVE",
"100 226 OFFCURVE",
"135 226 CURVE SMOOTH",
"163 226 OFFCURVE",
"175 201 OFFCURVE",
"175 164 CURVE SMOOTH",
"175 143 OFFCURVE",
"169 123 OFFCURVE",
"161 104 CURVE"
);
}
);
width = 238;
}
);
note = g;
unicode = 0067;
},
{
glyphname = germandbls;
lastChange = "2017-06-04 12:09:41 +0000";
layers = (
{
layerId = "1178E776-45A7-4003-9263-224E9F7E8A45";
paths = (
{
closed = 1;
nodes = (
"510 582 OFFCURVE",
"502 554 OFFCURVE",
"487 529 CURVE",
"455 480 OFFCURVE",
"406 440 OFFCURVE",
"351 404 CURVE SMOOTH",
"323 386 OFFCURVE",
"297 368 OFFCURVE",
"274 350 CURVE SMOOTH",
"226 313 OFFCURVE",
"191 273 OFFCURVE",
"191 221 CURVE SMOOTH",
"191 188 OFFCURVE",
"207 161 OFFCURVE",
"223 136 CURVE SMOOTH",
"239 111 OFFCURVE",
"255 87 OFFCURVE",
"255 62 CURVE SMOOTH",
"255 34 OFFCURVE",
"236 12 OFFCURVE",
"201 12 CURVE SMOOTH",
"174 12 OFFCURVE",
"158 30 OFFCURVE",
"158 54 CURVE SMOOTH",
"158 65 OFFCURVE",
"162 75 OFFCURVE",
"170 83 CURVE",
"173 87 OFFCURVE",
"167 93 OFFCURVE",
"164 90 CURVE",
"155 83 OFFCURVE",
"146 72 OFFCURVE",
"139 61 CURVE SMOOTH",
"132 50 OFFCURVE",
"128 40 OFFCURVE",
"128 35 CURVE SMOOTH",
"128 18 OFFCURVE",
"157 0 OFFCURVE",
"198 0 CURVE SMOOTH",
"273 0 OFFCURVE",
"306 33 OFFCURVE",
"306 76 CURVE SMOOTH",
"306 108 OFFCURVE",
"290 130 OFFCURVE",
"274 152 CURVE SMOOTH",
"258 174 OFFCURVE",
"242 197 OFFCURVE",
"242 230 CURVE SMOOTH",
"242 259 OFFCURVE",
"250 284 OFFCURVE",
"266 307 CURVE SMOOTH",
"298 351 OFFCURVE",
"349 389 OFFCURVE",
"405 425 CURVE SMOOTH",
"433 443 OFFCURVE",
"459 462 OFFCURVE",
"484 482 CURVE SMOOTH",
"532 522 OFFCURVE",
"568 569 OFFCURVE",
"568 630 CURVE SMOOTH",
"568 650 OFFCURVE",
"560 672 OFFCURVE",
"544 688 CURVE SMOOTH",
"528 704 OFFCURVE",
"504 716 OFFCURVE",
"472 716 CURVE SMOOTH",
"399 716 OFFCURVE",
"322 675 OFFCURVE",
"252 592 CURVE SMOOTH",
"182 508 OFFCURVE",
"119 383 OFFCURVE",
"75 214 CURVE SMOOTH",
"42 87 OFFCURVE",
"14 -3 OFFCURVE",
"-13 -67 CURVE SMOOTH",
"-40 -131 OFFCURVE",
"-65 -168 OFFCURVE",
"-95 -190 CURVE SMOOTH",
"-125 -212 OFFCURVE",
"-160 -218 OFFCURVE",
"-203 -218 CURVE SMOOTH",
"-252 -218 OFFCURVE",
"-288 -195 OFFCURVE",
"-304 -167 CURVE",
"-307 -163 OFFCURVE",
"-311 -166 OFFCURVE",
"-311 -171 CURVE SMOOTH",
"-312 -214 OFFCURVE",
"-287 -244 OFFCURVE",
"-230 -244 CURVE SMOOTH",
"-158 -244 OFFCURVE",
"-90 -219 OFFCURVE",
"-29 -149 CURVE SMOOTH",
"32 -79 OFFCURVE",
"86 35 OFFCURVE",
"130 216 CURVE SMOOTH",
"173 391 OFFCURVE",
"218 508 OFFCURVE",
"268 581 CURVE SMOOTH",
"318 653 OFFCURVE",
"374 683 OFFCURVE",
"439 683 CURVE SMOOTH",
"484 683 OFFCURVE",
"510 656 OFFCURVE",
"510 613 CURVE SMOOTH"
);
}
);
width = 338;
}
);
note = germandbls;
unicode = 00DF;
},
{
glyphname = grave;
lastChange = "2017-06-04 12:09:41 +0000";
layers = (
{
layerId = "1178E776-45A7-4003-9263-224E9F7E8A45";
paths = (
{
closed = 1;
nodes = (
"109 342 OFFCURVE",
"83 367 OFFCURVE",
"67 386 CURVE",
"65 388 OFFCURVE",
"59 387 OFFCURVE",
"49 384 CURVE SMOOTH",
"38 381 OFFCURVE",
"29 375 OFFCURVE",
"20 368 CURVE",
"19 367 OFFCURVE",
"18 365 OFFCURVE",
"18 364 CURVE SMOOTH",
"18 362 OFFCURVE",
"19 361 OFFCURVE",
"20 360 CURVE",
"47 343 OFFCURVE",
"91 325 OFFCURVE",
"126 316 CURVE",
"133 316 OFFCURVE",
"136 322 OFFCURVE",
"133 325 CURVE"
);
}
);
width = 155;
}
);
note = grave;
unicode = 0060;
},
{
glyphname = h;
lastChange = "2017-06-04 12:09:41 +0000";
layers = (
{
layerId = "1178E776-45A7-4003-9263-224E9F7E8A45";
paths = (
{
closed = 1;
nodes = (
"23 3 OFFCURVE",
"25 0 OFFCURVE",
"32 0 CURVE SMOOTH",
"55 0 OFFCURVE",
"76 12 OFFCURVE",
"79 21 CURVE SMOOTH",
"98 81 OFFCURVE",
"125 131 OFFCURVE",
"153 167 CURVE SMOOTH",
"181 202 OFFCURVE",
"212 222 OFFCURVE",
"237 222 CURVE SMOOTH",
"244 222 OFFCURVE",
"247 219 OFFCURVE",
"247 213 CURVE SMOOTH",
"247 210 OFFCURVE",
"245 204 OFFCURVE",
"242 196 CURVE",
"230 175 OFFCURVE",
"220 148 OFFCURVE",
"213 121 CURVE SMOOTH",
"205 94 OFFCURVE",
"200 66 OFFCURVE",
"200 42 CURVE SMOOTH",
"200 11 OFFCURVE",
"216 0 OFFCURVE",
"239 0 CURVE SMOOTH",
"264 0 OFFCURVE",
"301 27 OFFCURVE",
"318 56 CURVE",
"319 60 OFFCURVE",
"314 65 OFFCURVE",
"310 62 CURVE",
"299 45 OFFCURVE",
"281 28 OFFCURVE",
"268 28 CURVE SMOOTH",
"257 28 OFFCURVE",
"254 41 OFFCURVE",
"254 60 CURVE SMOOTH",
"254 103 OFFCURVE",
"273 158 OFFCURVE",
"301 207 CURVE SMOOTH",
"307 218 OFFCURVE",
"310 227 OFFCURVE",
"310 236 CURVE SMOOTH",
"310 247 OFFCURVE",
"303 256 OFFCURVE",
"287 256 CURVE SMOOTH",
"250 256 OFFCURVE",
"215 241 OFFCURVE",
"184 217 CURVE SMOOTH",
"153 193 OFFCURVE",
"127 160 OFFCURVE",
"107 124 CURVE",
"168 345 OFFCURVE",
"226 491 OFFCURVE",
"287 581 CURVE SMOOTH",
"348 671 OFFCURVE",
"412 706 OFFCURVE",
"484 706 CURVE SMOOTH",
"531 706 OFFCURVE",
"553 677 OFFCURVE",
"546 650 CURVE",
"546 645 OFFCURVE",
"551 643 OFFCURVE",
"555 647 CURVE",
"570 667 OFFCURVE",
"576 695 OFFCURVE",
"569 717 CURVE",
"561 739 OFFCURVE",
"542 756 OFFCURVE",
"509 756 CURVE SMOOTH",
"429 756 OFFCURVE",
"338 683 OFFCURVE",
"251 554 CURVE SMOOTH",
"164 425 OFFCURVE",
"84 238 OFFCURVE",
"24 9 CURVE"
);
}
);
width = 324;
}
);
note = h;
unicode = 0068;
},
{
glyphname = hyphen;
lastChange = "2017-06-04 12:09:41 +0000";
layers = (
{
layerId = "1178E776-45A7-4003-9263-224E9F7E8A45";
paths = (
{
closed = 1;
nodes = (
"41 161 OFFCURVE",
"30 136 OFFCURVE",
"39 133 CURVE",
"48 133 OFFCURVE",
"59 133 OFFCURVE",
"72 134 CURVE",
"85 134 OFFCURVE",
"99 134 OFFCURVE",
"114 135 CURVE",
"128 135 OFFCURVE",
"142 135 OFFCURVE",
"157 136 CURVE",
"171 136 OFFCURVE",
"184 136 OFFCURVE",
"196 136 CURVE",
"201 137 OFFCURVE",
"205 140 OFFCURVE",
"210 144 CURVE",
"218 152 OFFCURVE",
"224 161 OFFCURVE",
"224 169 CURVE SMOOTH",
"224 172 OFFCURVE",
"223 175 OFFCURVE",
"220 176 CURVE",
"209 176 OFFCURVE",
"196 176 OFFCURVE",
"181 175 CURVE SMOOTH",
"152 174 OFFCURVE",
"120 172 OFFCURVE",
"92 169 CURVE",
"78 168 OFFCURVE",
"67 167 OFFCURVE",
"58 166 CURVE"
);
}
);
width = 245;
}
);
note = hyphen;
unicode = 002D;
},
{
glyphname = i;
lastChange = "2017-06-04 12:09:41 +0000";
layers = (
{
layerId = "1178E776-45A7-4003-9263-224E9F7E8A45";
paths = (
{
closed = 1;
nodes = (
"178 334 OFFCURVE",
"204 372 OFFCURVE",
"232 397 CURVE",
"233 400 OFFCURVE",
"228 404 OFFCURVE",
"225 403 CURVE",
"194 383 OFFCURVE",
"163 350 OFFCURVE",
"148 331 CURVE",
"146 328 OFFCURVE",
"145 324 OFFCURVE",
"145 320 CURVE SMOOTH",
"145 315 OFFCURVE",
"146 311 OFFCURVE",
"147 308 CURVE",
"150 300 OFFCURVE",
"155 295 OFFCURVE",
"159 299 CURVE"
);
},
{
closed = 1;
nodes = (
"64 197 OFFCURVE",
"84 210 OFFCURVE",
"99 218 CURVE",
"83 194 OFFCURVE",
"67 160 OFFCURVE",
"55 126 CURVE SMOOTH",
"42 92 OFFCURVE",
"34 57 OFFCURVE",
"34 33 CURVE SMOOTH",
"34 11 OFFCURVE",
"46 0 OFFCURVE",
"69 0 CURVE SMOOTH",
"96 0 OFFCURVE",
"125 23 OFFCURVE",
"154 58 CURVE",
"157 65 OFFCURVE",
"151 69 OFFCURVE",
"148 66 CURVE SMOOTH",
"129 46 OFFCURVE",
"117 32 OFFCURVE",
"102 32 CURVE SMOOTH",
"93 32 OFFCURVE",
"88 39 OFFCURVE",
"88 52 CURVE SMOOTH",
"88 73 OFFCURVE",
"97 108 OFFCURVE",
"110 144 CURVE SMOOTH",
"122 179 OFFCURVE",
"140 216 OFFCURVE",
"157 247 CURVE",
"157 253 OFFCURVE",
"154 256 OFFCURVE",
"149 256 CURVE",
"105 235 OFFCURVE",
"71 214 OFFCURVE",
"46 194 CURVE",
"45 190 OFFCURVE",
"48 183 OFFCURVE",
"52 186 CURVE"
);
}
);
width = 166;
}
);
note = i;
unicode = 0069;
},
{
glyphname = j;
lastChange = "2017-06-04 12:09:41 +0000";
layers = (
{
layerId = "1178E776-45A7-4003-9263-224E9F7E8A45";
paths = (
{
closed = 1;
nodes = (
"168 334 OFFCURVE",
"194 372 OFFCURVE",
"222 397 CURVE",
"225 400 OFFCURVE",
"219 404 OFFCURVE",
"215 403 CURVE",
"184 383 OFFCURVE",
"153 350 OFFCURVE",
"138 331 CURVE",
"136 328 OFFCURVE",
"135 324 OFFCURVE",
"135 320 CURVE SMOOTH",
"135 315 OFFCURVE",
"136 311 OFFCURVE",
"137 308 CURVE",
"140 300 OFFCURVE",
"145 295 OFFCURVE",
"149 299 CURVE"
);
},
{
closed = 1;
nodes = (
"38 38 OFFCURVE",
"-5 -69 OFFCURVE",
"-50 -132 CURVE SMOOTH",
"-95 -195 OFFCURVE",
"-143 -213 OFFCURVE",
"-196 -213 CURVE SMOOTH",
"-260 -213 OFFCURVE",
"-293 -186 OFFCURVE",
"-286 -147 CURVE",
"-287 -144 OFFCURVE",
"-288 -143 OFFCURVE",
"-290 -143 CURVE SMOOTH",
"-292 -143 OFFCURVE",
"-294 -144 OFFCURVE",
"-295 -146 CURVE",
"-310 -203 OFFCURVE",
"-290 -244 OFFCURVE",
"-243 -244 CURVE SMOOTH",
"-171 -244 OFFCURVE",
"-98 -214 OFFCURVE",
"-30 -137 CURVE SMOOTH",
"38 -61 OFFCURVE",
"99 62 OFFCURVE",
"146 247 CURVE",
"147 253 OFFCURVE",
"145 256 OFFCURVE",
"138 256 CURVE",
"121 248 OFFCURVE",
"100 238 OFFCURVE",
"81 227 CURVE SMOOTH",
"61 215 OFFCURVE",
"45 204 OFFCURVE",
"37 196 CURVE",
"36 192 OFFCURVE",
"39 186 OFFCURVE",
"43 189 CURVE",
"55 199 OFFCURVE",
"68 208 OFFCURVE",
"82 215 CURVE"
);
}
);
width = 153;
}
);
note = j;
unicode = 006A;
},
{
glyphname = k;
lastChange = "2017-06-04 12:09:41 +0000";
layers = (
{
layerId = "1178E776-45A7-4003-9263-224E9F7E8A45";
paths = (
{
closed = 1;
nodes = (
"237 137 OFFCURVE",
"282 170 OFFCURVE",
"282 213 CURVE SMOOTH",
"282 232 OFFCURVE",
"273 256 OFFCURVE",
"234 256 CURVE SMOOTH",
"177 256 OFFCURVE",
"134 217 OFFCURVE",
"109 168 CURVE",
"158 360 OFFCURVE",
"215 497 OFFCURVE",
"278 586 CURVE SMOOTH",
"341 674 OFFCURVE",
"408 715 OFFCURVE",
"480 715 CURVE SMOOTH",
"527 715 OFFCURVE",
"547 684 OFFCURVE",
"540 657 CURVE",
"541 650 OFFCURVE",
"544 649 OFFCURVE",
"549 654 CURVE",
"564 674 OFFCURVE",
"569 700 OFFCURVE",
"562 721 CURVE SMOOTH",
"555 741 OFFCURVE",
"536 756 OFFCURVE",
"503 756 CURVE SMOOTH",
"450 756 OFFCURVE",
"388 722 OFFCURVE",
"327 662 CURVE SMOOTH",
"266 601 OFFCURVE",
"203 512 OFFCURVE",
"150 401 CURVE SMOOTH",
"97 290 OFFCURVE",
"52 158 OFFCURVE",
"24 10 CURVE",
"23 3 OFFCURVE",
"25 0 OFFCURVE",
"30 0 CURVE SMOOTH",
"38 0 OFFCURVE",
"57 5 OFFCURVE",
"68 10 CURVE",
"77 15 OFFCURVE",
"78 18 OFFCURVE",
"81 29 CURVE",
"85 48 OFFCURVE",
"90 74 OFFCURVE",
"97 97 CURVE",
"116 184 OFFCURVE",
"159 229 OFFCURVE",
"206 229 CURVE SMOOTH",
"223 229 OFFCURVE",
"231 221 OFFCURVE",
"231 204 CURVE SMOOTH",
"231 183 OFFCURVE",
"219 165 OFFCURVE",
"200 154 CURVE SMOOTH",
"180 143 OFFCURVE",
"155 139 OFFCURVE",
"131 144 CURVE",
"126 143 OFFCURVE",
"125 139 OFFCURVE",
"127 134 CURVE",
"143 45 OFFCURVE",
"165 0 OFFCURVE",
"216 0 CURVE SMOOTH",
"247 0 OFFCURVE",
"273 13 OFFCURVE",
"294 39 CURVE",
"295 43 OFFCURVE",
"291 47 OFFCURVE",
"287 46 CURVE",
"272 27 OFFCURVE",
"262 22 OFFCURVE",
"247 22 CURVE SMOOTH",
"214 22 OFFCURVE",
"191 61 OFFCURVE",
"176 132 CURVE"
);
}
);
width = 291;
}
);
note = k;
unicode = 006B;
},
{
glyphname = l;
lastChange = "2017-06-04 12:09:41 +0000";
layers = (
{
layerId = "1178E776-45A7-4003-9263-224E9F7E8A45";
paths = (
{
closed = 1;
nodes = (
"402 743 OFFCURVE",
"336 686 OFFCURVE",
"273 603 CURVE SMOOTH",
"209 519 OFFCURVE",
"148 410 OFFCURVE",
"104 306 CURVE SMOOTH",
"59 201 OFFCURVE",
"30 102 OFFCURVE",
"30 39 CURVE SMOOTH",
"30 16 OFFCURVE",
"39 0 OFFCURVE",
"64 0 CURVE SMOOTH",
"93 0 OFFCURVE",
"133 30 OFFCURVE",
"160 70 CURVE",
"161 75 OFFCURVE",
"157 80 OFFCURVE",
"153 77 CURVE",
"133 50 OFFCURVE",
"119 37 OFFCURVE",
"103 37 CURVE SMOOTH",
"92 37 OFFCURVE",
"86 47 OFFCURVE",
"86 67 CURVE SMOOTH",
"86 142 OFFCURVE",
"107 236 OFFCURVE",
"140 328 CURVE SMOOTH",
"173 420 OFFCURVE",
"220 510 OFFCURVE",
"272 577 CURVE SMOOTH",
"324 644 OFFCURVE",
"380 688 OFFCURVE",
"435 688 CURVE SMOOTH",
"464 688 OFFCURVE",
"479 676 OFFCURVE",
"476 660 CURVE",
"477 656 OFFCURVE",
"482 652 OFFCURVE",
"485 655 CURVE",
"497 676 OFFCURVE",
"500 699 OFFCURVE",
"496 716 CURVE",
"491 732 OFFCURVE",
"478 743 OFFCURVE",
"458 743 CURVE SMOOTH"
);
}
);
width = 150;
}
);
note = l;
unicode = 006C;
},
{
glyphname = m;
lastChange = "2017-06-04 12:09:41 +0000";
layers = (
{
layerId = "1178E776-45A7-4003-9263-224E9F7E8A45";
paths = (
{
closed = 1;
nodes = (
"388 191 OFFCURVE",
"377 164 OFFCURVE",
"366 134 CURVE SMOOTH",
"354 104 OFFCURVE",
"343 70 OFFCURVE",
"343 38 CURVE SMOOTH",
"343 13 OFFCURVE",
"354 0 OFFCURVE",
"376 0 CURVE SMOOTH",
"403 0 OFFCURVE",
"431 22 OFFCURVE",
"458 55 CURVE",
"461 60 OFFCURVE",
"456 66 OFFCURVE",
"452 63 CURVE",
"434 41 OFFCURVE",
"420 30 OFFCURVE",
"409 30 CURVE SMOOTH",
"398 30 OFFCURVE",
"393 38 OFFCURVE",
"393 55 CURVE SMOOTH",
"393 83 OFFCURVE",
"405 114 OFFCURVE",
"418 144 CURVE SMOOTH",
"430 174 OFFCURVE",
"442 201 OFFCURVE",
"442 224 CURVE SMOOTH",
"442 239 OFFCURVE",
"432 256 OFFCURVE",
"405 256 CURVE SMOOTH",
"348 256 OFFCURVE",
"312 216 OFFCURVE",
"269 143 CURVE",
"278 170 OFFCURVE",
"283 196 OFFCURVE",
"283 222 CURVE SMOOTH",
"283 241 OFFCURVE",
"270 256 OFFCURVE",
"246 256 CURVE SMOOTH",
"198 256 OFFCURVE",
"156 212 OFFCURVE",
"121 151 CURVE",
"130 176 OFFCURVE",
"135 193 OFFCURVE",
"140 222 CURVE",
"144 241 OFFCURVE",
"137 256 OFFCURVE",
"116 256 CURVE SMOOTH",
"84 256 OFFCURVE",
"55 231 OFFCURVE",
"35 200 CURVE",
"32 196 OFFCURVE",
"38 191 OFFCURVE",
"42 194 CURVE",
"57 214 OFFCURVE",
"72 231 OFFCURVE",
"83 231 CURVE SMOOTH",
"89 231 OFFCURVE",
"91 225 OFFCURVE",
"89 213 CURVE",
"81 182 OFFCURVE",
"71 147 OFFCURVE",
"59 111 CURVE SMOOTH",
"47 75 OFFCURVE",
"35 38 OFFCURVE",
"24 9 CURVE",
"21 2 OFFCURVE",
"26 0 OFFCURVE",
"33 0 CURVE SMOOTH",
"48 0 OFFCURVE",
"71 9 OFFCURVE",
"74 17 CURVE SMOOTH",
"99 88 OFFCURVE",
"124 141 OFFCURVE",
"151 177 CURVE SMOOTH",
"177 212 OFFCURVE",
"199 230 OFFCURVE",
"216 230 CURVE SMOOTH",
"227 230 OFFCURVE",
"233 221 OFFCURVE",
"233 203 CURVE SMOOTH",
"233 194 OFFCURVE",
"231 181 OFFCURVE",
"226 164 CURVE SMOOTH",
"217 130 OFFCURVE",
"204 90 OFFCURVE",
"190 54 CURVE SMOOTH",
"183 36 OFFCURVE",
"177 21 OFFCURVE",
"173 9 CURVE SMOOTH",
"171 3 OFFCURVE",
"174 0 OFFCURVE",
"182 0 CURVE SMOOTH",
"199 0 OFFCURVE",
"223 9 OFFCURVE",
"226 17 CURVE",
"249 86 OFFCURVE",
"275 139 OFFCURVE",
"302 176 CURVE SMOOTH",
"329 213 OFFCURVE",
"353 231 OFFCURVE",
"373 231 CURVE SMOOTH",
"383 231 OFFCURVE",
"388 224 OFFCURVE",
"388 210 CURVE SMOOTH"
);
}
);
width = 462;
}
);
note = m;
unicode = 006D;
},
{
glyphname = n;
lastChange = "2017-06-04 12:09:41 +0000";
layers = (
{
layerId = "1178E776-45A7-4003-9263-224E9F7E8A45";
paths = (
{
closed = 1;
nodes = (
"295 46 OFFCURVE",
"282 34 OFFCURVE",
"267 34 CURVE SMOOTH",
"256 34 OFFCURVE",
"250 43 OFFCURVE",
"250 60 CURVE SMOOTH",
"250 103 OFFCURVE",
"272 160 OFFCURVE",
"300 211 CURVE",
"305 218 OFFCURVE",
"307 227 OFFCURVE",
"307 236 CURVE SMOOTH",
"307 247 OFFCURVE",
"298 256 OFFCURVE",
"282 256 CURVE SMOOTH",
"245 256 OFFCURVE",
"211 241 OFFCURVE",
"183 218 CURVE SMOOTH",
"154 194 OFFCURVE",
"130 164 OFFCURVE",
"114 135 CURVE",
"125 167 OFFCURVE",
"131 191 OFFCURVE",
"138 220 CURVE",
"142 240 OFFCURVE",
"136 256 OFFCURVE",
"113 256 CURVE SMOOTH",
"97 256 OFFCURVE",
"81 248 OFFCURVE",
"66 237 CURVE",
"51 225 OFFCURVE",
"40 212 OFFCURVE",
"33 203 CURVE",
"32 199 OFFCURVE",
"36 193 OFFCURVE",
"40 196 CURVE",
"51 211 OFFCURVE",
"64 226 OFFCURVE",
"79 226 CURVE SMOOTH",
"82 226 OFFCURVE",
"85 225 OFFCURVE",
"86 222 CURVE SMOOTH",
"87 219 OFFCURVE",
"87 214 OFFCURVE",
"85 207 CURVE",
"68 138 OFFCURVE",
"43 66 OFFCURVE",
"20 9 CURVE SMOOTH",
"17 2 OFFCURVE",
"21 0 OFFCURVE",
"28 0 CURVE SMOOTH",
"33 0 OFFCURVE",
"44 2 OFFCURVE",
"53 4 CURVE SMOOTH",
"62 6 OFFCURVE",
"71 9 OFFCURVE",
"72 13 CURVE",
"97 86 OFFCURVE",
"125 140 OFFCURVE",
"155 174 CURVE SMOOTH",
"185 207 OFFCURVE",
"212 224 OFFCURVE",
"237 224 CURVE SMOOTH",
"243 224 OFFCURVE",
"246 221 OFFCURVE",
"246 214 CURVE SMOOTH",
"246 209 OFFCURVE",
"245 204 OFFCURVE",
"243 199 CURVE",
"215 143 OFFCURVE",
"197 87 OFFCURVE",
"197 40 CURVE SMOOTH",
"197 16 OFFCURVE",
"210 0 OFFCURVE",
"233 0 CURVE SMOOTH",
"264 0 OFFCURVE",
"297 30 OFFCURVE",
"321 63 CURVE",
"322 68 OFFCURVE",
"317 73 OFFCURVE",
"314 70 CURVE"
);
}
);
width = 322;
}
);
note = n;
unicode = 006E;
},
{
glyphname = o;
lastChange = "2017-06-04 12:09:41 +0000";
layers = (
{
layerId = "1178E776-45A7-4003-9263-224E9F7E8A45";
paths = (
{
closed = 1;
nodes = (
"140 256 OFFCURVE",
"103 229 OFFCURVE",
"76 193 CURVE SMOOTH",
"48 157 OFFCURVE",
"30 112 OFFCURVE",
"30 73 CURVE SMOOTH",
"30 30 OFFCURVE",
"54 0 OFFCURVE",
"99 0 CURVE SMOOTH",
"127 0 OFFCURVE",
"165 21 OFFCURVE",
"195 55 CURVE SMOOTH",
"225 89 OFFCURVE",
"248 134 OFFCURVE",
"248 186 CURVE SMOOTH",
"248 223 OFFCURVE",
"226 256 OFFCURVE",
"179 256 CURVE SMOOTH"
);
},
{
closed = 1;
nodes = (
"97 31 OFFCURVE",
"79 54 OFFCURVE",
"79 101 CURVE SMOOTH",
"79 181 OFFCURVE",
"108 223 OFFCURVE",
"151 223 CURVE SMOOTH",
"182 223 OFFCURVE",
"198 193 OFFCURVE",
"198 153 CURVE SMOOTH",
"198 77 OFFCURVE",
"165 31 OFFCURVE",
"124 31 CURVE SMOOTH"
);
}
);
width = 258;
}
);
note = o;
unicode = 006F;
},
{
glyphname = oe;
lastChange = "2017-06-04 12:09:41 +0000";
layers = (
{
layerId = "1178E776-45A7-4003-9263-224E9F7E8A45";
paths = (
{
closed = 1;
nodes = (
"397 230 OFFCURVE",
"372 256 OFFCURVE",
"337 256 CURVE SMOOTH",
"302 256 OFFCURVE",
"268 234 OFFCURVE",
"241 199 CURVE",
"236 234 OFFCURVE",
"214 256 OFFCURVE",
"179 256 CURVE SMOOTH",
"140 256 OFFCURVE",
"103 229 OFFCURVE",
"76 193 CURVE SMOOTH",
"48 157 OFFCURVE",
"30 112 OFFCURVE",
"30 73 CURVE SMOOTH",
"30 30 OFFCURVE",
"52 0 OFFCURVE",
"99 0 CURVE SMOOTH",
"135 0 OFFCURVE",
"167 20 OFFCURVE",
"190 55 CURVE",
"194 20 OFFCURVE",
"213 0 OFFCURVE",
"256 0 CURVE SMOOTH",
"303 0 OFFCURVE",
"345 28 OFFCURVE",
"372 63 CURVE",
"373 68 OFFCURVE",
"370 75 OFFCURVE",
"365 72 CURVE",
"348 49 OFFCURVE",
"320 33 OFFCURVE",
"293 33 CURVE SMOOTH",
"260 33 OFFCURVE",
"244 53 OFFCURVE",
"244 86 CURVE SMOOTH",
"244 101 OFFCURVE",
"245 115 OFFCURVE",
"246 127 CURVE",
"347 142 OFFCURVE",
"397 168 OFFCURVE",
"397 206 CURVE SMOOTH"
);
},
{
closed = 1;
nodes = (
"329 230 OFFCURVE",
"342 214 OFFCURVE",
"342 194 CURVE SMOOTH",
"342 181 OFFCURVE",
"334 170 OFFCURVE",
"319 161 CURVE SMOOTH",
"304 152 OFFCURVE",
"280 145 OFFCURVE",
"248 142 CURVE",
"256 202 OFFCURVE",
"279 230 OFFCURVE",
"310 230 CURVE SMOOTH"
);
},
{
closed = 1;
nodes = (
"97 30 OFFCURVE",
"79 53 OFFCURVE",
"79 101 CURVE SMOOTH",
"79 181 OFFCURVE",
"107 223 OFFCURVE",
"150 223 CURVE SMOOTH",
"181 223 OFFCURVE",
"197 193 OFFCURVE",
"197 153 CURVE SMOOTH",
"197 77 OFFCURVE",
"165 30 OFFCURVE",
"124 30 CURVE SMOOTH"
);
}
);
width = 397;
}
);
note = oe;
unicode = 0153;
},
{
glyphname = oslash;
lastChange = "2017-06-04 12:09:41 +0000";
layers = (
{
layerId = "1178E776-45A7-4003-9263-224E9F7E8A45";
paths = (
{
closed = 1;
nodes = (
"237 278 OFFCURVE",
"232 271 OFFCURVE",
"228 265 CURVE",
"223 259 OFFCURVE",
"219 253 OFFCURVE",
"214 247 CURVE",
"205 252 OFFCURVE",
"193 255 OFFCURVE",
"179 255 CURVE SMOOTH",
"139 255 OFFCURVE",
"102 229 OFFCURVE",
"75 193 CURVE SMOOTH",
"47 157 OFFCURVE",
"30 112 OFFCURVE",
"30 73 CURVE SMOOTH",
"30 49 OFFCURVE",
"36 31 OFFCURVE",
"49 18 CURVE",
"42 7 OFFCURVE",
"35 -3 OFFCURVE",
"27 -14 CURVE",
"26 -18 OFFCURVE",
"27 -21 OFFCURVE",
"31 -22 CURVE",
"39 -25 OFFCURVE",
"47 -12 OFFCURVE",
"52 -3 CURVE",
"55 1 OFFCURVE",
"58 5 OFFCURVE",
"61 9 CURVE",
"71 3 OFFCURVE",
"83 0 OFFCURVE",
"98 0 CURVE SMOOTH",
"127 0 OFFCURVE",
"165 21 OFFCURVE",
"195 54 CURVE SMOOTH",
"225 87 OFFCURVE",
"248 134 OFFCURVE",
"248 186 CURVE SMOOTH",
"248 206 OFFCURVE",
"242 226 OFFCURVE",
"227 238 CURVE",
"232 245 OFFCURVE",
"237 252 OFFCURVE",
"242 259 CURVE SMOOTH",
"247 266 OFFCURVE",
"253 273 OFFCURVE",
"258 280 CURVE",
"262 289 OFFCURVE",
"251 292 OFFCURVE",
"242 285 CURVE"
);
},
{
closed = 1;
nodes = (
"79 181 OFFCURVE",
"107 223 OFFCURVE",
"150 223 CURVE SMOOTH",
"164 223 OFFCURVE",
"175 217 OFFCURVE",
"183 205 CURVE",
"160 174 OFFCURVE",
"145 153 OFFCURVE",
"130 133 CURVE SMOOTH",
"115 112 OFFCURVE",
"102 93 OFFCURVE",
"83 66 CURVE",
"80 75 OFFCURVE",
"79 86 OFFCURVE",
"79 101 CURVE SMOOTH"
);
},
{
closed = 1;
nodes = (
"197 77 OFFCURVE",
"166 30 OFFCURVE",
"123 30 CURVE SMOOTH",
"108 30 OFFCURVE",
"97 37 OFFCURVE",
"89 51 CURVE",
"126 104 OFFCURVE",
"152 140 OFFCURVE",
"191 191 CURVE",
"195 180 OFFCURVE",
"197 167 OFFCURVE",
"197 153 CURVE SMOOTH"
);
}
);
width = 258;
}
);
note = oslash;
unicode = 00F8;
},
{
glyphname = p;
lastChange = "2017-06-04 12:09:41 +0000";
layers = (
{
layerId = "1178E776-45A7-4003-9263-224E9F7E8A45";
paths = (
{
closed = 1;
nodes = (
"215 256 OFFCURVE",
"193 245 OFFCURVE",
"174 229 CURVE SMOOTH",
"154 213 OFFCURVE",
"136 193 OFFCURVE",
"123 174 CURVE",
"137 203 OFFCURVE",
"148 230 OFFCURVE",
"157 253 CURVE",
"164 268 OFFCURVE",
"159 283 OFFCURVE",
"144 283 CURVE SMOOTH",
"132 283 OFFCURVE",
"115 275 OFFCURVE",
"99 264 CURVE SMOOTH",
"82 253 OFFCURVE",
"66 240 OFFCURVE",
"57 229 CURVE",
"56 226 OFFCURVE",
"60 219 OFFCURVE",
"63 222 CURVE",
"75 235 OFFCURVE",
"86 245 OFFCURVE",
"96 250 CURVE",
"103 254 OFFCURVE",
"108 253 OFFCURVE",
"109 246 CURVE SMOOTH",
"110 239 OFFCURVE",
"104 222 OFFCURVE",
"91 195 CURVE",
"71 148 OFFCURVE",
"50 100 OFFCURVE",
"33 52 CURVE",
"12 45 OFFCURVE",
"17 41 OFFCURVE",
"25 30 CURVE",
"-10 -66 OFFCURVE",
"-34 -160 OFFCURVE",
"-34 -228 CURVE SMOOTH",
"-34 -239 OFFCURVE",
"-27 -244 OFFCURVE",
"-16 -244 CURVE SMOOTH",
"-4 -244 OFFCURVE",
"15 -241 OFFCURVE",
"32 -236 CURVE",
"49 -232 OFFCURVE",
"66 -227 OFFCURVE",
"74 -223 CURVE",
"77 -218 OFFCURVE",
"76 -211 OFFCURVE",
"71 -211 CURVE",
"62 -218 OFFCURVE",
"52 -222 OFFCURVE",
"41 -223 CURVE",
"26 -226 OFFCURVE",
"19 -220 OFFCURVE",
"19 -205 CURVE SMOOTH",
"19 -141 OFFCURVE",
"40 -61 OFFCURVE",
"63 4 CURVE",
"71 1 OFFCURVE",
"81 0 OFFCURVE",
"92 0 CURVE SMOOTH",
"140 0 OFFCURVE",
"189 19 OFFCURVE",
"225 52 CURVE SMOOTH",
"261 84 OFFCURVE",
"285 129 OFFCURVE",
"285 184 CURVE SMOOTH",
"285 223 OFFCURVE",
"265 256 OFFCURVE",
"236 256 CURVE SMOOTH"
);
},
{
closed = 1;
nodes = (
"98 20 OFFCURVE",
"83 24 OFFCURVE",
"72 31 CURVE",
"76 43 OFFCURVE",
"80 54 OFFCURVE",
"84 65 CURVE SMOOTH",
"102 114 OFFCURVE",
"122 153 OFFCURVE",
"143 180 CURVE SMOOTH",
"164 207 OFFCURVE",
"183 221 OFFCURVE",
"198 221 CURVE SMOOTH",
"221 221 OFFCURVE",
"233 199 OFFCURVE",
"233 167 CURVE SMOOTH",
"233 119 OFFCURVE",
"219 82 OFFCURVE",
"199 58 CURVE SMOOTH",
"178 33 OFFCURVE",
"149 20 OFFCURVE",
"117 20 CURVE SMOOTH"
);
}
);
width = 295;
}
);
note = p;
unicode = 0070;
},
{
glyphname = paragraph;
lastChange = "2017-06-04 12:09:41 +0000";
layers = (
{
layerId = "1178E776-45A7-4003-9263-224E9F7E8A45";
paths = (
{
closed = 1;
nodes = (
"349 319 OFFCURVE",
"258 297 OFFCURVE",
"194 261 CURVE SMOOTH",
"130 224 OFFCURVE",
"93 171 OFFCURVE",
"93 110 CURVE SMOOTH",
"93 57 OFFCURVE",
"129 18 OFFCURVE",
"180 5 CURVE",
"175 -10 OFFCURVE",
"170 -25 OFFCURVE",
"165 -40 CURVE SMOOTH",
"160 -55 OFFCURVE",
"154 -70 OFFCURVE",
"149 -85 CURVE SMOOTH",
"130 -136 OFFCURVE",
"112 -171 OFFCURVE",
"95 -192 CURVE SMOOTH",
"78 -213 OFFCURVE",
"59 -223 OFFCURVE",
"39 -223 CURVE SMOOTH",
"-17 -223 OFFCURVE",
"-40 -191 OFFCURVE",
"-40 -144 CURVE SMOOTH",
"-40 -123 OFFCURVE",
"-35 -111 OFFCURVE",
"-24 -103 CURVE",
"-20 -99 OFFCURVE",
"-22 -90 OFFCURVE",
"-29 -90 CURVE",
"-64 -101 OFFCURVE",
"-93 -125 OFFCURVE",
"-93 -168 CURVE SMOOTH",
"-93 -215 OFFCURVE",
"-55 -243 OFFCURVE",
"14 -243 CURVE SMOOTH",
"147 -243 OFFCURVE",
"246 -186 OFFCURVE",
"302 -58 CURVE SMOOTH",
"322 -13 OFFCURVE",
"342 46 OFFCURVE",
"362 110 CURVE SMOOTH",
"381 173 OFFCURVE",
"399 239 OFFCURVE",
"415 299 CURVE",
"420 299 OFFCURVE",
"426 299 OFFCURVE",
"432 300 CURVE",
"438 300 OFFCURVE",
"444 300 OFFCURVE",
"450 300 CURVE",
"461 303 OFFCURVE",
"464 316 OFFCURVE",
"457 319 CURVE"
);
},
{
closed = 1;
nodes = (
"207 -160 OFFCURVE",
"158 -202 OFFCURVE",
"94 -217 CURVE",
"115 -206 OFFCURVE",
"134 -190 OFFCURVE",
"149 -169 CURVE SMOOTH",
"179 -128 OFFCURVE",
"201 -68 OFFCURVE",
"221 -8 CURVE SMOOTH",
"241 52 OFFCURVE",
"260 119 OFFCURVE",
"278 187 CURVE SMOOTH",
"287 221 OFFCURVE",
"295 253 OFFCURVE",
"303 283 CURVE",
"320 287 OFFCURVE",
"338 291 OFFCURVE",
"361 294 CURVE",
"345 230 OFFCURVE",
"325 161 OFFCURVE",
"306 97 CURVE SMOOTH",
"286 33 OFFCURVE",
"266 -25 OFFCURVE",
"247 -68 CURVE SMOOTH"
);
}
);
width = 425;
}
);
note = paragraph;
unicode = 00B6;
},
{
glyphname = parenleft;
lastChange = "2017-06-04 12:09:41 +0000";
layers = (
{
layerId = "1178E776-45A7-4003-9263-224E9F7E8A45";
paths = (
{
closed = 1;
nodes = (
"223 550 OFFCURVE",
"145 436 OFFCURVE",
"110 289 CURVE SMOOTH",
"91 214 OFFCURVE",
"90 140 OFFCURVE",
"98 73 CURVE SMOOTH",
"105 5 OFFCURVE",
"123 -55 OFFCURVE",
"143 -100 CURVE",
"148 -108 OFFCURVE",
"159 -104 OFFCURVE",
"158 -93 CURVE",
"151 -74 OFFCURVE",
"146 -48 OFFCURVE",
"143 -22 CURVE",
"139 4 OFFCURVE",
"138 31 OFFCURVE",
"138 52 CURVE SMOOTH",
"138 128 OFFCURVE",
"150 214 OFFCURVE",
"170 297 CURVE SMOOTH",
"190 380 OFFCURVE",
"219 458 OFFCURVE",
"254 517 CURVE SMOOTH",
"279 558 OFFCURVE",
"312 603 OFFCURVE",
"339 628 CURVE",
"346 640 OFFCURVE",
"336 642 OFFCURVE",
"328 637 CURVE"
);
}
);
width = 260;
}
);
note = parenleft;
unicode = 0028;
},
{
glyphname = parenright;
lastChange = "2017-06-04 12:09:41 +0000";
layers = (
{
layerId = "1178E776-45A7-4003-9263-224E9F7E8A45";
paths = (
{
closed = 1;
nodes = (
"145 -15 OFFCURVE",
"225 105 OFFCURVE",
"258 246 CURVE SMOOTH",
"275 315 OFFCURVE",
"278 389 OFFCURVE",
"271 457 CURVE SMOOTH",
"264 524 OFFCURVE",
"247 586 OFFCURVE",
"226 635 CURVE",
"219 643 OFFCURVE",
"209 640 OFFCURVE",
"210 628 CURVE",
"217 609 OFFCURVE",
"222 584 OFFCURVE",
"226 558 CURVE",
"229 532 OFFCURVE",
"230 504 OFFCURVE",
"230 483 CURVE SMOOTH",
"230 407 OFFCURVE",
"218 321 OFFCURVE",
"198 238 CURVE SMOOTH",
"178 155 OFFCURVE",
"149 78 OFFCURVE",
"114 19 CURVE SMOOTH",
"90 -24 OFFCURVE",
"56 -66 OFFCURVE",
"29 -93 CURVE",
"22 -105 OFFCURVE",
"32 -107 OFFCURVE",
"41 -102 CURVE"
);
}
);
width = 285;
}
);
note = parenright;
unicode = 0029;
},
{
glyphname = period;
lastChange = "2017-06-04 12:09:41 +0000";
layers = (
{
layerId = "1178E776-45A7-4003-9263-224E9F7E8A45";
paths = (
{
closed = 1;
nodes = (
"59 0 OFFCURVE",
"71 8 OFFCURVE",
"80 19 CURVE SMOOTH",
"89 30 OFFCURVE",
"95 44 OFFCURVE",
"95 55 CURVE SMOOTH",
"95 64 OFFCURVE",
"87 71 OFFCURVE",
"79 71 CURVE SMOOTH",
"67 71 OFFCURVE",
"54 64 OFFCURVE",
"45 54 CURVE SMOOTH",
"36 44 OFFCURVE",
"30 32 OFFCURVE",
"30 24 CURVE SMOOTH",
"30 5 OFFCURVE",
"38 0 OFFCURVE",
"50 0 CURVE SMOOTH"
);
}
);
width = 120;
}
);
note = period;
unicode = 002E;
},
{
glyphname = q;
lastChange = "2017-06-04 12:09:41 +0000";
layers = (
{
layerId = "1178E776-45A7-4003-9263-224E9F7E8A45";
paths = (
{
closed = 1;
nodes = (
"197 -220 OFFCURVE",
"187 -222 OFFCURVE",
"178 -222 CURVE SMOOTH",
"162 -222 OFFCURVE",
"158 -211 OFFCURVE",
"161 -188 CURVE",
"166 -127 OFFCURVE",
"185 -50 OFFCURVE",
"213 27 CURVE SMOOTH",
"241 104 OFFCURVE",
"277 181 OFFCURVE",
"321 244 CURVE",
"321 245 OFFCURVE",
"320 246 OFFCURVE",
"317 247 CURVE SMOOTH",
"314 248 OFFCURVE",
"310 248 OFFCURVE",
"305 248 CURVE SMOOTH",
"296 248 OFFCURVE",
"286 245 OFFCURVE",
"279 240 CURVE",
"267 251 OFFCURVE",
"249 256 OFFCURVE",
"230 256 CURVE SMOOTH",
"173 256 OFFCURVE",
"121 230 OFFCURVE",
"85 193 CURVE SMOOTH",
"48 156 OFFCURVE",
"25 107 OFFCURVE",
"25 62 CURVE SMOOTH",
"25 21 OFFCURVE",
"44 0 OFFCURVE",
"73 0 CURVE",
"90 3 OFFCURVE",
"112 14 OFFCURVE",
"133 31 CURVE SMOOTH",
"154 48 OFFCURVE",
"176 70 OFFCURVE",
"193 93 CURVE",
"183 72 OFFCURVE",
"173 49 OFFCURVE",
"163 22 CURVE SMOOTH",
"143 -32 OFFCURVE",
"126 -90 OFFCURVE",
"114 -141 CURVE SMOOTH",
"102 -192 OFFCURVE",
"86 -244 OFFCURVE",
"123 -244 CURVE SMOOTH",
"151 -244 OFFCURVE",
"188 -235 OFFCURVE",
"208 -228 CURVE",
"211 -225 OFFCURVE",
"213 -216 OFFCURVE",
"208 -216 CURVE"
);
},
{
closed = 1;
nodes = (
"87 35 OFFCURVE",
"79 46 OFFCURVE",
"79 69 CURVE SMOOTH",
"79 116 OFFCURVE",
"93 158 OFFCURVE",
"116 190 CURVE SMOOTH",
"139 221 OFFCURVE",
"171 240 OFFCURVE",
"210 240 CURVE SMOOTH",
"237 240 OFFCURVE",
"251 224 OFFCURVE",
"252 211 CURVE",
"240 188 OFFCURVE",
"233 174 OFFCURVE",
"214 142 CURVE",
"205 125 OFFCURVE",
"184 99 OFFCURVE",
"161 76 CURVE SMOOTH",
"138 53 OFFCURVE",
"115 35 OFFCURVE",
"102 35 CURVE SMOOTH"
);
}
);
width = 302;
}
);
note = q;
unicode = 0071;
},
{
glyphname = question;
lastChange = "2017-06-04 12:09:41 +0000";
layers = (
{
layerId = "1178E776-45A7-4003-9263-224E9F7E8A45";
paths = (
{
closed = 1;
nodes = (
"83 0 OFFCURVE",
"95 8 OFFCURVE",
"104 19 CURVE SMOOTH",
"113 30 OFFCURVE",
"119 44 OFFCURVE",
"119 55 CURVE SMOOTH",
"119 64 OFFCURVE",
"111 71 OFFCURVE",
"103 71 CURVE SMOOTH",
"91 71 OFFCURVE",
"78 64 OFFCURVE",
"70 54 CURVE",
"61 44 OFFCURVE",
"55 32 OFFCURVE",
"55 24 CURVE SMOOTH",
"55 5 OFFCURVE",
"62 0 OFFCURVE",
"74 0 CURVE SMOOTH"
);
},
{
closed = 1;
nodes = (
"265 519 OFFCURVE",
"237 507 OFFCURVE",
"214 490 CURVE SMOOTH",
"190 473 OFFCURVE",
"171 449 OFFCURVE",
"162 424 CURVE",
"161 417 OFFCURVE",
"171 407 OFFCURVE",
"178 414 CURVE",
"187 453 OFFCURVE",
"219 484 OFFCURVE",
"268 484 CURVE SMOOTH",
"316 484 OFFCURVE",
"343 451 OFFCURVE",
"343 404 CURVE SMOOTH",
"343 376 OFFCURVE",
"336 353 OFFCURVE",
"321 335 CURVE SMOOTH",
"291 299 OFFCURVE",
"246 273 OFFCURVE",
"198 246 CURVE SMOOTH",
"174 233 OFFCURVE",
"153 216 OFFCURVE",
"135 197 CURVE SMOOTH",
"126 188 OFFCURVE",
"120 180 OFFCURVE",
"117 171 CURVE",
"110 153 OFFCURVE",
"112 137 OFFCURVE",
"120 126 CURVE SMOOTH",
"128 115 OFFCURVE",
"138 113 OFFCURVE",
"153 119 CURVE SMOOTH",
"168 125 OFFCURVE",
"182 133 OFFCURVE",
"188 140 CURVE",
"191 143 OFFCURVE",
"190 145 OFFCURVE",
"185 146 CURVE",
"162 149 OFFCURVE",
"153 167 OFFCURVE",
"164 190 CURVE SMOOTH",
"179 219 OFFCURVE",
"209 239 OFFCURVE",
"244 256 CURVE SMOOTH",
"279 273 OFFCURVE",
"318 291 OFFCURVE",
"348 317 CURVE SMOOTH",
"378 343 OFFCURVE",
"399 376 OFFCURVE",
"399 429 CURVE SMOOTH",
"399 452 OFFCURVE",
"389 475 OFFCURVE",
"371 492 CURVE SMOOTH",
"353 508 OFFCURVE",
"327 519 OFFCURVE",
"296 519 CURVE SMOOTH"
);
}
);
width = 296;
}
);
note = question;
unicode = 003F;
},
{
glyphname = questiondown;
lastChange = "2017-06-04 12:09:41 +0000";
layers = (
{
layerId = "1178E776-45A7-4003-9263-224E9F7E8A45";
paths = (
{
closed = 1;
nodes = (
"256 255 OFFCURVE",
"246 247 OFFCURVE",
"237 236 CURVE",
"228 224 OFFCURVE",
"222 211 OFFCURVE",
"222 200 CURVE SMOOTH",
"222 191 OFFCURVE",
"230 184 OFFCURVE",
"238 184 CURVE SMOOTH",
"250 184 OFFCURVE",
"263 192 OFFCURVE",
"272 202 CURVE",
"280 212 OFFCURVE",
"286 223 OFFCURVE",
"286 231 CURVE SMOOTH",
"286 250 OFFCURVE",
"279 255 OFFCURVE",
"267 255 CURVE SMOOTH"
);
},
{
closed = 1;
nodes = (
"74 -264 OFFCURVE",
"104 -252 OFFCURVE",
"128 -235 CURVE SMOOTH",
"151 -218 OFFCURVE",
"170 -194 OFFCURVE",
"179 -169 CURVE",
"180 -162 OFFCURVE",
"170 -152 OFFCURVE",
"163 -159 CURVE",
"154 -198 OFFCURVE",
"122 -229 OFFCURVE",
"73 -229 CURVE SMOOTH",
"25 -229 OFFCURVE",
"-2 -196 OFFCURVE",
"-2 -149 CURVE SMOOTH",
"-2 -121 OFFCURVE",
"6 -98 OFFCURVE",
"21 -80 CURVE SMOOTH",
"51 -44 OFFCURVE",
"95 -18 OFFCURVE",
"143 9 CURVE SMOOTH",
"167 22 OFFCURVE",
"188 39 OFFCURVE",
"206 58 CURVE SMOOTH",
"215 67 OFFCURVE",
"221 76 OFFCURVE",
"224 85 CURVE",
"231 103 OFFCURVE",
"229 118 OFFCURVE",
"221 129 CURVE SMOOTH",
"213 140 OFFCURVE",
"203 141 OFFCURVE",
"188 136 CURVE SMOOTH",
"173 131 OFFCURVE",
"160 122 OFFCURVE",
"154 115 CURVE",
"151 112 OFFCURVE",
"151 110 OFFCURVE",
"156 109 CURVE",
"179 106 OFFCURVE",
"188 88 OFFCURVE",
"177 65 CURVE SMOOTH",
"162 36 OFFCURVE",
"132 16 OFFCURVE",
"97 -1 CURVE SMOOTH",
"62 -18 OFFCURVE",
"24 -35 OFFCURVE",
"-6 -61 CURVE SMOOTH",
"-36 -87 OFFCURVE",
"-58 -122 OFFCURVE",
"-58 -174 CURVE SMOOTH",
"-58 -197 OFFCURVE",
"-47 -220 OFFCURVE",
"-29 -236 CURVE SMOOTH",
"-11 -253 OFFCURVE",
"14 -264 OFFCURVE",
"45 -264 CURVE SMOOTH"
);
}
);
width = 291;
}
);
note = questiondown;
unicode = 00BF;
},
{
glyphname = quotedblleft;
lastChange = "2017-06-04 12:09:41 +0000";
layers = (
{
layerId = "1178E776-45A7-4003-9263-224E9F7E8A45";
paths = (
{
closed = 1;
nodes = (
"73 256 OFFCURVE",
"78 258 OFFCURVE",
"84 262 CURVE SMOOTH",
"95 269 OFFCURVE",
"105 280 OFFCURVE",
"110 290 CURVE",
"112 295 OFFCURVE",
"112 298 OFFCURVE",
"110 300 CURVE",
"103 303 OFFCURVE",
"99 312 OFFCURVE",
"99 327 CURVE SMOOTH",
"99 358 OFFCURVE",
"119 386 OFFCURVE",
"147 403 CURVE",
"152 410 OFFCURVE",
"150 414 OFFCURVE",
"145 414 CURVE",
"92 383 OFFCURVE",
"55 335 OFFCURVE",
"55 291 CURVE SMOOTH",
"55 275 OFFCURVE",
"61 259 OFFCURVE",
"68 256 CURVE"
);
},
{
closed = 1;
nodes = (
"163 256 OFFCURVE",
"168 258 OFFCURVE",
"174 262 CURVE SMOOTH",
"185 269 OFFCURVE",
"195 280 OFFCURVE",
"200 290 CURVE",
"202 295 OFFCURVE",
"202 298 OFFCURVE",
"200 300 CURVE",
"193 303 OFFCURVE",
"189 312 OFFCURVE",
"189 327 CURVE SMOOTH",
"189 358 OFFCURVE",
"209 386 OFFCURVE",
"237 403 CURVE",
"242 410 OFFCURVE",
"240 414 OFFCURVE",
"235 414 CURVE",
"182 383 OFFCURVE",
"145 335 OFFCURVE",
"145 291 CURVE SMOOTH",
"145 275 OFFCURVE",
"151 259 OFFCURVE",
"158 256 CURVE"
);
}
);
width = 184;
}
);
note = quotedblleft;
unicode = 201C;
},
{
glyphname = quotedblright;
lastChange = "2017-06-04 12:09:41 +0000";
layers = (
{
layerId = "1178E776-45A7-4003-9263-224E9F7E8A45";
paths = (
{
closed = 1;
nodes = (
"126 414 OFFCURVE",
"121 412 OFFCURVE",
"116 409 CURVE",
"104 401 OFFCURVE",
"94 391 OFFCURVE",
"90 381 CURVE",
"87 376 OFFCURVE",
"87 372 OFFCURVE",
"89 370 CURVE",
"96 367 OFFCURVE",
"100 358 OFFCURVE",
"100 343 CURVE SMOOTH",
"100 312 OFFCURVE",
"80 284 OFFCURVE",
"52 267 CURVE",
"47 260 OFFCURVE",
"49 256 OFFCURVE",
"54 256 CURVE",
"107 287 OFFCURVE",
"144 335 OFFCURVE",
"144 379 CURVE SMOOTH",
"144 395 OFFCURVE",
"138 411 OFFCURVE",
"131 414 CURVE"
);
},
{
closed = 1;
nodes = (
"216 414 OFFCURVE",
"211 412 OFFCURVE",
"206 409 CURVE",
"194 401 OFFCURVE",
"184 391 OFFCURVE",
"180 381 CURVE",
"177 376 OFFCURVE",
"177 372 OFFCURVE",
"179 370 CURVE",
"186 367 OFFCURVE",
"190 358 OFFCURVE",
"190 343 CURVE SMOOTH",
"190 312 OFFCURVE",
"170 284 OFFCURVE",
"142 267 CURVE",
"137 260 OFFCURVE",
"139 256 OFFCURVE",
"144 256 CURVE",
"197 287 OFFCURVE",
"234 335 OFFCURVE",
"234 379 CURVE SMOOTH",
"234 395 OFFCURVE",
"228 411 OFFCURVE",
"221 414 CURVE"
);
}
);
width = 184;
}
);
note = quotedblright;
unicode = 201D;
},
{
glyphname = quoteleft;
lastChange = "2017-06-04 12:09:41 +0000";
layers = (
{
layerId = "1178E776-45A7-4003-9263-224E9F7E8A45";
paths = (
{
closed = 1;
nodes = (
"73 256 OFFCURVE",
"78 258 OFFCURVE",
"84 262 CURVE SMOOTH",
"95 269 OFFCURVE",
"105 280 OFFCURVE",
"110 290 CURVE",
"112 295 OFFCURVE",
"112 298 OFFCURVE",
"110 300 CURVE",
"103 303 OFFCURVE",
"99 312 OFFCURVE",
"99 327 CURVE SMOOTH",
"99 358 OFFCURVE",
"119 386 OFFCURVE",
"147 403 CURVE",
"152 410 OFFCURVE",
"150 414 OFFCURVE",
"145 414 CURVE",
"92 383 OFFCURVE",
"55 335 OFFCURVE",
"55 291 CURVE SMOOTH",
"55 275 OFFCURVE",
"61 259 OFFCURVE",
"68 256 CURVE"
);
}
);
width = 94;
}
);
note = quoteleft;
unicode = 2018;
},
{
glyphname = quoteright;
lastChange = "2017-06-04 12:09:41 +0000";
layers = (
{
layerId = "1178E776-45A7-4003-9263-224E9F7E8A45";
paths = (
{
closed = 1;
nodes = (
"126 414 OFFCURVE",
"121 412 OFFCURVE",
"116 409 CURVE",
"104 401 OFFCURVE",
"94 391 OFFCURVE",
"90 381 CURVE",
"87 376 OFFCURVE",
"87 372 OFFCURVE",
"89 370 CURVE",
"96 367 OFFCURVE",
"100 358 OFFCURVE",
"100 343 CURVE SMOOTH",
"100 312 OFFCURVE",
"80 284 OFFCURVE",
"52 267 CURVE",
"47 260 OFFCURVE",
"49 256 OFFCURVE",
"54 256 CURVE",
"107 287 OFFCURVE",
"144 335 OFFCURVE",
"144 379 CURVE SMOOTH",
"144 395 OFFCURVE",
"138 411 OFFCURVE",
"131 414 CURVE"
);
}
);
width = 94;
}
);
note = quoteright;
unicode = 2019;
},
{
glyphname = r;
lastChange = "2017-06-04 12:09:41 +0000";
layers = (
{
layerId = "1178E776-45A7-4003-9263-224E9F7E8A45";
paths = (
{
closed = 1;
nodes = (
"136 246 OFFCURVE",
"129 256 OFFCURVE",
"108 256 CURVE SMOOTH",
"92 256 OFFCURVE",
"77 249 OFFCURVE",
"63 239 CURVE SMOOTH",
"49 229 OFFCURVE",
"37 217 OFFCURVE",
"29 206 CURVE",
"26 201 OFFCURVE",
"33 196 OFFCURVE",
"38 200 CURVE",
"50 217 OFFCURVE",
"65 230 OFFCURVE",
"78 230 CURVE SMOOTH",
"83 230 OFFCURVE",
"86 227 OFFCURVE",
"87 222 CURVE",
"87 217 OFFCURVE",
"86 209 OFFCURVE",
"85 199 CURVE",
"81 172 OFFCURVE",
"74 140 OFFCURVE",
"65 107 CURVE SMOOTH",
"56 74 OFFCURVE",
"44 40 OFFCURVE",
"32 12 CURVE",
"29 4 OFFCURVE",
"31 0 OFFCURVE",
"38 0 CURVE SMOOTH",
"46 0 OFFCURVE",
"58 2 OFFCURVE",
"68 6 CURVE",
"78 9 OFFCURVE",
"87 13 OFFCURVE",
"88 20 CURVE",
"104 79 OFFCURVE",
"122 125 OFFCURVE",
"141 157 CURVE SMOOTH",
"160 188 OFFCURVE",
"181 204 OFFCURVE",
"204 204 CURVE SMOOTH",
"219 204 OFFCURVE",
"226 196 OFFCURVE",
"226 187 CURVE SMOOTH",
"226 184 OFFCURVE",
"229 182 OFFCURVE",
"232 183 CURVE",
"239 191 OFFCURVE",
"252 218 OFFCURVE",
"252 231 CURVE SMOOTH",
"252 246 OFFCURVE",
"241 256 OFFCURVE",
"221 256 CURVE SMOOTH",
"184 256 OFFCURVE",
"152 218 OFFCURVE",
"125 154 CURVE",
"132 181 OFFCURVE",
"136 207 OFFCURVE",
"136 227 CURVE SMOOTH"
);
}
);
width = 212;
}
);
note = r;
unicode = 0072;
},
{
glyphname = ring;
lastChange = "2017-06-04 12:09:41 +0000";
layers = (
{
layerId = "1178E776-45A7-4003-9263-224E9F7E8A45";
paths = (
{
closed = 1;
nodes = (
"75 375 OFFCURVE",
"82 363 OFFCURVE",
"82 351 CURVE SMOOTH",
"82 332 OFFCURVE",
"72 321 OFFCURVE",
"57 321 CURVE SMOOTH",
"44 321 OFFCURVE",
"34 332 OFFCURVE",
"34 345 CURVE SMOOTH",
"34 364 OFFCURVE",
"44 375 OFFCURVE",
"60 375 CURVE SMOOTH"
);
},
{
closed = 1;
nodes = (
"74 307 OFFCURVE",
"99 333 OFFCURVE",
"99 360 CURVE SMOOTH",
"99 376 OFFCURVE",
"89 389 OFFCURVE",
"72 389 CURVE SMOOTH",
"43 389 OFFCURVE",
"17 363 OFFCURVE",
"17 336 CURVE SMOOTH",
"17 320 OFFCURVE",
"26 307 OFFCURVE",
"45 307 CURVE SMOOTH"
);
}
);
width = 117;
}
);
note = ring;
unicode = 02DA;
},
{
glyphname = s;
lastChange = "2017-06-04 12:09:41 +0000";
layers = (
{
layerId = "1178E776-45A7-4003-9263-224E9F7E8A45";
paths = (
{
closed = 1;
nodes = (
"98 256 OFFCURVE",
"68 230 OFFCURVE",
"68 195 CURVE SMOOTH",
"68 171 OFFCURVE",
"82 150 OFFCURVE",
"95 130 CURVE SMOOTH",
"108 109 OFFCURVE",
"122 87 OFFCURVE",
"122 62 CURVE SMOOTH",
"122 34 OFFCURVE",
"102 12 OFFCURVE",
"67 12 CURVE SMOOTH",
"42 12 OFFCURVE",
"24 29 OFFCURVE",
"24 53 CURVE SMOOTH",
"24 68 OFFCURVE",
"28 75 OFFCURVE",
"36 83 CURVE",
"39 87 OFFCURVE",
"34 93 OFFCURVE",
"30 90 CURVE SMOOTH",
"21 83 OFFCURVE",
"13 72 OFFCURVE",
"6 61 CURVE SMOOTH",
"-1 50 OFFCURVE",
"-5 40 OFFCURVE",
"-5 35 CURVE SMOOTH",
"-5 26 OFFCURVE",
"2 18 OFFCURVE",
"15 11 CURVE SMOOTH",
"28 4 OFFCURVE",
"45 0 OFFCURVE",
"68 0 CURVE SMOOTH",
"131 0 OFFCURVE",
"173 28 OFFCURVE",
"173 76 CURVE SMOOTH",
"173 104 OFFCURVE",
"159 125 OFFCURVE",
"145 145 CURVE SMOOTH",
"131 164 OFFCURVE",
"117 183 OFFCURVE",
"117 204 CURVE SMOOTH",
"117 229 OFFCURVE",
"132 244 OFFCURVE",
"155 244 CURVE SMOOTH",
"172 244 OFFCURVE",
"183 231 OFFCURVE",
"183 212 CURVE SMOOTH",
"183 203 OFFCURVE",
"182 197 OFFCURVE",
"180 192 CURVE",
"180 187 OFFCURVE",
"185 184 OFFCURVE",
"188 187 CURVE",
"195 199 OFFCURVE",
"204 220 OFFCURVE",
"204 235 CURVE SMOOTH",
"204 241 OFFCURVE",
"200 246 OFFCURVE",
"191 250 CURVE SMOOTH",
"182 254 OFFCURVE",
"170 256 OFFCURVE",
"155 256 CURVE SMOOTH"
);
}
);
width = 206;
}
);
note = s;
unicode = 0073;
},
{
glyphname = section;
lastChange = "2017-06-04 12:09:41 +0000";
layers = (
{
layerId = "1178E776-45A7-4003-9263-224E9F7E8A45";
paths = (
{
closed = 1;
nodes = (
"324 517 OFFCURVE",
"258 493 OFFCURVE",
"215 451 CURVE SMOOTH",
"172 409 OFFCURVE",
"151 350 OFFCURVE",
"151 283 CURVE SMOOTH",
"151 208 OFFCURVE",
"168 149 OFFCURVE",
"184 89 CURVE SMOOTH",
"200 29 OFFCURVE",
"217 -31 OFFCURVE",
"217 -103 CURVE SMOOTH",
"217 -172 OFFCURVE",
"182 -214 OFFCURVE",
"110 -214 CURVE SMOOTH",
"42 -214 OFFCURVE",
"1 -171 OFFCURVE",
"1 -110 CURVE SMOOTH",
"1 -85 OFFCURVE",
"8 -65 OFFCURVE",
"21 -51 CURVE",
"24 -44 OFFCURVE",
"19 -38 OFFCURVE",
"14 -41 CURVE SMOOTH",
"-31 -68 OFFCURVE",
"-50 -103 OFFCURVE",
"-50 -138 CURVE SMOOTH",
"-50 -203 OFFCURVE",
"10 -243 OFFCURVE",
"91 -243 CURVE SMOOTH",
"172 -243 OFFCURVE",
"239 -222 OFFCURVE",
"286 -182 CURVE SMOOTH",
"333 -143 OFFCURVE",
"359 -85 OFFCURVE",
"359 -9 CURVE SMOOTH",
"359 67 OFFCURVE",
"343 131 OFFCURVE",
"327 192 CURVE SMOOTH",
"310 252 OFFCURVE",
"294 311 OFFCURVE",
"294 382 CURVE SMOOTH",
"294 451 OFFCURVE",
"333 488 OFFCURVE",
"401 488 CURVE SMOOTH",
"457 488 OFFCURVE",
"483 451 OFFCURVE",
"483 410 CURVE SMOOTH",
"483 390 OFFCURVE",
"479 379 OFFCURVE",
"472 368 CURVE",
"471 361 OFFCURVE",
"476 357 OFFCURVE",
"480 360 CURVE",
"508 379 OFFCURVE",
"529 407 OFFCURVE",
"529 436 CURVE SMOOTH",
"529 483 OFFCURVE",
"493 517 OFFCURVE",
"413 517 CURVE SMOOTH"
);
},
{
closed = 1;
nodes = (
"247 287 OFFCURVE",
"261 229 OFFCURVE",
"277 167 CURVE SMOOTH",
"292 105 OFFCURVE",
"306 39 OFFCURVE",
"306 -37 CURVE SMOOTH",
"306 -84 OFFCURVE",
"293 -125 OFFCURVE",
"271 -155 CURVE SMOOTH",
"249 -185 OFFCURVE",
"220 -206 OFFCURVE",
"188 -211 CURVE",
"231 -184 OFFCURVE",
"265 -137 OFFCURVE",
"265 -69 CURVE SMOOTH",
"265 -2 OFFCURVE",
"250 55 OFFCURVE",
"235 116 CURVE SMOOTH",
"219 177 OFFCURVE",
"204 240 OFFCURVE",
"204 319 CURVE SMOOTH",
"204 367 OFFCURVE",
"218 406 OFFCURVE",
"240 435 CURVE SMOOTH",
"262 463 OFFCURVE",
"291 482 OFFCURVE",
"323 486 CURVE",
"276 455 OFFCURVE",
"247 406 OFFCURVE",
"247 350 CURVE SMOOTH"
);
}
);
width = 449;
}
);
note = section;
unicode = 00A7;
},
{
glyphname = semicolon;
lastChange = "2017-06-04 12:09:41 +0000";
layers = (
{
layerId = "1178E776-45A7-4003-9263-224E9F7E8A45";
paths = (
{
closed = 1;
nodes = (
"109 185 OFFCURVE",
"122 193 OFFCURVE",
"131 204 CURVE",
"139 215 OFFCURVE",
"146 229 OFFCURVE",
"146 240 CURVE SMOOTH",
"146 249 OFFCURVE",
"137 256 OFFCURVE",
"130 256 CURVE SMOOTH",
"117 256 OFFCURVE",
"104 249 OFFCURVE",
"96 239 CURVE",
"87 229 OFFCURVE",
"81 217 OFFCURVE",
"81 209 CURVE SMOOTH",
"81 190 OFFCURVE",
"88 185 OFFCURVE",
"100 185 CURVE SMOOTH"
);
},
{
closed = 1;
nodes = (
"73 73 OFFCURVE",
"68 71 OFFCURVE",
"63 68 CURVE",
"51 60 OFFCURVE",
"41 50 OFFCURVE",
"37 40 CURVE",
"34 35 OFFCURVE",
"34 31 OFFCURVE",
"36 29 CURVE",
"43 26 OFFCURVE",
"47 17 OFFCURVE",
"47 2 CURVE SMOOTH",
"47 -29 OFFCURVE",
"27 -57 OFFCURVE",
"-1 -74 CURVE",
"-6 -81 OFFCURVE",
"-4 -85 OFFCURVE",
"1 -85 CURVE",
"54 -54 OFFCURVE",
"91 -6 OFFCURVE",
"91 38 CURVE SMOOTH",
"91 54 OFFCURVE",
"85 70 OFFCURVE",
"78 73 CURVE"
);
}
);
width = 163;
}
);
note = semicolon;
unicode = 003B;
},
{
glyphname = slash;
lastChange = "2017-06-04 12:09:41 +0000";
layers = (
{
layerId = "1178E776-45A7-4003-9263-224E9F7E8A45";
paths = (
{
closed = 1;
nodes = (
"386 636 OFFCURVE",
"367 637 OFFCURVE",
"359 630 CURVE",
"324 571 OFFCURVE",
"280 496 OFFCURVE",
"233 415 CURVE SMOOTH",
"210 374 OFFCURVE",
"186 333 OFFCURVE",
"162 291 CURVE SMOOTH",
"137 249 OFFCURVE",
"114 208 OFFCURVE",
"92 169 CURVE SMOOTH",
"69 130 OFFCURVE",
"48 93 OFFCURVE",
"28 58 CURVE SMOOTH",
"8 23 OFFCURVE",
"-9 -7 OFFCURVE",
"-24 -33 CURVE",
"-25 -40 OFFCURVE",
"-20 -43 OFFCURVE",
"-14 -43 CURVE",
"-8 -44 OFFCURVE",
"-1 -42 OFFCURVE",
"3 -37 CURVE",
"28 11 OFFCURVE",
"70 85 OFFCURVE",
"116 166 CURVE SMOOTH",
"162 247 OFFCURVE",
"213 338 OFFCURVE",
"261 420 CURVE SMOOTH",
"309 502 OFFCURVE",
"352 576 OFFCURVE",
"383 625 CURVE"
);
}
);
width = 214;
}
);
note = slash;
unicode = 002F;
},
{
glyphname = Adieresis;
lastChange = "2017-06-04 12:09:41 +0000";
layers = (
{
layerId = "1178E776-45A7-4003-9263-224E9F7E8A45";
paths = (
{
closed = 1;
nodes = (
"956 667 OFFCURVE",
"971 689 OFFCURVE",
"971 708 CURVE SMOOTH",
"971 717 OFFCURVE",
"968 721 OFFCURVE",
"962 721 CURVE SMOOTH",
"941 721 OFFCURVE",
"926 697 OFFCURVE",
"926 684 CURVE SMOOTH",
"926 673 OFFCURVE",
"930 667 OFFCURVE",
"937 667 CURVE SMOOTH"
);
},
{
closed = 1;
nodes = (
"1030 667 OFFCURVE",
"1046 689 OFFCURVE",
"1046 708 CURVE SMOOTH",
"1046 717 OFFCURVE",
"1043 721 OFFCURVE",
"1037 721 CURVE SMOOTH",
"1017 721 OFFCURVE",
"1002 697 OFFCURVE",
"1002 684 CURVE SMOOTH",
"1002 673 OFFCURVE",
"1006 667 OFFCURVE",
"1014 667 CURVE SMOOTH"
);
},
{
closed = 1;
nodes = (
"981 598 OFFCURVE",
"927 613 OFFCURVE",
"869 625 CURVE SMOOTH",
"811 636 OFFCURVE",
"749 644 OFFCURVE",
"694 644 CURVE SMOOTH",
"565 644 OFFCURVE",
"479 573 OFFCURVE",
"463 442 CURVE",
"464 435 OFFCURVE",
"470 433 OFFCURVE",
"473 440 CURVE",
"488 559 OFFCURVE",
"555 612 OFFCURVE",
"655 612 CURVE SMOOTH",
"743 612 OFFCURVE",
"842 590 OFFCURVE",
"931 561 CURVE",
"806 462 OFFCURVE",
"719 371 OFFCURVE",
"644 294 CURVE",
"621 293 OFFCURVE",
"600 293 OFFCURVE",
"582 293 CURVE",
"563 292 OFFCURVE",
"550 292 OFFCURVE",
"541 291 CURVE",
"536 290 OFFCURVE",
"530 289 OFFCURVE",
"525 287 CURVE SMOOTH",
"513 282 OFFCURVE",
"505 275 OFFCURVE",
"501 270 CURVE",
"499 267 OFFCURVE",
"500 266 OFFCURVE",
"503 265 CURVE",
"539 270 OFFCURVE",
"580 273 OFFCURVE",
"627 276 CURVE",
"610 259 OFFCURVE",
"594 243 OFFCURVE",
"579 228 CURVE SMOOTH",
"564 213 OFFCURVE",
"548 198 OFFCURVE",
"533 185 CURVE SMOOTH",
"445 105 OFFCURVE",
"346 55 OFFCURVE",
"233 55 CURVE SMOOTH",
"162 55 OFFCURVE",
"116 85 OFFCURVE",
"94 123 CURVE SMOOTH",
"72 161 OFFCURVE",
"74 208 OFFCURVE",
"105 241 CURVE",
"106 250 OFFCURVE",
"99 254 OFFCURVE",
"95 251 CURVE",
"51 196 OFFCURVE",
"37 134 OFFCURVE",
"51 85 CURVE SMOOTH",
"65 36 OFFCURVE",
"108 0 OFFCURVE",
"180 0 CURVE SMOOTH",
"315 0 OFFCURVE",
"423 58 OFFCURVE",
"530 155 CURVE SMOOTH",
"569 190 OFFCURVE",
"609 231 OFFCURVE",
"653 278 CURVE",
"710 281 OFFCURVE",
"771 282 OFFCURVE",
"834 282 CURVE",
"822 227 OFFCURVE",
"816 172 OFFCURVE",
"816 119 CURVE SMOOTH",
"816 43 OFFCURVE",
"844 0 OFFCURVE",
"897 0 CURVE SMOOTH",
"933 0 OFFCURVE",
"978 38 OFFCURVE",
"1013 94 CURVE",
"1014 99 OFFCURVE",
"1009 103 OFFCURVE",
"1005 100 CURVE",
"981 63 OFFCURVE",
"956 44 OFFCURVE",
"929 44 CURVE SMOOTH",
"890 44 OFFCURVE",
"877 81 OFFCURVE",
"877 145 CURVE SMOOTH",
"877 230 OFFCURVE",
"891 313 OFFCURVE",
"915 386 CURVE SMOOTH",
"939 459 OFFCURVE",
"974 522 OFFCURVE",
"1018 570 CURVE",
"1022 574 OFFCURVE",
"1024 577 OFFCURVE",
"1024 580 CURVE SMOOTH",
"1024 582 OFFCURVE",
"1023 584 OFFCURVE",
"1021 585 CURVE"
);
},
{
closed = 1;
nodes = (
"819 295 OFFCURVE",
"795 295 OFFCURVE",
"764 295 CURVE SMOOTH",
"733 295 OFFCURVE",
"701 295 OFFCURVE",
"669 294 CURVE",
"746 375 OFFCURVE",
"836 465 OFFCURVE",
"953 560 CURVE",
"897 484 OFFCURVE",
"858 391 OFFCURVE",
"837 295 CURVE"
);
}
);
width = 1015;
}
);
note = Adieresis;
unicode = 00C4;
},
{
glyphname = t;
lastChange = "2017-06-04 12:09:41 +0000";
layers = (
{
layerId = "1178E776-45A7-4003-9263-224E9F7E8A45";
paths = (
{
closed = 1;
nodes = (
"211 251 OFFCURVE",
"199 251 OFFCURVE",
"186 251 CURVE SMOOTH",
"173 251 OFFCURVE",
"160 251 OFFCURVE",
"147 250 CURVE",
"167 297 OFFCURVE",
"189 340 OFFCURVE",
"212 375 CURVE",
"213 378 OFFCURVE",
"211 379 OFFCURVE",
"207 379 CURVE",
"202 378 OFFCURVE",
"197 377 OFFCURVE",
"190 375 CURVE SMOOTH",
"177 371 OFFCURVE",
"161 363 OFFCURVE",
"153 354 CURVE",
"134 325 OFFCURVE",
"115 288 OFFCURVE",
"98 249 CURVE",
"95 248 OFFCURVE",
"93 248 OFFCURVE",
"90 248 CURVE SMOOTH",
"87 248 OFFCURVE",
"85 248 OFFCURVE",
"82 248 CURVE SMOOTH",
"77 248 OFFCURVE",
"71 247 OFFCURVE",
"65 245 CURVE",
"53 240 OFFCURVE",
"44 233 OFFCURVE",
"41 228 CURVE",
"39 225 OFFCURVE",
"40 224 OFFCURVE",
"43 223 CURVE",
"58 226 OFFCURVE",
"74 229 OFFCURVE",
"91 231 CURVE",
"62 160 OFFCURVE",
"41 86 OFFCURVE",
"41 47 CURVE SMOOTH",
"41 18 OFFCURVE",
"57 0 OFFCURVE",
"92 0 CURVE SMOOTH",
"125 0 OFFCURVE",
"163 32 OFFCURVE",
"186 69 CURVE",
"187 76 OFFCURVE",
"183 79 OFFCURVE",
"179 76 CURVE",
"158 46 OFFCURVE",
"138 31 OFFCURVE",
"121 31 CURVE SMOOTH",
"104 31 OFFCURVE",
"95 42 OFFCURVE",
"95 65 CURVE SMOOTH",
"95 104 OFFCURVE",
"114 171 OFFCURVE",
"141 236 CURVE",
"170 239 OFFCURVE",
"197 240 OFFCURVE",
"217 240 CURVE",
"228 243 OFFCURVE",
"229 248 OFFCURVE",
"222 251 CURVE"
);
}
);
width = 187;
}
);
note = t;
unicode = 0074;
},
{
glyphname = tilde;
lastChange = "2017-06-04 12:09:41 +0000";
layers = (
{
layerId = "1178E776-45A7-4003-9263-224E9F7E8A45";
paths = (
{
closed = 1;
nodes = (
"20 327 OFFCURVE",
"22 325 OFFCURVE",
"29 326 CURVE",
"44 341 OFFCURVE",
"53 349 OFFCURVE",
"64 350 CURVE",
"72 350 OFFCURVE",
"81 345 OFFCURVE",
"91 339 CURVE SMOOTH",
"101 333 OFFCURVE",
"114 326 OFFCURVE",
"131 326 CURVE SMOOTH",
"168 326 OFFCURVE",
"186 349 OFFCURVE",
"201 373 CURVE",
"202 377 OFFCURVE",
"195 380 OFFCURVE",
"191 377 CURVE",
"180 360 OFFCURVE",
"167 351 OFFCURVE",
"147 351 CURVE SMOOTH",
"127 351 OFFCURVE",
"115 359 OFFCURVE",
"104 365 CURVE SMOOTH",
"93 371 OFFCURVE",
"85 377 OFFCURVE",
"76 374 CURVE",
"61 370 OFFCURVE",
"37 351 OFFCURVE",
"21 332 CURVE"
);
}
);
width = 222;
}
);
note = tilde;
unicode = 02DC;
},
